<svg height="160" viewBox="0 0 220 160" width="220" xmlns="http://www.w3.org/2000/svg"><circle cx="5" cy="5" fill="#fff" r="5"/><circle cx="35" cy="5" fill="#fff" r="5"/><circle cx="65" cy="5" fill="#fff" r="5"/><circle cx="95" cy="5" fill="#40bad5" r="5"/><circle cx="125" cy="5" fill="#40bad5" r="5"/><circle cx="155" cy="5" fill="#40bad5" r="5"/><circle cx="185" cy="5" fill="#40bad5" r="5"/><circle cx="215" cy="5" fill="#40bad5" r="5"/><circle cx="5" cy="35" fill="#fff" r="5"/><circle cx="35" cy="35" fill="#fff" r="5"/><circle cx="65" cy="35" fill="#fff" r="5"/><circle cx="95" cy="35" fill="#40bad5" r="5"/><circle cx="125" cy="35" fill="#40bad5" r="5"/><circle cx="155" cy="35" fill="#40bad5" r="5"/><circle cx="185" cy="35" fill="#40bad5" r="5"/><circle cx="215" cy="35" fill="#40bad5" r="5"/><g fill="#5864ff"><circle cx="5" cy="65" r="5"/><circle cx="35" cy="65" r="5"/><circle cx="65" cy="65" r="5"/><circle cx="95" cy="65" r="5"/><circle cx="125" cy="65" r="5"/><circle cx="155" cy="65" r="5"/><circle cx="185" cy="65" r="5"/><circle cx="215" cy="65" r="5"/><circle cx="5" cy="95" r="5"/><circle cx="35" cy="95" r="5"/><circle cx="65" cy="95" r="5"/><circle cx="95" cy="95" r="5"/><circle cx="125" cy="95" r="5"/><circle cx="155" cy="95" r="5"/><circle cx="185" cy="95" r="5"/><circle cx="215" cy="95" r="5"/><circle cx="5" cy="125" r="5"/><circle cx="35" cy="125" r="5"/><circle cx="65" cy="125" r="5"/><circle cx="95" cy="125" r="5"/><circle cx="125" cy="125" r="5"/><circle cx="155" cy="125" r="5"/><circle cx="185" cy="125" r="5"/><circle cx="215" cy="125" r="5"/><circle cx="5" cy="155" r="5"/><circle cx="35" cy="155" r="5"/><circle cx="65" cy="155" r="5"/><circle cx="95" cy="155" r="5"/><circle cx="125" cy="155" r="5"/><circle cx="155" cy="155" r="5"/><circle cx="185" cy="155" r="5"/><circle cx="215" cy="155" r="5"/></g></svg>