<svg height="256" viewBox="0 0 1170 256" width="1170" xmlns="http://www.w3.org/2000/svg" xmlns:xlink="http://www.w3.org/1999/xlink"><linearGradient id="a" gradientUnits="objectBoundingBox" x1=".506" x2=".5" y1="1.061"><stop offset="0" stop-color="#6b75fb"/><stop offset="1" stop-color="#5864ff"/></linearGradient><clipPath id="b"><rect height="256" rx="29" transform="translate(0 .493)" width="1170"/></clipPath><rect fill="#5864ff" height="256" rx="29" width="1170"/><g clip-path="url(#b)" transform="translate(0 -.493)"><path d="m0 181.607 9.75 14.277c9.75 14.277 29.25 42.831 48.75 23.825 19.5-19.363 39-85.394 58.5-99.939 19.5-14.009 39 23.468 58.5 38.013 19.5 14.009 39 5.086 58.5 0 19.5-4.729 39-4.729 58.5-14.277 19.5-9.191 39-28.822 58.5-4.729s39 90.123 58.5 123.763c19.5 33.283 39 33.283 58.5 4.729s39-85.662 58.5-114.216 39-28.554 58.5-38.1c19.5-9.191 39-28.822 58.5-4.729s39 90.124 58.5 123.764c19.5 33.283 39 33.283 58.5 4.729s39-85.662 58.5-104.668c19.5-19.363 39 .268 58.5 28.554 19.5 28.822 39 66.3 58.5 95.121 19.5 28.286 39 47.917 58.5 14.277 19.5-33.283 39-118.945 58.5-128.493 19.5-9.191 39 56.84 58.5 57.108 19.5-.268 39-66.3 48.75-99.939l9.75-33.286v-28.554h-1170z" fill="url(#a)" transform="translate(0 -74.675)"/></g></svg>