<svg id="Layer_1" data-name="Layer 1" xmlns="http://www.w3.org/2000/svg" viewBox="0 0 344.59 386.91"><defs><style>.cls-1{fill:#efeff8;}.cls-1,.cls-3{fill-rule:evenodd;}.cls-2,.cls-3{fill:#426db4;}</style></defs><path class="cls-1" d="M331.3,248.18V125.93a44.83,44.83,0,0,0-22.13-38.66L196,20.75a52.63,52.63,0,0,0-54.28.58L41.19,83.3a57.93,57.93,0,0,0-27.53,49.31V257.78a56.11,56.11,0,0,0,27.79,48.44l104.72,61.21a45.59,45.59,0,0,0,45.2.47l115.94-64.58a46.71,46.71,0,0,0,24-40.8V248.18Z"/><path class="cls-2" d="M92.92,298.09V90.87h43.35v75.48h71.92V90.87h43.48V298.09H208.19V207.48H136.27v90.61Z"/><path class="cls-3" d="M169.44,0h3.85l.25,0h0l.24,0h0l.24,0h0l.25,0h0l.24,0h0l.25,0h0l.25,0h0l.25,0h0l.24,0h0l.24,0h0l.25,0h0l.25,0h0l.25,0h0l.24,0h0l.24,0h0l.25,0h0l.25,0h0l.24,0h0l.25,0h0l.24,0h0l.25,0h0l.24,0h0l.25,0h0l.24,0h0l.24,0h0l.25,0h0l.24,0h0l.24,0h0l.24,0h0l.24,0h0l.24.05h0l.25.05h0l.24,0h0l.24.05h0l.25.05h0l.25.05h0l.24.06h0l.24.06h0l.25.06h0l.24.05h0l.24,0h0l.24.06h0l.24.06h0l.24.06h0l.25.06h0l.24.06h0L186,2h0l.24.07h0l.25.06h0l.24.06h0l.24.07h0l.24.07h0l.24.07h0l.24.07h0l.24.07h0l.24.07h0l.24.07h0l.24.08h0l.24.08h0l.24.08h0l.24.08h0l.24.08h0l.24.08h0l.24.08h0l.24.08h0l.24.08h0l.23.08h0l.23.08h0l.23.09h0l.24.09h0l.23.09h0l.24.08h0l.24.09h0l.24.09h0l.23.09h0l.23.1h0l.24.09h0l.23.1h0l.24.1h0l.24.1h0l.24.1h0l.23.1h0l.23.1h0l.24.1h0l.23.1h0l.23.1h0l.23.1h0l.23.11h0l.23.11h0l.23.11h0l.23.11h0l.23.11h0l.23.11h0l.23.11h0l.23.11h0l.23.12,0,0,.23.11h0l.22.12h0l.23.11h0l.23.12h0l.22.12,0,0,.23.12h0l.23.12h0l.22.12,0,0,.23.12,0,0,.22.13,0,0,.22.13h0l.22.13h0l.22.13,0,0,.22.13,0,0,.21.13h0L315.9,75.48l.19.11,0,0,.19.11h0l.18.12,0,0,.18.11,0,0,.18.11h0l.18.11h0l.18.11h0l.18.11h0l.18.12h0l.18.12h0l.18.11h0l.18.12,0,0,.18.12,0,0,.17.11h0l.18.12h0l.18.12h0l.17.12h0l.17.12h0l.17.12,0,0,.17.12h0l.17.13,0,0,.17.12h0l.17.12h0l.17.12,0,0,.17.12h0l.17.12,0,0,.17.12,0,0,.17.13,0,0,.16.13,0,0,.17.13h0l.17.13,0,0,.17.13,0,0,.16.13,0,0,.17.14,0,0,.32.26,0,0,.32.27,0,0,.33.27,0,0,.33.27,0,0,.32.27,0,0,.32.27,0,0,.31.28,0,0,.31.28,0,0,.31.29,0,0,.3.28,0,0,.31.29,0,0,.3.29,0,0,.3.29,0,0,.29.29,0,0,.29.3,0,0,.29.3,0,0,.29.3,0,0,.28.3,0,0,.28.3,0,0,.28.3,0,0,.28.31,0,0,.27.32,0,0,.28.31,0,0,.27.32,0,0,.27.32,0,0,.27.32,0,0,.26.32,0,0,.26.32,0,0,.26.33,0,0,.25.33,0,0,.25.33,0,0,.25.33,0,0,.25.34,0,0,.25.33,0,0,.24.34,0,0,.24.34,0,0,.24.34,0,0,.23.34,0,0,.23.35,0,0,.22.34,0,0,.22.34,0,0,.23.35,0,0,.22.35,0,0,.21.35,0,0,.22.35,0,0,.21.35,0,0,.21.36,0,0,.2.36,0,0,.2.36,0,0,.2.36,0,0,.2.36,0,0,.2.37,0,0,.19.37,0,0,.19.37,0,0,.18.38,0,0,.19.37,0,0,.18.37,0,0,.17.38,0,0,.17.38,0,0,.17.38,0,0,.17.38,0,0,.16.38,0,0,.16.38,0,0,.15.39,0,0,.15.38,0,.05.15.39,0,0,.15.39,0,0,.15.39,0,0,.14.39,0,0,.13.39,0,0,.13.39,0,.05.13.39,0,.05.13.4v0l.12.39,0,.05.12.4v0l.12.4,0,0,.12.4,0,0,.11.4,0,0,.11.4v.05l.1.4,0,.06.11.41v.05l.1.41,0,0,.09.41,0,0,.1.41v.06l.09.41v0l.09.41v0l.08.41v0l.08.41v0l.08.41v.05l.07.42v0l.07.41v.06l.07.42v.06l.06.42V117l.06.41v0l0,.22v0l0,.21v0l0,.21v0l0,.21v0l0,.21v0l0,.21v0l0,.21v0l0,.21v0l0,.21v0l0,.21v0l0,.21v0l0,.21v0l0,.21v0l0,.21v0l0,.21v0l0,.21v.52l0,.22V266.28l0,.23v0l0,.23v0l0,.22v.28l0,.22v0l0,.22v0l0,.22v0l0,.22v0l0,.23v0l0,.22v0l0,.22v0l0,.22v0l0,.22v0l0,.22v0l0,.22v0l0,.23v0l0,.22v0l0,.22v0l0,.22v0l0,.22v0l0,.22v0l0,.22v0l0,.22v0l0,.22v0l0,.22v0l0,.22v0l0,.22v0l0,.22v0l0,.22v0l0,.21v0l0,.21v0l0,.22v0l-.05.22v0l-.05.22v0l0,.21v0l-.05.22v0l0,.22v0l-.05.21v0l-.05.21v0l0,.21v0l0,.21v0l-.05.21v0l-.05.21v0l-.05.21v0l-.06.21v0l-.05.21v0l-.06.21v0l-.06.22v0l-.06.21v0l-.06.21v0l-.06.21v0l-.06.22v0l-.06.21v0l-.06.21v0l-.07.21v0l-.06.21v0l-.06.21v0l-.06.21v0l-.07.21v0l-.07.21v0l-.07.21v0l-.07.21v0l-.07.21v0l-.07.21v0l-.07.21v0l-.07.21v0l-.07.21v0l-.07.21v0l-.08.2v0l-.07.2v0l-.07.2v0l-.07.21v0l-.08.21v0l-.08.2v0l-.08.2v0l-.08.2v0l-.08.2v0l-.08.2v0l-.08.2v0l-.09.2v0l-.09.21v0l-.08.2v0l-.09.2v0l-.09.2v0l-.09.2v0l-.09.2v0l-.09.2v0l-.09.2v0l-.09.2v0l-.09.2v0l-.1.2v0l-.1.19v0l-.09.2v0l-.1.19v0l-.09.2v0l-.1.2v0l-.1.2v0l-.1.19v0l-.1.2v0l-.1.2v0l-.1.2,0,0-.1.19v0l-.1.2v0l-.1.2v0l-.11.19,0,0-.11.19v0l-.11.19v0l-.11.19v0l-.11.19v0l-.11.19v0l-.11.19v0l-.11.19v0l-.11.19,0,0-.11.19,0,0-.11.19v0l-.11.19v0l-.12.19v0l-.11.18v0l-.11.18,0,0-.12.19v0l-.12.18,0,0-.12.18v0l-.12.19,0,0-.12.18,0,0-.12.18v0l-.12.19v0l-.12.18,0,0-.13.18v0l-.12.18v0l-.13.18v0l-.12.18,0,0-.12.18,0,0-.13.18,0,0-.12.18v0l-.13.18,0,0-.12.18,0,0-.13.18,0,0L333,298l0,0-.13.18,0,0-.13.18v0l-.13.17,0,0-.13.17v0l-.14.17,0,0-.13.17v0l-.13.18,0,0-.14.18,0,0-.14.17,0,0-.14.17v0l-.14.17,0,0-.14.17,0,0-.14.17,0,0-.14.17,0,0-.14.17v0l-.14.17,0,0-.15.17,0,0-.14.17,0,0-.14.17,0,0-.14.17,0,0-.14.17,0,0-.14.16,0,0-.15.17,0,0-.14.17,0,0-.15.17,0,0-.14.17,0,0-.15.16,0,0-.15.16,0,0-.15.16,0,0-.15.16,0,0-.15.16,0,0-.15.16,0,0-.15.16,0,0-.15.16,0,0-.16.16,0,0-.15.16,0,0-.15.15,0,0-.16.16,0,0-.16.16,0,0-.16.15,0,0-.16.16,0,0-.16.15,0,0-.16.15,0,0-.16.15,0,0-.16.15,0,0-.16.15,0,0-.16.15,0,0-.17.15h0l-.16.15,0,0-.17.15,0,0-.17.15h0l-.17.15,0,0-.17.14,0,0-.17.14,0,0-.17.15,0,0-.17.15,0,0-.17.15,0,0-.17.14,0,0-.18.14h0l-.17.14,0,0-.17.14,0,0-.17.14,0,0-.17.14,0,0-.17.14,0,0-.18.14,0,0-.17.13,0,0-.18.14,0,0-.18.14,0,0-.18.14,0,0-.18.14h0l-.18.13h0l-.18.13h0l-.18.13h0l-.18.13,0,0-.18.13,0,0-.18.13,0,0-.18.13,0,0-.18.13h0l-.19.13h0l-.19.13,0,0-.19.13,0,0-.19.12,0,0-.19.13,0,0-.18.13,0,0-.19.12h0l-.19.12h0l-.19.12,0,0-.19.12,0,0-.19.12h0l-.19.12h0l-.19.12,0,0-.19.12h0l-.19.12,0,0-.19.12,0,0-.2.12,0,0-.19.11h0l-.19.11,0,0-.2.12,0,0-.2.11,0,0-.19.11h0l-.2.11h0l-.2.11h0l-.19.11h0l-115.93,64.6h0l-.18.11h0l-.19.11,0,0-.19.1h0l-.19.1h0l-.19.1h0l-.19.1h0l-.19.1h0l-.19.1h0l-.19.1h0l-.19.09h0l-.2.1,0,0-.19.1h0l-.19.09h0l-.19.09h0l-.19.1h0l-.2.09h0l-.19.09h0l-.2.09h0l-.19.09h0l-.19.09,0,0-.2.09h0l-.2.08h0l-.2.09,0,0-.2.09h0l-.19.08h0l-.2.09h0l-.2.08h0l-.2.08h0l-.2.08h0l-.2.08h0l-.2.08h0l-.19.08h0l-.2.07h0l-.2.08h0l-.2.08h0l-.2.08h0l-.2.07h0l-.2.08h0l-.2.07h0l-.2.07h0l-.2.07h0l-.2.07h0l-.2.07h0l-.2.07-.2.07h0l-.21.06h0l-.2.06h0l-.2.07h0l-.21.06h0l-.2.06h0l-.2.06h0l-.21.07h0l-.4.12,0,0-.41.12h-.05l-.41.12h-.05l-.41.11,0,0-.41.11H184l-.41.11h-.06l-.41.1h-.05l-.41.1h-.06l-.41.1h-.05l-.41.09h0l-.42.09h-.06l-.42.09h-.05l-.42.08h-.05l-.41.07h0l-.41.08h0l-.42.07h0l-.42.07h0l-.42.06h0l-.42.06h0l-.42.06h0l-.42.06h-.06l-.42.05H176l-.42.05h-.05l-.42.05-.42,0h0l-.42,0h0l-.42,0h0l-.42,0h0l-.42,0h-.06l-.42,0h-.05l-.42,0h-.05l-.42,0H167.2l-.42,0h-.05l-.42,0h-.05l-.42,0h-.05l-.42,0h-.05l-.42,0h-.05l-.42,0h-.06l-.42,0h-.06l-.42,0h-.05l-.42,0H163l-.42,0h-.05l-.42-.05H162l-.42-.05h-.06l-.42-.06h0l-.42-.06h0l-.42-.06h0l-.42-.06h-.05l-.41-.07h0l-.42-.08h-.05l-.41-.08h0l-.41-.08h-.05l-.41-.08h-.06l-.42-.08h0l-.41-.09-.06,0-.41-.09h-.05l-.41-.1-.06,0-.41-.1-.05,0-.41-.11h0l-.41-.11,0,0-.41-.11-.05,0-.41-.11-.05,0-.41-.12-.06,0-.41-.12,0,0-.41-.12-.05,0-.41-.12h-.05l-.39-.13h0l-.21-.07h0l-.2-.06h0l-.2-.07h0l-.2-.07h0l-.2-.07h0l-.2-.07h0l-.2-.07h0l-.2-.07h0l-.2-.07h0l-.2-.08h0l-.2-.08h0l-.2-.08h0l-.2-.08h0l-.2-.08h0l-.2-.08h0l-.2-.08h0l-.2-.08h0l-.2-.08h0l-.2-.08h0l-.2-.08h0l-.2-.08h0l-.2-.08h0l-.2-.09h0l-.19-.09h0l-.2-.09h0l-.2-.09h0l-.2-.08h0l-.19-.09h0l-.2-.09h0l-.19-.09,0,0-.19-.09h0l-.19-.09h0l-.2-.09,0,0-.2-.1,0,0-.19-.09h0l-.2-.09,0,0-.19-.1h0l-.2-.1h0l-.19-.1h0l-.19-.1h0l-.19-.1,0,0-.19-.1h0l-.19-.1h0l-.19-.1,0,0-.19-.1h0l-.19-.11,0,0-.19-.1h0l-.19-.1h0l-.19-.1h0l-.19-.11h0l-.18-.11h0l-.18-.11h0L34.59,317.63h0l-.22-.13h0l-.22-.13h0l-.23-.13h0l-.22-.14h0l-.22-.14,0,0-.22-.14,0,0-.22-.14h0l-.22-.13,0,0-.22-.14,0,0-.22-.14h.05L32,316l0,0-.22-.14,0,0-.22-.14,0,0-.22-.15,0,0-.22-.15,0,0-.22-.14,0,0-.22-.15,0,0-.22-.15,0,0-.21-.15,0,0-.21-.15,0,0-.21-.15,0,0-.21-.15,0,0L29.1,314h0l-.21-.15,0,0-.21-.15,0,0-.21-.15h0l-.21-.15,0,0-.21-.16,0,0-.21-.15,0,0-.21-.16,0,0-.2-.16,0,0-.2-.16h0l-.2-.16,0,0-.2-.16,0,0-.2-.16,0,0-.2-.16,0,0-.2-.16,0,0-.2-.16,0,0-.2-.17h0l-.2-.16,0,0-.19-.16,0,0-.2-.17,0,0-.2-.16,0,0-.2-.17h0l-.2-.16,0,0-.19-.16,0,0-.19-.17,0,0-.19-.17,0,0-.19-.17,0,0-.19-.17,0,0-.19-.17,0,0-.19-.18h0l-.19-.17,0,0-.19-.18,0,0-.19-.17,0,0-.18-.18,0,0-.18-.18,0,0-.18-.18,0,0-.19-.18,0,0-.19-.18h0l-.18-.18,0,0-.18-.18,0,0-.18-.18,0,0-.18-.18,0,0-.18-.18,0,0-.18-.18,0,0-.17-.18,0,0-.18-.18,0,0-.18-.19,0,0-.17-.19,0,0-.17-.19,0,0-.18-.19,0,0-.17-.19,0,0-.17-.19,0,0-.17-.19,0,0-.17-.19,0,0-.17-.19v0l-.16-.19,0,0-.17-.19,0,0-.18-.2,0,0-.17-.19,0,0-.17-.2,0,0-.16-.19v0l-.16-.19,0,0-.16-.2,0,0-.17-.2,0,0-.16-.19,0,0-.17-.19,0,0-.16-.19,0,0-.16-.2,0,0-.16-.2,0,0-.16-.2,0,0-.16-.2,0,0-.16-.2v0l-.15-.2,0,0-.15-.2v0l-.15-.2,0,0-.15-.21,0,0-.15-.2,0,0-.15-.2v0l-.15-.21v0l-.15-.21v0l-.15-.2v0l-.15-.2,0,0-.15-.21,0,0-.15-.21,0,0-.14-.21,0,0-.14-.21,0,0-.14-.21,0,0-.14-.21v0l-.14-.21,0,0-.14-.21,0,0-.14-.21,0,0-.14-.21,0,0-.14-.21,0,0-.13-.21v0l-.13-.21,0,0-.14-.21,0,0-.14-.21v0l-.14-.22v0l-.13-.21,0,0-.13-.21,0,0-.13-.22,0,0-.13-.21v0l-.13-.22v0l-.13-.21,0,0-.13-.22,0,0-.13-.22,0,0-.12-.22,0,0L9,291.68v0l-.12-.22v0l-.12-.22v0L8.6,291l0,0-.12-.22v0l-.12-.23v0l-.12-.22v0L8.07,290v0l-.12-.22v0l-.11-.23v0l-.12-.23v0l-.12-.23,0,0-.11-.23v0l-.11-.22v0l-.11-.23h0L7.08,288l0,0L7,287.7v0l-.11-.22v0l-.11-.23v0l-.11-.23v0l-.1-.23v0l-.11-.23v0l-.11-.23v0l-.11-.23v0l-.1-.23v0l-.11-.23v0l-.11-.23v0l-.1-.23v0l-.1-.23v0l-.1-.23v0l-.09-.23v0l-.1-.23v0l-.09-.24v0l-.1-.23v0l-.09-.22v0l-.1-.24v0l-.09-.24v0l-.09-.24v0l-.09-.24v0l-.09-.24v0l-.09-.24v0l-.08-.24v0L4.12,281v0L4,280.76v0l-.08-.24v0l-.09-.24v0L3.75,280v0l-.08-.24v0l-.08-.24v0l-.08-.24v0l-.08-.24v0l-.08-.24v0l-.08-.24v0l-.07-.24v0L3,277.81v0L3,277.53v0l-.07-.24v0L2.8,277v0l-.07-.25v0l-.07-.25v0l-.07-.25h0l-.07-.25v0l-.06-.24v0l-.06-.24v0l-.07-.25v0l-.06-.24v0l-.06-.24v0l-.06-.25h0L2,274v0L2,273.77v0l-.06-.25v0l-.06-.25h0L1.76,273v0l-.06-.25v0l-.05-.25v0l-.06-.25v0l-.05-.25v0l-.05-.25v0l-.05-.25,0-.25v0l-.05-.26v0l-.05-.25v0l-.06-.24v0l0-.27v0l-.05-.26v0l0-.25v0l0-.25v0l0-.25v0l0-.25v0l0-.25h0l0-.25v0l0-.25v0l0-.25v0l0-.25v0l0-.26v0l0-.25v0l0-.26v0l0-.25v0l0-.26v0l0-.26v0l0-.26v0l0-.26v0l0-.26v0l0-.26,0-.26v0l0-.26v0l0-.26v0l0-.26v0l0-.26v0l0-.26v0l0-.26,0-.26v0l0-.26v0l0-.26V129.11l0-.27v0l0-.26v-.31l0-.26v-.61l0-.26v0l0-.26v0l0-.26v0l0-.26v0l0-.26v0l0-.26v0l0-.26v0l0-.26v0l0-.26v0l0-.26v0l0-.26v0l0-.26v0l0-.25v0l0-.26v0l0-.26v0l0-.25v0l0-.26v0l0-.26v0l0-.25v0l0-.26v0l0-.26v0l0-.26v0l0-.25v0l0-.25v0l.07-.26v0l0-.25v0l0-.25v0l.05-.25v0l.05-.26v0l.05-.25v0l0-.25v0l.05-.25v0l.05-.25v0l.05-.25v0l.05-.25v0l0-.25v0l.06-.25v0l.06-.25v0l.05-.25v0l.06-.25v0l.06-.25v0l.06-.25v0l.06-.25v0l.06-.25v0l.06-.25v0l.07-.25v0l.07-.25v0l.07-.25v0l.07-.25v0l.07-.25v0l.07-.24v0l.07-.25v0l.07-.25v0l.07-.25v0L3,112v0l.07-.24v0l.07-.24v0l.07-.25v0l.08-.24v0l.08-.24v0l.08-.24v0l.08-.24v0l.08-.24v0l.08-.24v0l.08-.24v0l.08-.24v0l.09-.24v0l.08-.24v0l.08-.24v0l.09-.24v0l.09-.24v0l.09-.24v0l.09-.24v0l.09-.24v0l.09-.24v0l.1-.23v0l.1-.24v0l.1-.24v0l.1-.24v0l.1-.24v0l.1-.24v0l.1-.24v0l.1-.24v0l.1-.23v0l.1-.23v0l.1-.24v0l.11-.24v0l.11-.23v0l.1-.23v0l.11-.23v0l.11-.23v0l.11-.23v0l.11-.23v0l.11-.23v0l.11-.23v0l.11-.23v0l.11-.23v0l.11-.23v0l.11-.23v0l.12-.22v0l.12-.23,0,0L8,99.78v0l.12-.23v0l.12-.22v0L8.38,99v0l.12-.22v0l.12-.22,0,0,.12-.22v0l.12-.22,0,0,.12-.22v0l.12-.22,0,0,.13-.22v0l.12-.22v0l.13-.22v0l.13-.22v0l.13-.22,0,0,.13-.22v0l.13-.22,0,0,.13-.22v0l.13-.22,0,0,.13-.22v0l.14-.22,0,0,.14-.22v0l.13-.21,0,0,.14-.21,0,0,.13-.22v0l.14-.21v0l.14-.21,0,0,.14-.22,0,0,.14-.21v0l.14-.21v0l.14-.21v0l.15-.21,0,0,.14-.21,0,0,.15-.21v0l.15-.21v0l.15-.21v0l.15-.21,0,0,.15-.21v0l.15-.21,0,0,.15-.2v0l.15-.21,0,0,.15-.2,0,0,.15-.2,0,0,.15-.2,0,0,.15-.2v0l.15-.2,0,0,.16-.2,0,0,.16-.2,0,0,.16-.2,0,0,.16-.2,0,0,.16-.2,0,0,.16-.2v0l.16-.2,0,0,.16-.2,0,0,.16-.19,0,0,.16-.2,0,0,.16-.2,0,0,.17-.19,0,0,.16-.2,0,0,.16-.19,0,0,.16-.2,0,0,.17-.2v0l.17-.19,0,0,.17-.19,0,0,.17-.19,0,0,.17-.19v0l.17-.19,0,0,.17-.19,0,0,.17-.19v0l.17-.19,0,0,.18-.19v0l.18-.19,0,0,.19-.18,0,0,.18-.19,0,0,.18-.19,0,0,.18-.18,0,0,.18-.18,0,0,.18-.18,0,0,.19-.18,0,0,.18-.18,0,0,.18-.18,0,0,.18-.18,0,0,.18-.18,0,0,.18-.18,0,0,.18-.18,0,0,.18-.18,0,0,.19-.17,0,0,.19-.17,0,0,.19-.18,0,0,.19-.18h0l.19-.17h0l.19-.17,0,0,.19-.17,0,0,.19-.17,0,0,.19-.17h0l.2-.17,0,0,.2-.17,0,0,.2-.17,0,0,.2-.16,0,0,.2-.16,0,0,.19-.16,0,0,.2-.16,0,0,.2-.16h0l.2-.16,0,0,.2-.16,0,0,.2-.16,0,0,.21-.16,0,0,.2-.16,0,0,.21-.16,0,0,.21-.16,0,0,.2-.16h0L28,76l0,0,.2-.16,0,0,.21-.15,0,0,.21-.16,0,0,.21-.15h0l.21-.15,0,0,.21-.15h0l.21-.15,0,0,.21-.16h0l.22-.15,0,0,.21-.15h0l.21-.15h0l.21-.15h0l.22-.15,0,0,.21-.15h0l.22-.14h0l.21-.15,0,0,.22-.14,0,0,.22-.15,0,0,.22-.14h0l.22-.14,0,0,.22-.14h0l.22-.14h0l.22-.14h0l.22-.14h0l.22-.13h0L134.44,10h0l.21-.13h0l.22-.14,0,0,.22-.13,0,0,.22-.13,0,0,.22-.13h0l.23-.13,0,0,.22-.13h0l.22-.13h0l.23-.12,0,0,.23-.12,0,0,.22-.12h0l.23-.12,0,0,.22-.12,0,0,.22-.12,0,0,.22-.12,0,0,.23-.12h0l.22-.12h0l.22-.12h0l.23-.12h0l.23-.12h0l.23-.11h0l.23-.11h0l.22-.11h0l.23-.11h0l.23-.11h0l.23-.11,0,0,.23-.11h0l.23-.11h0l.23-.1h0L142,6l0,0,.23-.1h0l.23-.1,0,0,.23-.1h0l.23-.1h0l.23-.1h0l.23-.1h0l.23-.1h0l.23-.09h0l.23-.1h0l.24-.1h0l.24-.1,0,0,.23-.09h0l.24-.09h0l.23-.09h0l.24-.09h0l.24-.08h0l.24-.09h0l.24-.09h0L147,4h0l.24-.08h0l.23-.08h0l.24-.08h0L148,3.6h0l.24-.08h0l.24-.08h0l.24-.08h0l.24-.08h0l.24-.07h0l.24-.07h0l.24-.07h0l.24-.07h0l.24-.07h0l.24-.07h0l.24-.07h0l.24-.07h0l.24-.07h0l.24-.06h0l.24-.06h0l.24-.07h0l.25-.06h0l.24-.07h0l.25-.06h0l.25-.06h0l.24-.06h0l.25-.06h0l.24-.06h0l.24-.05h0l.24-.06h0l.24-.05h0l.24,0h0l.24-.05h0l.24-.05h0l.25-.05h0l.25-.05h0l.25,0h0l.25-.05h0l.25,0h0l.24,0h0l.25,0h0l.25,0h0l.24,0h0l.25,0h0l.24,0h0l.24,0h0l.25,0h0l.25,0h0l.25,0h0l.25,0h0l.25,0h0l.24,0h0l.25,0h0l.25,0h0l.25,0h0l.24,0h0l.24,0h0l.25,0h0l.25,0h0l.24,0h0l.25,0h0l.25,0h0l.25,0h0l.25,0h0l.25,0h.31l.25,0h.3l.25,0h3.92Zm-.23,27h-2.65l-.17,0-.17,0-.16,0-.17,0-.17,0-.17,0-.16,0-.17,0-.16,0-.16,0-.17,0-.16,0-.16,0-.16,0-.16,0-.17,0-.16,0-.16,0-.17,0-.16,0-.16,0-.16,0-.16,0-.16,0-.16,0-.16,0-.17,0-.16,0-.17,0-.16,0-.16,0-.16,0-.16,0L161,28l-.16,0-.16,0-.16,0-.16,0-.16,0-.16,0-.16,0-.16,0-.16,0-.16,0-.16,0-.16,0-.16,0-.16.05-.16,0-.16.05-.15.05-.16.05-.16.05-.16,0-.16.05-.16.05-.15.05-.16.05-.16.06-.16.05-.16.05-.16.06-.16.05-.16,0-.15.05-.16.06-.16.06-.16.06-.15.06-.16.06-.15.06-.15.06-.16.07-.16.06-.16.06-.16.06-.15.07-.15.06-.16.07-.15.07-.15.07-.15.07-.16.07-.15.07-.16.07-.15.07-.15.07-.15.07-.16.07-.15.07-.15.07-.15.08-.15.08-.15.07-.15.08-.15.07-.15.08-.15.08-.15.08-.15.09-.15.08-.15.09-.14.08-.15.08-.14.08-.15.09-.15.09-.15.09-.14.08-.15.09-.14.09-.15.09-.15.09-.16.1L48.24,94.9l-.17.11-.16.1-.15.1-.15.1-.15.1-.15.1-.15.1-.15.1-.15.1-.15.1-.15.1-.15.09-.15.11-.14.1-.14.1-.15.1-.14.1-.14.1-.14.1-.14.1-.14.1-.14.1-.14.11-.14.1-.14.11-.14.11-.14.11-.14.11-.14.11-.14.11-.13.11-.14.11-.14.11-.13.11-.14.11-.14.11-.13.11-.14.11-.13.11-.13.11-.13.12-.13.12-.13.12-.13.11-.13.12-.13.12-.13.12-.13.12-.13.12-.13.12-.13.12-.13.12-.13.12-.13.12-.13.12-.12.12-.13.12-.12.13-.13.12-.12.13-.12.12-.12.13-.12.12-.12.13-.12.13-.13.13-.12.12-.12.13-.12.13-.12.13-.11.13-.12.13-.12.13-.12.13-.12.14-.12.13-.11.13-.11.13-.12.14-.11.12-.12.13-.11.14-.11.13-.11.14-.11.14-.11.14-.11.14-.11.14-.11.14-.1.14-.11.14-.11.14-.11.14L36,106l-.1.14-.1.14-.1.14-.1.15-.1.14-.1.14-.1.15-.1.14-.1.14-.1.14-.1.14-.09.15-.1.15-.1.14-.1.15-.09.15-.09.14-.09.15-.09.15-.09.15-.09.15-.1.15-.1.15-.09.16-.09.15-.09.15-.09.15-.09.15-.09.15-.09.15-.09.15-.09.15-.09.15-.09.16-.09.15-.09.15-.09.16-.08.15-.08.16-.08.16-.08.16-.08.15-.08.15-.08.16-.08.15-.08.16-.07.15-.08.16-.08.16-.08.16-.08.16-.08.16-.07.16-.07.16-.07.16-.07.16-.07.16-.07.16-.07.16-.07.16-.07.16-.06.16-.07.16-.07.17-.07.16-.07.16-.07.16-.06.16-.07.17-.07.16-.06.16-.06.17-.06.16-.06.17-.06.16-.06.17-.06.17-.06.17-.05.17-.06.16-.06.17,0,.17-.05.16-.05.17-.06.17-.05.16-.05.16-.05.17-.06.17-.05.17-.05.16-.05.17,0,.17-.05.17-.05.17-.05.17,0,.17,0,.17-.05.17,0,.17-.05.17,0,.17,0,.17,0,.18,0,.17,0,.17,0,.17,0,.17,0,.17,0,.17,0,.17,0,.17,0,.17,0,.18,0,.18,0,.18,0,.18,0,.17,0,.17,0,.18,0,.18,0,.17,0,.17,0,.17,0,.18,0,.18,0,.18,0,.17,0,.17,0,.17,0,.18,0,.18,0,.18,0,.18,0,.18,0,.18,0,.17,0,.18,0,.18v.18l0,.18,0,.18V260.93l0,.18v.54l0,.17,0,.18,0,.17v.18l0,.17,0,.17,0,.17,0,.17,0,.18,0,.17,0,.17,0,.18,0,.18,0,.17,0,.18,0,.17,0,.17,0,.17,0,.17,0,.18,0,.17,0,.17,0,.17,0,.17,0,.17,0,.17,0,.17,0,.17,0,.17,0,.18,0,.17,0,.17,0,.17,0,.17,0,.17,0,.17,0,.17,0,.17,0,.16.05.16,0,.17,0,.17,0,.17.05.17,0,.16,0,.17,0,.16.05.17,0,.16.05.17.05.17.05.16,0,.17.05.17.05.16.05.17.06.16.06.16.06.16.06.16.05.16.06.17.06.16.06.16.06.16.06.16.06.16.06.16.06.16.06.16.06.16.07.16.07.16.06.16.06.16.06.16.06.16.06.16.07.16.07.16.07.16.07.16.07.16.07.16.07.16.07.16.07.16.07.16.07.16.07.15.08.16.08.15.08.16.08.15.08.15.08.15.08.15.08.15.08.15.09.15.08.15.08.15.08.15.09.15.09.15.08.15.08.15.08.15.09.15.08.15.09.14.09.15.09.14.09.15.09.15.09.14.09.14.09.14.09.14.09.15.09.15.1.14.09.14.09.15.09.14.09.14.1.14.1.14.1.15.1.14.1.14.1.14.1.14.1.14.1.14.1.14.11.14.11.14.1.14.1.14.1.14.1.14.11.13.11.13.11.14.11.13.11.14.11.13.11.13.11.13.11.13.11.13.11.13.11.13.11.13.11.13.11.13.11.13.12.13.12.13.11.13.12.12.12.13.12.12.12.13.11.13.12.13.12.12.12.12.12.12.12.12.12.13.12.12.12.12.12.12.12.12.12.12.13.12.12.12.12.12.13.12.12.12.12.12.13.12.13.11.13.11.13.12.13.12.13.11.13.11.13.12.13.12.13.11.14.11.14.11.14.11.13.11.13.11.14.11.13.11.14.1.13.11.14.11.14.11.14.11.13.1.14.11.14.1.14.11.14.11.14.1.14.1.15.1.14.1.14.1.14.1.14.1.14.1.14.1.15.1.15.09.15.1.14.1.15.1.15.1.14.09L47,294l.15.09.15.09.15.09.15.09.16.09.15.09.15.09.17.1L152.86,356l.13.08.11.06.12.06.12.06.12.06.11.07.12.06.12.06.12.06.12.07.12.06.12.06.12.06.12.06.12.06.12.06.12.06.12.06.11.06.12.06.12.06.12.05.12.06.12.05.12.05.12,0,.12.06.12.06.12.05.12.06.12.05.12.05.12,0,.12.05.12.05.12.05.12.05.12,0,.12.05.12,0,.13.05.12,0,.12.05.12.05.12.05.12,0,.12.05.12,0,.12,0,.13,0,.12,0,.11,0,.26.08.25.08.25.07.25.07.25.07.25.07.25.07.25.07.25.07.25.06.25.06.25.06.25.05.25.06.25,0,.25.05.25.05.25,0,.25,0,.25,0,.25,0,.26,0,.25,0,.26,0,.26,0,.26,0,.26,0,.25,0,.26,0,.25,0,.26,0,.26,0,.25,0h3.08l.26,0,.26,0h.26l.26,0,.26,0,.26,0,.25,0,.26,0,.26,0,.25,0,.26,0,.25,0,.26,0,.25,0,.26,0,.25,0,.25,0,.25,0,.26-.05.25-.05.25-.06.25,0,.25-.06.25-.06.25-.06.25-.06.25-.07.25-.07.25-.07.25-.07.26-.08.12,0,.12,0,.12,0,.13,0,.12,0,.13,0,.12,0,.12,0,.13,0,.12,0,.12,0,.13-.05.12,0,.13,0,.12-.05.12,0,.12,0,.12,0,.13-.05.12,0,.12-.05.12-.05.12-.05.12,0,.12-.05.12-.05.12-.05.12-.05.12,0,.12-.05.12-.06.12-.06.12-.05.12-.06.12-.06.12-.05.12-.06.12-.06.12-.06.11-.06.12-.06.12-.06.12-.06.12-.06.12-.06.12-.06.12-.06.12-.06.11-.06.12-.06.12-.06.13-.07,116-64.63.14-.07.13-.07.12-.07.12-.07.12-.07.12-.08.13-.07.12-.07.12-.07.12-.07.12-.08.12-.08.12-.07.12-.07.12-.07.12-.08.12-.08.12-.07.12-.08.12-.07.11-.08.11-.08.11-.08.11-.08.11-.08.12-.08.11-.08.12-.08.11-.08.11-.08.11-.08.11-.08.11-.08.12-.08.11-.09.11-.08.11-.09.11-.08.11-.09.11-.09.11-.09.11-.08.11-.08.11-.09.1-.09.11-.09.11-.09.1-.08.11-.09.11-.1.1-.09.11-.09.1-.09.1-.09.1-.1.11-.09.1-.1.1-.09.1-.1.1-.1.1-.09.1-.1.1-.09.1-.1.1-.1.1-.1.1-.1.09-.1.1-.1.09-.1.1-.1.1-.1.1-.1.09-.1.09-.1.09-.1.09-.1.1-.1.09-.1.09-.1.09-.1.09-.1.09-.1.09-.1.09-.1.09-.11.09-.11.09-.11.09-.1.09-.1.09-.1.09-.11.09-.1.09-.11.08-.1.08-.11.08-.11.08-.1.09-.11.08-.11.08-.11.08-.11.08-.11.08-.11.08-.11.08-.11.08-.11.08-.11.08-.11.08-.11.08-.11.07-.11.07-.12.08-.12.08-.11.07-.11.07-.11.08-.12.08-.11.07-.11.07-.12.07-.12.07-.12.07-.12.07-.11.07-.12.07-.12.07-.11.07-.12.07-.12.07-.12.06-.12.06-.12.07-.12.07-.12.06-.12.07-.12.07-.12.06-.12.06-.12.06-.13.06-.12.07-.12.07-.12.06-.12.06-.12.06-.12.06-.13.06-.12.06-.12.06-.13.06-.12.06-.12.06-.13.06-.13.06-.13L315,276l.05-.12.05-.13.05-.13.05-.13,0-.12.05-.13.05-.13.05-.13.05-.12,0-.13.05-.13.05-.13.05-.13.05-.13,0-.13,0-.13,0-.13,0-.13.05-.13.05-.13.05-.13,0-.13,0-.13.05-.13,0-.13,0-.13.05-.13,0-.13,0-.13,0-.13,0-.13,0-.13,0-.13,0-.13,0-.13,0-.13,0-.13,0-.14,0-.13,0-.13,0-.14,0-.13,0-.13,0-.13,0-.13,0-.14,0-.13,0-.13,0-.14,0-.14,0-.13,0-.14,0-.13,0-.14,0-.14,0-.13,0-.14,0-.14,0-.14,0-.13,0-.13,0-.14,0-.14,0-.14,0-.14,0-.14,0-.14,0-.14v-.14l0-.13v-.14l0-.14,0-.13,0-.14v-.56l0-.14V123.08l0-.13v-.24l0-.12v-.12l0-.13v-.12l0-.12,0-.13v-.25l0-.11,0-.26,0-.26,0-.26,0-.25-.05-.25-.05-.25,0-.25,0-.25-.06-.25-.06-.25-.06-.25-.06-.25-.06-.25-.06-.25-.06-.25-.07-.25-.07-.25-.07-.25-.08-.25-.07-.24-.08-.24-.08-.24-.08-.24-.08-.24-.09-.24-.09-.24-.09-.23-.09-.24-.09-.24-.09-.24-.1-.23-.09-.24-.1-.23-.1-.23L315,113l-.11-.23-.1-.23-.11-.23-.11-.23-.11-.22-.12-.23-.11-.23-.12-.23L314,111l-.12-.22-.12-.22-.12-.22-.12-.22-.13-.22-.13-.22-.13-.22-.14-.22-.13-.21-.13-.21-.14-.21-.14-.21-.14-.21-.14-.21-.14-.21-.14-.21-.15-.2-.15-.2-.15-.2-.15-.2-.15-.2-.16-.2-.16-.2-.16-.2-.16-.2-.16-.19-.17-.19-.16-.19-.17-.19-.17-.19-.17-.19-.17-.19-.17-.19-.18-.18-.18-.18-.18-.18-.18-.18-.18-.18-.19-.18-.19-.18-.19-.17-.19-.17-.19-.17-.19-.17-.19-.17-.2-.17-.2-.16-.2-.16-.19-.16-.21-.17-.09-.07-.1-.08-.1-.08-.1-.08-.1-.08-.1-.07-.1-.08-.1-.08-.11-.08-.11-.08-.1-.08-.1-.08-.1-.08-.1-.07-.1-.08-.11-.08-.1-.07-.1-.07-.11-.08-.11-.07-.11-.07-.1-.07-.11-.07-.11-.07-.11-.07-.11-.07-.11-.07L303,99.2l-.11-.07-.11-.07-.11-.07-.11-.06-.11-.06-.13-.07L189.2,32.41l-.16-.09-.14-.08-.15-.09-.15-.09-.15-.09-.15-.08-.15-.08-.15-.08-.15-.08-.15-.08-.14-.08-.15-.08-.15-.08-.15-.08-.15-.08-.15-.08-.15-.08-.16-.07-.15-.08-.15-.07-.15-.07-.15-.08-.15-.07-.15-.07-.15-.07-.16-.07-.15-.07-.15-.06-.15-.07-.15-.07-.15-.07-.16-.06-.15-.06-.16-.06-.15-.07-.16-.06-.16-.07-.16-.06-.16-.06-.15-.06L183,29.4l-.16-.06-.16-.06-.15-.06-.15,0-.15-.05-.16-.06-.16,0-.15-.05-.16-.05-.16-.05-.15-.05-.16,0-.16-.05-.16-.05-.15-.05-.16-.05-.16,0-.16-.05-.16,0-.16-.05-.16,0-.16,0-.16,0-.16,0-.16,0-.16-.05-.16,0-.16,0-.16,0-.16,0-.16,0-.16,0-.16,0-.16,0-.16,0-.16,0-.16,0-.16,0-.16,0-.16,0-.16,0-.16,0-.16,0-.17,0-.16,0-.16,0-.16,0-.16,0-.16,0-.16,0-.16,0-.17,0-.16,0-.16,0-.16,0-.16,0-.16,0-.16,0-.16,0-.17,0h-.16l-.16,0-.16,0h-3.55Z"/></svg>