<svg id="Layer_1" xmlns="http://www.w3.org/2000/svg" xmlns:xlink="http://www.w3.org/1999/xlink" viewBox="0 0 118 118" style="enable-background:new 0 0 118 118"><style>.st0{fill:#4f46e5}.st1{font-family:helveticaneue}.st2{font-size:28px}.st3{font-family:helveticaneue-thin}.st4{font-size:24px}</style><path class="st0" d="M104 15.8c-2.5 1.1-3.5-.1-4.7-.7-7.6-3.5-14.8-7.6-22.8-10.3-5-1.7-9.8-1.4-14.6.3-8.8 3.1-16.5 8.1-24.7 12.4-2.1 1.1-5.3 3.5-6.5 1.2s2.7-3.5 4.8-4.6c8-4.3 15.8-9.1 24.3-12.4C66.3-.7 72.6-.6 79 2c8.7 3.6 16.4 8.7 25 13.8z"/><path class="st0" d="M1.3 27.3c4.6-.4 9.3-.9 14-1 13.3-.2 26.7-.3 40-.3 1.5.0 3.8-.4 3.8 1.9.0 1.8-2 1.9-3.5 1.9C37.4 29.8 19.3 30.1 1.3 27.3z"/><text transform="matrix(1 0 0 1 22.9507 61.1348)" class="st1 st2">Acme</text><text transform="matrix(1 0 0 1 6.713867e-04 94.7348)" class="st3 st4">Corporation</text></svg>