<svg fill="none" height="28" viewBox="0 0 136 28" width="136" xmlns="http://www.w3.org/2000/svg"><g fill="#fff"><path d="m22.8452 10.7196-5.2134 5.0377-1.2887-1.2887c-.6444-.6444-1.6402-.6444-2.2845 0-.6444.6443-.6444 1.6402 0 2.2845l2.2845 2.2845c.3514.3515.8201.4687 1.2887.4687s.9958-.1758 1.4644-.4687l6.0335-5.8577c.6443-.6444.6443-1.6402 0-2.2845-.7029-.6444-1.6402-.8201-2.2845-.1758z"/><path d="m34.3849 8.78661c-1.6401-1.8159-3.9246-3.1046-6.3263-3.57322-1.2887-2.10879-3.3975-3.74896-5.682-4.569039-1.113-.468619-2.2846-.644351-3.5733-.644351-5.8577 0-10.7782 4.56904-11.07108 10.251-4.45189.6444-7.73222 4.3934-7.73222 8.7867 0 4.9205 4.10042 8.9623 8.96234 8.9623h16.92886c6.385 0 11.5983-5.2134 11.5983-11.5398 0-2.8117-1.1129-5.5648-3.1046-7.67359zm-8.6108 16.10879h-16.98749c-3.28033 0-5.68201-2.4603-5.68201-5.682 0-3.2218 2.63599-5.682 5.68201-5.682h1.93309v-2.2845c0-4.39334 3.5732-7.96657 7.9665-7.96657.9958 0 1.8159.17574 2.636.46862 1.8159.64435 3.3975 1.93306 4.3933 3.74896l.4686.82008.8201.17573c1.933.17574 3.9247 1.11297 5.2134 2.63598 1.4644 1.6402 2.2845 3.5732 2.2845 5.682-.2929 4.3347-4.0418 8.0837-8.728 8.0837z"/><path d="m57.0703 17.2422c0 1.6172-.6015 2.8555-1.8047 3.7148-1.1953.8516-2.9531 1.2774-5.2734 1.2774-2.1172 0-3.7774-.375-4.9805-1.125s-1.9765-1.8867-2.3203-3.4102l3.3398-.5508c.2266.875.668 1.5118 1.3243 1.9102.6562.3906 1.5664.5859 2.7304.5859 2.4141 0 3.6211-.7343 3.6211-2.2031 0-.4687-.1406-.8555-.4218-1.1602-.2735-.3046-.6641-.5585-1.1719-.7617-.5-.2031-1.4649-.4492-2.8945-.7383-1.2344-.289-2.0938-.5195-2.5782-.6914-.4844-.1796-.9218-.3867-1.3125-.621-.3906-.2422-.7226-.5313-.9961-.8672-.2734-.336-.4882-.7305-.6445-1.1836-.1484-.4532-.2227-.9727-.2227-1.55862 0-1.49219.5586-2.63282 1.6758-3.42188 1.125-.79688 2.7578-1.19531 4.8985-1.19531 2.0468 0 3.582.32031 4.6054.96093 1.0313.64063 1.6953 1.69922 1.9922 3.17579l-3.3515.45703c-.1719-.71094-.5235-1.2461-1.0547-1.60547-.5235-.35938-1.2774-.53906-2.2617-.53906-2.0938 0-3.1407.65625-3.1407 1.96875 0 .42964.1094.78124.3281 1.05464.2266.2735.5586.5079.9961.7032.4375.1875 1.3243.4258 2.6602.7148 1.5859.336 2.7187.6484 3.3984.9375.6875.2813 1.2305.6133 1.6289.9961.3985.375.7032.8281.9141 1.3594.2109.5234.3164 1.1289.3164 1.8164zm5.543 4.9922c-1.2266 0-2.1836-.3321-2.8711-.9961-.6875-.6719-1.0313-1.6133-1.0313-2.8242 0-1.3125.4258-2.3125 1.2774-3 .8594-.6875 2.1015-1.0391 3.7265-1.0547l2.7305-.0469v-.6445c0-.8282-.1445-1.4414-.4336-1.8399-.289-.4062-.7617-.6093-1.4179-.6093-.6094 0-1.0586.1406-1.3477.4218-.2813.2735-.457.7305-.5273 1.3711l-3.4336-.164c.2109-1.2344.7734-2.168 1.6875-2.8008.9218-.64065 2.1757-.96096 3.7617-.96096 1.6015 0 2.8359.39453 3.7031 1.18356.8672.7891 1.3008 1.9102 1.3008 3.3633v4.6172c0 .7109.0781 1.2031.2344 1.4766.164.2656.4335.3984.8085.3984.25 0 .4922-.0234.7266-.0703v1.7812c-.1953.0469-.3711.0899-.5273.1289-.1563.0391-.3125.0704-.4688.0938-.1562.0234-.3242.043-.5039.0586-.1719.0156-.375.0234-.6094.0234-.8281 0-1.4414-.2031-1.8398-.6094-.3906-.4062-.625-1.0039-.7031-1.7929h-.0703c-.9219 1.664-2.3125 2.4961-4.1719 2.4961zm3.832-6.1055-1.6875.0234c-.7656.0313-1.3086.1172-1.6289.2579-.3203.1328-.5664.3398-.7383.621-.164.2813-.2461.6563-.2461 1.125 0 .6016.1367 1.0508.4102 1.3477.2812.2891.6523.4336 1.1133.4336.5156 0 .9843-.1406 1.4062-.4219.4297-.2812.7656-.6679 1.0078-1.1601.2422-.5.3633-1.0274.3633-1.5821zm9.5274 6.1055c-1.2266 0-2.1836-.3321-2.8711-.9961-.6875-.6719-1.0313-1.6133-1.0313-2.8242 0-1.3125.4258-2.3125 1.2774-3 .8593-.6875 2.1015-1.0391 3.7265-1.0547l2.7305-.0469v-.6445c0-.8282-.1445-1.4414-.4336-1.8399-.2891-.4062-.7617-.6093-1.418-.6093-.6093 0-1.0586.1406-1.3476.4218-.2813.2735-.4571.7305-.5274 1.3711l-3.4336-.164c.211-1.2344.7735-2.168 1.6875-2.8008.9219-.64065 2.1758-.96096 3.7618-.96096 1.6015 0 2.8359.39453 3.7031 1.18356.8672.7891 1.3008 1.9102 1.3008 3.3633v4.6172c0 .7109.0781 1.2031.2343 1.4766.1641.2656.4336.3984.8086.3984.25 0 .4922-.0234.7266-.0703v1.7812c-.1953.0469-.3711.0899-.5274.1289-.1562.0391-.3125.0704-.4687.0938-.1563.0234-.3242.043-.5039.0586-.1719.0156-.375.0234-.6094.0234-.8281 0-1.4414-.2031-1.8398-.6094-.3907-.4062-.625-1.0039-.7032-1.7929h-.0703c-.9218 1.664-2.3125 2.4961-4.1718 2.4961zm3.832-6.1055-1.6875.0234c-.7656.0313-1.3086.1172-1.6289.2579-.3203.1328-.5664.3398-.7383.621-.1641.2813-.2461.6563-.2461 1.125 0 .6016.1367 1.0508.4102 1.3477.2812.2891.6523.4336 1.1132.4336.5157 0 .9844-.1406 1.4063-.4219.4297-.2812.7656-.6679 1.0078-1.1601.2422-.5.3633-1.0274.3633-1.5821zm19.9922 1.1133c0 1.6172-.6016 2.8555-1.8047 3.7148-1.1953.8516-2.9531 1.2774-5.2734 1.2774-2.1172 0-3.7774-.375-4.9805-1.125s-1.9766-1.8867-2.3203-3.4102l3.3398-.5508c.2266.875.668 1.5118 1.3242 1.9102.6563.3906 1.5664.5859 2.7305.5859 2.4141 0 3.6211-.7343 3.6211-2.2031 0-.4687-.1406-.8555-.4219-1.1602-.2734-.3046-.664-.5585-1.1719-.7617-.5-.2031-1.4648-.4492-2.8945-.7383-1.2344-.289-2.0937-.5195-2.5781-.6914-.4844-.1796-.9219-.3867-1.3125-.621-.3906-.2422-.7227-.5313-.9961-.8672-.2734-.336-.4883-.7305-.6445-1.1836-.1485-.4532-.2227-.9727-.2227-1.55862 0-1.49219.5586-2.63282 1.6758-3.42188 1.125-.79688 2.7578-1.19531 4.8984-1.19531 2.0469 0 3.5821.32031 4.6055.96093 1.0312.64063 1.6953 1.69922 1.9922 3.17579l-3.3516.45703c-.1719-.71094-.5234-1.2461-1.0547-1.60547-.5234-.35938-1.2773-.53906-2.2617-.53906-2.0937 0-3.1406.65625-3.1406 1.96875 0 .42964.1094.78124.3281 1.05464.2266.2735.5586.5079.9961.7032.4375.1875 1.3242.4258 2.6602.7148 1.5859.336 2.7187.6484 3.3984.9375.6875.2813 1.2305.6133 1.6289.9961.3984.375.7031.8281.9141 1.3594.2109.5234.3164 1.1289.3164 1.8164zm14.6131-1.6406c0 2.1172-.426 3.7539-1.277 4.9101-.844 1.1485-2.039 1.7227-3.586 1.7227-.891 0-1.668-.1914-2.332-.5742-.656-.3907-1.16-.9493-1.512-1.6758h-.07c.047.2344.07.9453.07 2.1328v4.8633h-3.293v-14.7422c0-1.1953-.031-2.168-.094-2.91799h3.2c.039.14063.07.41797.093.83199.032.4141.047.8243.047 1.2305h.047c.742-1.55468 2.094-2.33202 4.055-2.33202 1.476 0 2.621.57031 3.433 1.71092.813 1.1328 1.219 2.7461 1.219 4.8399zm-3.433 0c0-2.8438-.872-4.2657-2.614-4.2657-.875 0-1.547.3829-2.015 1.1485-.461.7656-.692 1.8359-.692 3.2109 0 1.3672.231 2.4258.692 3.1758.468.7422 1.132 1.1133 1.992 1.1133 1.758 0 2.637-1.461 2.637-4.3828zm9.035 6.6328c-1.227 0-2.184-.3321-2.871-.9961-.688-.6719-1.032-1.6133-1.032-2.8242 0-1.3125.426-2.3125 1.278-3 .859-.6875 2.101-1.0391 3.726-1.0547l2.731-.0469v-.6445c0-.8282-.145-1.4414-.434-1.8399-.289-.4062-.762-.6093-1.418-.6093-.609 0-1.058.1406-1.347.4218-.282.2735-.457.7305-.528 1.3711l-3.433-.164c.211-1.2344.773-2.168 1.687-2.8008.922-.64065 2.176-.96096 3.762-.96096 1.601 0 2.836.39453 3.703 1.18356.867.7891 1.301 1.9102 1.301 3.3633v4.6172c0 .7109.078 1.2031.234 1.4766.164.2656.434.3984.809.3984.25 0 .492-.0234.726-.0703v1.7812c-.195.0469-.371.0899-.527.1289-.156.0391-.313.0704-.469.0938s-.324.043-.504.0586c-.172.0156-.375.0234-.609.0234-.828 0-1.442-.2031-1.84-.6094-.391-.4062-.625-1.0039-.703-1.7929h-.07c-.922 1.664-2.313 2.4961-4.172 2.4961zm3.832-6.1055-1.688.0234c-.765.0313-1.308.1172-1.629.2579-.32.1328-.566.3398-.738.621-.164.2813-.246.6563-.246 1.125 0 .6016.137 1.0508.41 1.3477.281.2891.652.4336 1.113.4336.516 0 .985-.1406 1.407-.4219.429-.2812.765-.6679 1.007-1.1601.243-.5.364-1.0274.364-1.5821zm6.597 5.8711v-17.39062h3.293v17.39062z"/></g></svg>