<svg id="Layer_1" data-name="Layer 1" xmlns="http://www.w3.org/2000/svg" viewBox="0 0 1538.74 461.69"><path d="M364.45,272.31V150.06a44.83,44.83,0,0,0-22.13-38.66L229.15,44.88a52.63,52.63,0,0,0-54.28.58l-100.53,62a57.93,57.93,0,0,0-27.53,49.31V281.91A56.09,56.09,0,0,0,74.6,330.35l104.72,61.21a45.59,45.59,0,0,0,45.2.47l115.94-64.58a46.73,46.73,0,0,0,24-40.8V272.31Z" transform="translate(-34.38 -24.13)" style="fill:#426db4;fill-rule:evenodd"/><path d="M126.07,322.22V115h43.35v75.48h71.92V115h43.48V322.22H241.34V231.61H169.42v90.61Z" transform="translate(-34.38 -24.13)" style="fill:#f0eff8"/><path d="M202.59,24.13h11.19l.24.05h0l.25.05h.24l.24.05h0l.25,0h0l.25.05h0l.24.06h0l.24.06h0l.25.06h0l.24.05h.24l.24.06h0l.24.06h0l.24.06h0l.25.06h0l.24.06h0l1.48,1.22h0l.24.07h0l.25.06h0l.24.06h0l.24.07h0l.24.07h0l.24.07h0l.24.07h0l.24.07h0l.24.07h0l.24.07h0l.24.08h0L222,27h0l.24.08h0l.24.08h0l.24.08h0l.24.08h0l.24.08h0l.24.08h0l.24.08h0l.23.08h0l.23.08h0l.23.09h0l.24.09h0l.23.09h0l.24.08h0l.24.09h0l.24.09h0l.23.09h0l.23.1h0l.24.09h0l.23.1h0l.24.1h0l.24.1h0l.24.1h0l.23.1h0l.23.1h0l.24.1h0l.23.1h0l.23.1h0l.23.1h0l.23.11h0l.23.11h0l.23.11h0l.23.11h0l.23.11h0l.23.11h0l.23.11h0l.23.11h0l.23.12h0l.23.11h0l.22.12h0l.23.11h0l.23.12h0l.22.12h0l.23.12h0l.23.12h0l.22.12h0l.23.12h0l.22.13h0l.22.13h0l.22.13h0l.22.13h0l.22.13h0l.21.13h0l115,67.27.19.11h0l.19.11h0l.18.12h0l.18.11h0l.18.11h0l.18.11h0l.18.11h0l.18.11h0l.18.12h0l.18.12h0l.18.11h0l.18.12h0l.18.12h0l.17.11h0l.18.12h0l.18.12h0l.17.12h0l.17.12h0l.17.12h0l.17.12h0l.17.13h0l.17.12h0l.17.12h0l.17.12h0l.17.12h0l.17.12h0l.17.12h0l.17.13h0l.16.13h0l.17.13h0l.17.13h0l.17.13h0l.16.13h0l.17.14h0l.32.26h0l.32.27h0l.33.27h0l.33.27h0l.32.27h0l.32.27h0l.31.28h0l.31.28h0l.31.29h0l.3.28h0l.31.29h0l.3.29h0l.3.29h0l.29.29h0l.29.3h0l.29.3h0l.29.3h0l.28.3h0l.28.3h0l.28.3h0l.28.31h0l.27.32h0l.28.31h0l.27.32h0l.27.32h0l.27.32h0l.26.32h0l.26.32h0l.26.33h0l.25.33h0l.25.33h0l.25.33h0l.25.34h0l.25.33h0l.24.34h0l.24.34h0l.24.34h0l.23.34h0l.23.35h0l.22.34h0l.22.34h0l.23.35h0l.22.35h0l.21.35h0l.22.35h0l.21.35h0l.21.36h0l.2.36h0l.2.36h0l.2.36h0l.2.36h0l.2.37h0l.19.37h0l.19.37h0l.18.38h0l.19.37h0l.18.37h0l.17.38h0l.17.38h0l.17.38h0l.17.38h0l.16.38h0l.16.38h0l.15.39h0l.15.38v0l.15.39h0l.15.39h0l.15.39h0l.14.39h0l.13.39h0l.13.39v0l.13.39V128l.13.4h0l.12.39v.05l.12.4h0l.12.4h0l.12.4h0l.11.4h0l.11.4v0l.1.4v.06l.11.41v.05l.1.41h0l.09.41h0l.1.41v.06l.09.41h0l.09.41h0l.08.41h0l.08.41h0l.08.41v.05l.07.42h0l.07.41v.06l.07.42v.06l.06.42v4.12l.06.41h0v.22h0V142h0v.21h0v.21h0v.21h0v.21h0V143h0v.21h0v.21h0v.21h0v.21h0v.21h0v.21h0v.21h0v.21h0V290.64h0v.23h0v.72h0v.22h0V292h0v.22h0v.23h0v.22h0v.22h0v.22h0v.22h0v.22h0v.22h0V294h0v.22h0v.22h0v.22h0v.22h0v.22h0v.22h0v.22h0v.22h0V296h0v.22h0v.22h0v.22h0v.22h0v.21h0v.21h0v.22h0l-.05.22h0l-.05.22h0v.21h0l0,.22h0v.22h0l-.05.21h0l-.05.21h0v.21h0v.21h0l-.05.21h0l-.05.21h0l0,.21h0l-.06.21h0l-.05.21h0l-.06.21h0l-.06.22h0l-.06.21h0l-.06.21h0l-.06.21h0l-.06.22h0L373,302h0l-.06.21h0l-.07.21h0l-.06.21h0l-.06.21h0l-.06.21h0l-.07.21h0l-.07.21h0l-.07.21h0l-.07.21h0l-.07.21h0l-.07.21h0l-.07.21h0l-.07.21h0l-.07.21h0l-.07.21h0l-.08.2h0l-.07.2h0l-.07.2h0l-.07.21h0l-.08.21h0l-.08.2h0l-.08.2h0l-.08.2h0l-.08.2h0l-.08.2h0l-.08.2h0l-.09.2h0l-.09.21h0l-.08.2h0l-.09.2h0l-.09.2h0l-.09.2h0l-.09.2h0l-.09.2h0l-.09.2h0l-.09.2h0l-.09.2h0l-.1.2h0l-.1.19h0l-.09.2h0l-.1.19h0l-.09.2h0l-.1.2h0l-.1.2h0l-.1.19h0l-.1.2h0l-.1.2h0l-.1.2h0l-.1.19h0l-.1.2h0l-.1.2h0l-.11.19h0l-.11.19h0l-.11.19h0l-.11.19h0l-.11.19h0l-.11.19h0l-.11.19h0l-.11.19h0l-.11.19h0l-.11.19h0l-.11.19h0l-.11.19h0l-.12.19h0l-.11.18h0l-.11.18h0l-.12.19h0l-.12.18h0l-.12.18h0l-.12.19h0l-.12.18h0l-.12.18h0l-.12.19h0l-.12.18h0l-.13.18h0l-.12.18h0l-.13.18h0l-.12.18h0l-.12.18h0l-.13.18h0l-.12.18h0l-.13.18h0l-.12.18h0l-.13.18h0l1.23,3.69h0l-.13.18h0l-.13.18h0l-.13.17h0l-.13.17h0l-.14.17h0l-.13.17h0l-.13.18h0l-.14.18h0l-.14.17h0l-.14.17h0l-.14.17h0l-.14.17h0l-.14.17h0l-.14.17h0l-.14.17h0l-.14.17h0l-.15.17h0l-.14.17h0l-.14.17h0l-.14.17h0l-.14.17h0l-.14.16h0l-.15.17h0l-.14.17h0l-.15.17h0l-.14.17h0l-.15.16h0l-.15.16h0l-.15.16h0l-.15.16h0l-.15.16h0l-.15.16h0l-.15.16h0l-.15.16h0l-.16.16h0l-.15.16h0l-.15.15h0l-.16.16h0l-.16.16h0l-.16.15h0l-.16.16h0l-.16.15h0l-.16.15h0l-.16.15h0l-.16.15h0l-.16.15h0l-.16.15h0l-.17.15h0l-.16.15h0l-.17.15h0l-.17.15h0l-.17.15h0l-.17.14h0l-.17.14h0l-.17.15h0l-.17.15h0l-.17.15h0l-.17.14h0l-.18.14h0l-.17.14h0l-.17.14h0l-.17.14h0l-.17.14h0l-.17.14h0l-.18.14h0l-.17.13h0l-.18.14h0l-.18.14h0l-.18.14h0l-.18.14h0l-.18.13h0l-.18.13h0l-.18.13h0l-.18.13h0l-.18.13h0l-.18.13h0l-.18.13h0l-.18.13h0l-.19.13h0l-.19.13h0l-.19.13h0l-.19.12h0l-.19.13h0l-.18.13h0l-.19.12h0l-.19.12h0l-.19.12h0l-.19.12h0l-.19.12h0l-.19.12h0l-.19.12h0l-.19.12h0L351,336h0l-.19.12h0l-.2.12h0l-.19.11h0l-.19.11h0l-.2.12h0l-.2.11h0l-.19.11h0l-.2.11h0l-.2.11h0l-.19.11h0l-115.93,64.6h0l-.18.11h0l-.19.11h0l-.19.1h0l-.19.1h0l-.19.1h0l-.19.1h0l-.19.1h0l-.19.1h0l-.19.1h0l-.19.09h0l-.2.1h0l-.19.1h0l-.19.09h0l-.19.09h0l-.19.1h0l-.2.09h0l-.19.09h0l-.2.09h0l-.19.09h0l-.19.09h0l-.2.09h0l-.2.08h0l-.2.09h0l-.2.09h0l-.19.08h0l-.2.09h0l-.2.08h0l-.2.08h0l-.2.08h0l-.2.08h0l-.2.08h0l-.19.08h0l-.2.07h0l-.2.08h0l-.2.08h0l-.2.08h0l-.2.07h0l-.2.08h0l-.2.07h0l-.2.07h0l-.2.07h0l-.2.07h0l-.2.07h0l-.2.07-.2.07h0l-.21.06h0l-.2.06h0l-.2.07h0l-.21.06h0l-.2.06h0l-.2.06h0l-.21.07h0l-.4.12h0l-.41.12h-.05l-.41.12h0l-.41.11h0l-.41.11h-3.64l-.41.11h-.06l-.41.1h-.05l-.41.1h-.06l-.41.1h-.05l-.41.09h0l-.42.09h-.06l-.42.09h0l-.42.08h0l-.41.07h0l-.41.08h0l-.42.07h0l-.42.07h0l-.42.06h0l-.42.06h0l-.42.06h0l-.42.06h-.06l-.42,0h-.49l-.42.05h0l-.42.05H195.68l-.42-.05h-.11l-.42-.05h-.06l-.42-.06h0l-.42-.06h0l-.42-.06h0l-.42-.06h-.05l-.41-.07h0l-.42-.08h-.05l-.41-.08h0l-.41-.08h-.05l-.41-.08h-.06l-.42-.08h0l-.41-.09h-.06l-.41-.09h0L189,407h-.06l-.41-.1h-.05l-.41-.11h0l-.41-.11h0l-.41-.11h-.05l-.41-.11h-.05l-.41-.12h-.06l-.41-.12h0l-.41-.12h0L185,406h0l-.39-.13h0l-.21-.07h0l-.2-.06h0l-.2-.07h0l-.2-.07h0l-.2-.07h0l-.2-.07h0l-.2-.07h0l-.2-.07h0l-.2-.07h0l-.2-.08h0l-.2-.08h0l-.2-.08h0l-.2-.08h0l-.2-.08h0l-.2-.08h0l-.2-.08h0l-.2-.08h0l-.2-.08h0l-.2-.08h0l-.2-.08h0l-.2-.08h0l-.2-.08h0l-.2-.09h0l-.19-.09h0l-.2-.09h0l-.2-.09h0l-.2-.08h0l-.19-.09h0l-.2-.09h0l-.19-.09h0l-.19-.09h0l-.19-.09h0l-.2-.09h0l-.2-.1h0l-.19-.09h0l-.2-.09h0l-.19-.1h0l-.2-.1h0l-.19-.1h0l-.19-.1h0l-.19-.1h0l-.19-.1h0l-.19-.1h0l-.19-.1h0l-.19-.1h0l-.19-.11h0l-.19-.1h0l-.19-.1h0l-.19-.1h0l-.19-.11h0l-.18-.11h0l-.18-.11h0L67.74,341.76h0l-.22-.13h0l-.22-.13h0l-.23-.13h0l-.22-.14h0l-.22-.14h0l-.22-.14h0l-.22-.14h0l-.22-.13h0l-.22-.14h0l-.22-.14h0l-.43-.27h0l-.22-.14h0l-.22-.14h0l-.22-.15h0l-.22-.15h0l-.22-.14h0l-.22-.15h0l-.22-.15h0L63.4,339h0l-.21-.15h0l-.21-.15h0l-.21-.15h0l-.52-.38h0L62,338h0l-.21-.15h0l-.21-.15h0l-.21-.15h0l-.21-.16h0l-.21-.15h0l-.21-.16h0l-.2-.16h0l-.2-.16h0l-.2-.16h0l-.2-.16h0l-.2-.16h0l-.2-.16h0l-.2-.16h0l-.2-.16h0l-.2-.17h0l-.2-.16h0l-.19-.16h0l-.2-.17h0l-.2-.16h0l-.2-.17h0l-.2-.16h0l-.19-.16h0l-.19-.17h0l-.19-.17h0L57,334h0l-.19-.17h0l-.19-.17h0l-.19-.18h0l-.19-.17h0l-.19-.18h0l-.19-.17h0l-.18-.18h0l-.18-.18h0l-.18-.18h0l-.19-.18h0L55,332h0l-.18-.18h0l-.18-.18h0l-.18-.18h0l-.18-.18h0l-.18-.18h0l-.18-.18h0l-.17-.18h0l-.18-.18h0l-.18-.19h0l-.17-.19h0L53,330h0l-.18-.19h0l-.17-.19h0l-.17-.19h0l-.17-.19h0l-.17-.19h0l-.17-.19h0l-.16-.19h0l-.17-.19h0l-.18-.2h0l-.17-.19h0l-.17-.2h0l-.16-.19h0l-.16-.19h0l-.16-.2h0l-.17-.2h0l-.16-.19h0l-.17-.19h0l-.16-.19h0l-.16-.2h0l-.16-.2h0l-.16-.2h0l-.16-.2h0l-.16-.2h0l-.15-.2h0l-.15-.2h0l-.15-.2h0l-.15-.21h0l-.15-.2h0l-.15-.2h0l-.15-.21h0l-.15-.21h0l-.15-.2h0l-.15-.2h0l-.15-.21h0l-.15-.21h0l-.14-.21h0l-.14-.21h0l-.14-.21h0l-.14-.21h0l-.14-.21h0l-.14-.21h0l-.14-.21h0l-.14-.21h0l-.14-.21h0L46,321h0l-.13-.21h0l-.14-.21h0l-.14-.21h0l-.14-.22h0l-.13-.21h0l-.13-.21h0l-.13-.22h0l-.13-.21h0l-.13-.22h0l-.13-.21h0l-.13-.22h0l-.13-.22h0l-.12-.22h0l-2.15-2.4h0l-.12-.22h0l-.12-.22h0l-.16-.24h0l-.12-.22h0l-.12-.23h0l-.12-.22h0l-.17-.33h0l-.12-.22h0l-.11-.23h0l-.12-.23h0l-.12-.23h0l-.11-.23h0l-.11-.22h0l-.11-.23h0l-.19-.41h0l-.08-.3h0l-.11-.22h0l-.11-.23h0l-.11-.23h0l-.1-.23h0l-.11-.23h0l-.11-.23h0l-.11-.23h0l-.1-.23h0l-.11-.23h0l-.11-.23h0l-.1-.23h0l-.1-.23h0l-.1-.23h0l-.09-.23h0l-.1-.23h0l-.09-.24h0l-.1-.23h0l-.09-.22h0l-.1-.24h0l-.09-.24h0L38,307h0l-.09-.24h0l-.09-.24h0l-.09-.24h0l-.08-.24h0l-.4-.89h0l-.12-.24h0l-.08-.24h0l-.09-.24h0l-.08-.28h0l-.08-.24h0l-.08-.24h0l-.08-.24h0l-.08-.24h0l-.08-.24h0l-.08-.24h0l-.07-.24h0l-.2-.51h0v-.28h0l-.07-.24h0l-.13-.29h0l-.07-.25h0l-.07-.25h0l-.07-.25h0l-.07-.25h0l-.06-.24h0l-.06-.24h0l-.07-.25h0l-.06-.24h0l-.06-.24h0l-.06-.25h0l-.15-.54h0v-.23h0l-.06-.25h0L35,297.4h0l-.12-.27h0l-.06-.25h0l-.05-.25h0l-.06-.25h0l-.05-.25h0l0-.25h0l0-.25v-.25h0l-.05-.26h0l0-.25h0l-.06-.24h0v-.27h0l0-.26h0v-.25h0v-.25h0v-.25h0v-.25h0v-.25h0v-.25h0v-.25h0v-.25h0v-.25h0v-.26h0v-.25h0v-.26h0v-.25h0v-.26h0v-.26h0v-.26h0v-.26h0v-.26h0V289h0v-.26h0v-.26h0v-.26h0V288h0v-.26h0v-.52h0v-.26h0V153h0v-1.7h0V151h0v-.26h0v-.26h0v-.26h0V150h0v-.26h0v-.26h0v-.26h0v-.26h0v-.26h0v-.26h0v-.25h0v-.26h0v-.26h0v-.25h0v-.26h0v-.26h0v-.25h0v-.26h0v-.26h0v-.26h0v-.25h0v-.25h0l.07-.26h0v-.25h0v-.25h0l0-.25h0l0-.26h0l.05-.25h0v-.25h0l0-.25h0l.05-.25h0l0-.25h0l0-.25h0v-.25h0l.06-.25h0l.06-.25h0l0-.25h0l.06-.25h0l.06-.25h0l.06-.25h0l.06-.25h0l.06-.25h0l.06-.25h0l.07-.25h0l.07-.25h0l.07-.25h0l.07-.25h0l.07-.25h0l.07-.24h0l.07-.25h0l.07-.25h0l.07-.25h0l.19-1.7h0l.07-.24h0l.07-.24h0l.07-.25h0l.08-.24h0l.08-.24h0l.08-.24h0l.08-.24h0l.08-.24h0l.08-.24h0l.08-.24h0l.08-.24h0l.09-.24h0l.08-.24h0l.08-.24h0l.09-.24h0l.09-.24h0l.09-.24h0l.09-.24h0l.09-.24h0l.09-.24h0l.1-.23h0l.1-.24h0l.1-.24h0l.1-.24h0l.1-.24h0l.1-.24h0l.1-.24h0l.1-.24h0l.1-.23h0l.1-.23h0l.1-.24h0l.11-.24h0l.11-.23h0l.1-.23h0l.11-.23h0l.11-.23h0l.11-.23h0l.11-.23h0l.11-.23h0l.11-.23h0l.11-.23h0l.11-.23h0l.11-.23h0l.11-.23h0l.12-.22h0l.12-.23h0l.6-1.35h0l.12-.23h0l.12-.22h0l.14-.33h0l.12-.22h0l.12-.22h0l.12-.22h0l.12-.22h0l.12-.22h0l.12-.22h0l.13-.22h0l.12-.22h0l.13-.22h0l.13-.22h0l.13-.22h0l.13-.22h0l.13-.22h0l.13-.22h0l.13-.22h0l.13-.22h0l.14-.22h0l.14-.22h0L44,119h0l.14-.21h0l.13-.22h0l.14-.21h0l.14-.21h0l.14-.22h0l.14-.21h0l.14-.21h0l.14-.21h0l.15-.21h0l.14-.21h0l.15-.21h0l.15-.21h0l.15-.21h0L46,116h0l.15-.21h0l.15-.21h0l.15-.2h0l.15-.21h0l.15-.2h0l.15-.2h0l.15-.2h0l.15-.2h0l.15-.2h0l.16-.2h0l.16-.2h0l.16-.2h0l.16-.2h0l.16-.2h0l.16-.2h0l.16-.2h0l.16-.2h0l.16-.19h0l.16-.2h0l.16-.2h0l.17-.19h0l.16-.2h0l.16-.19h0l.16-.2h0l.17-.2h0l.17-.19h0l.17-.19h0l.17-.19h0l.17-.19h0l.17-.19h0l.17-.19h0l.17-.19h0l.17-.19h0l.18-.19h0l.18-.19h0l.19-.18h0l.18-.19h0l.18-.19h0l.18-.18h0l.18-.18h0l.18-.18h0l.19-.18h0l.18-.18h0l.18-.18h0l.18-.18h0l.18-.18h0l.18-.18h0l.18-.18h0l.18-.18h0l.19-.17h0l.19-.17h0l.19-.18h0l.19-.18h0l.19-.17h0l.19-.17h0l.19-.17h0l.19-.17h0l.19-.17h0l.2-.17h0l.2-.17h0l.2-.17h0l.2-.16h0l.2-.16h0L57,104h0l.2-.16h0l.2-.16h0l.2-.16h0l.2-.16h0l.2-.16h0l.21-.16h0l.2-.16h0l.21-.16h0l.21-.16h0l.2-.16h0l2.08-2.29h0l.2-.16h0l.21-.15h0l.21-.16h0l.21-.15h0l.21-.15h0l.21-.15h0l.21-.15h0l.21-.16h0l.22-.15h0l.21-.15h0l.21-.15h0l.21-.15h0l.22-.15h0L64.1,98h0l.22-.14h0l.21-.15h0l.22-.14h0l.22-.15h0l.22-.14h0l.22-.14h0l.22-.14h0l.22-.14h0l.22-.14h0l.22-.14h0l.22-.13h0L167.59,34.13h0l.21-.13h0l.22-.14h0l.22-.13h0l.22-.13h0l.22-.13h0l.23-.13h0l.22-.13h0l.22-.13h0l.23-.12h0l.23-.12h0l.22-.12h0l.23-.12h0l.22-.12h0l.22-.12h0l.22-.12h0l.23-.12h0l.22-.12h0l.22-.12h0l.23-.12h0l.23-.12h0l.23-.11h0l.23-.11h0l.22-.11h0l.23-.11h0l.23-.11h0l.23-.11h0l.23-.11h0l.23-.11h0l.23-.1h0l1-.53h0l.23-.1h0l.23-.1h0l.23-.1h0l.23-.1h0l.23-.1h0l.23-.1h0l.23-.1h0l.23-.09h0l.23-.1h0l.24-.1h0l.24-.1h0l.23-.09h0l.24-.09h0l.23-.09h0l.24-.09h0l.24-.08h0l.24-.09h0l.24-.09h0l.79-.29h0l.24-.08h0l.23-.08h0l.24-.08h0l.29-.16h0l.24-.08h0l.24-.08h0l.24-.08h0l.24-.08h0l.24-.07h0l.24-.07h0l.24-.07h0l.24-.07h0l.24-.07h0l.24-.07h0l.24-.07h0l.24-.07h0l.24-.07h0l.24-.06h0l.24-.06h0l.24-.07h0l.25-.06h0l.24-.07h0l.25-.06h0l.25-.06h0l.24-.06h0l.25-.06h0l.24-.06h0l.24-.05h0l.24-.06h0l.24-.05h.24l.24-.05h0l.24-.05h0l.25,0h0l.25-.05h.25l.25-.05h11.7Zm-.23,27h-8l-.17,1h-2.08l-.16,0h-.16l-.16,0-.15.05-.16,0-.16.05H191l-.16,0-.16,0-.15.05-.16,0-.16.06-.16,0-.16.05-.16.06-.16.05h-.16l-.15,0-.16.06-.16.06-.16.06-.15.06-.16.06-.15.06-.15.06-.16.07-.16.06-.16.06-.16.06-.15.07-.15.06-.16.07-.15.07-.15.07-.15.07-.16.07-.15.07-.16.07-.15.07-.15.07-.15.07-.16.07-.15.07-.15.07-.15.08-.15.08-.15.07-.15.08-.15.07-.15.08-.15.08-.15.08-.15.09-.15.08-.15.09-.14.08-.15.08-.14.08-.15.09-.15.09-.15.09-.14.08-.15.09-.14.09-.15.09-.15.09-.16.1L81.39,119l-.17.11-.16.1-.15.1-.15.1-.15.1-.15.1-.15.1-.15.1-.15.1-.15.1-.15.1-.15.09-.15.11-.14.1-.14.1-.15.1-.14.1-.14.1-.14.1-.14.1-.14.1-.14.1-.14.11-.14.1-.14.11-.14.11-.14.11-.14.11-.14.11-.14.11-.13.11-.14.11-.14.11-.13.11-.14.11-.14.11-.13.11-.14.11-.13.11-.13.11-.13.12-.13.12-.13.12-.13.11-.13.12-.13.12-.13.12-.13.12-.13.12-.13.12-.13.12-.13.12-.13.12-.13.12-.13.12-.12.12-.13.12-.12.13-.13.12-.12.13-.12.12-.12.13-.12.12-.12.13-.12.13-.13.13-.12.12-.12.13-.12.13-.12.13-.11.13-.12.13-.12.13-.12.13-.12.14-.12.13-.11.13-.11.13-.12.14-.11.12-.12.13-.11.14-.11.13-.11.14-.11.14-.11.14-.11.14-.11.14-.11.14-.1.14-.11.14-.11.14-.11.14-.15.13-.1.14-.1.14-.1.14-.1.15-.1.14-.1.14-.1.15-.1.14-.1.14-.1.14-.1.14-.09.15-.1.15-.1.14-.1.15-.09.15-.09.14-.09.15-.09.15-.09.15-.09.15-.1.15-.1.15-.09.16-.09.15-.09.15-.09.15-.09.15-.09.15-.09.15-.09.15-.09.15L66,135l-.09.16-.09.15-.09.15-.09.16-.08.15-.08.16-.08.16-.08.16-.08.15-.08.15-.08.16-.08.15-.08.16-.07.15-.08.16-.08.16-.08.16-.08.16-.08.16-.07.16-.07.16-.07.16-.07.16-.07.16-.07.16-.07.16-.07.16-.07.16-.06.16-.07.16-.07.17-.07.16-.07.16-.07.16-.06.16-.07.17-.07.16-.06.16-.06.17-.06.16-.06.17-.06.16-.06.17-.06.17-.06.17,0,.17-.06.16-.06.17v.17l0,.16-.05.17-.06.17-.05.16,0,.16,0,.17-.06.17-.05.17,0,.16,0,.17v.17l-.05.17,0,.17-.05.17v.34l0,.17v.17l0,.17V292.48l0,.16v.51l0,.17v.49L62,294v.16l0,.17.05.17,0,.16v.17l0,.17.05.16,0,.17.06.16.06.16.06.16.06.16,0,.16.06.17.06.16.06.16.06.16.06.16.06.16.06.16.06.16.06.16.06.16.07.16.07.16.06.16.06.16.06.16.06.16.06.16.07.16.07.16.07.16.07.16.07.16.07.16.07.16.07.16.07.16.07.16.07.16.07.15.08.16.08.15.08.16.08.15.08.15.08.15.08.15.08.15.08.15.09.15.08.15.08.15.08.15.09.15.09.15.08.15.08.15.08.15.09.15.08.15.09.14.09.15.09.14.09.15.09.15.09.14.09.14.09.14.09.14.09.15.09.15.1.14.09.14.09.15.09.14.09.14.1.14.1.14.1.15.1.14.1.14.1.14.1.14.1.14.1.14.1.14.11.14.11.14.1.14.1.14.1.14.1.14.11.13.11.13.11.14.11.13.11.14.11.13.11.13.11.13.11.13.11.13.11.13.11.13.11.13.11.13.11.13.11.13.12.13.12.13.11.13.12.12.12.13.12.12.12.13.11.13.12.13.12.12.12.12.12.12.12.12.12.13.12.12.12.12.12.12.12.12.12.12.13.12.12.12.12.12.13.12.12.12.12.12.13.12.13.11.13.11.13.12.13.12.13.11.13.11.13.12.13.12.13.11.14.11.14.11.14.11.13.11.13.11.14.11.13.11.14.1.13.11.14.11.14.11.14.11.13.1.14.11.14.1.14.11.14.11.14.1.14.1.15.1.14.1.14.1.14.1.14.1.14.1.14.1.15.1.15.09.15.1.14.1.15.1.15.1.14.09.32.06.15.09.15.09.15.09.15.09.16.09.15.09.15.09.17.1L186,380.13l.13.08.11.06.12.06.12.06.12.06.11.07.12.06.12.06.12.06.12.07.12.06.12.06.12.06.12.06.12.06.12.06.12.06.12.06.11.06.12.06.12.06.12.05.12.06.12,0,.12.05h.12l.12.06.12.06.12.05.12.06.12.05.12.05H190l.12,0,.12.05.12.05.12.05h.12l.12.05h.12l.13,0H191l.12.05.12.05.12.05h.12l.12.05h.6l.26.08.25.08.25.07.25.07.25.07.25.07.25.07.25.07.25.07.25.06.25.06.25.06.25.05.25.06H196l.25,0,.25.05h11.77l.26-.05.25,0,.25-.06h.25l.25-.06.25-.06.25-.06.25-.06.25-.07.25-.07.25-.07.25-.07.26-.08h1.35l.13-.05h.25l.12-.05h.36l.13,0H214l.12-.05.12-.05.12-.05h.12l.12-.05.12,0,.12-.05.12-.05h.12l.12-.05.12-.06.12-.06.12-.05.12-.06.12-.06.12-.05.12-.06.12-.06.12-.06.11-.06.12-.06.12-.06.12-.06.12-.06.12-.06.12-.06.12-.06.12-.06.11-.06.12-.06.12-.06.13-.07,116-64.63.14-.07.13-.07.12-.07.12-.07.12-.07.12-.08.13-.07.12-.07.12-.07.12-.07.12-.08.12-.08.12-.07.12-.07.12-.07.12-.08.12-.08L336,315l.12-.08.12-.07.11-.08.11-.08.11-.08.11-.08.11-.08.12-.08.11-.08.12-.08.11-.08.11-.08.11-.08.11-.08.11-.08.12-.08.11-.09.11-.08.11-.09.11-.08.11-.09.11-.09.11-.09.11-.08.11-.08.1-.09.1-.09.11-.09.11-.09.1-.08.11-.09.11-.1.1-.09.11-.09.1-.09.1-.09.1-.1.11-.09.1-.1.1-.09.1-.1.1-.1.1-.09.1-.1.1-.09.1-.1.1-.1.1-.1.11-.1.08-.1.11-.1.09-.1.1-.1.1-.1.1-.1.09-.1.09-.1.09-.1.09-.1.1-.1.09-.1.09-.1.08-.1.09-.1.09-.1.09-.1.09-.1.09-.11.09-.11.09-.11.09-.1.09-.1.09-.1.09-.11.09-.1.09-.11.08-.1.08-.11.08-.11.08-.1.09-.11.08-.11.08-.11.08-.11.08-.11.08-.11.08-.11.08-.11.08-.11.08-.11.08-.11.08-.11.08-.11.07-.11.07-.12.08-.12.08-.11.07-.11.07-.11.08-.12.08-.11.07-.11.07-.12.07-.12.07-.12.07-.12.07-.11.07-.12.07-.12.07-.11.07-.12.07-.12.07-.12.06-.12.06-.12.07-.12.07-.12.06-.12L347,303l.07-.12.06-.12.06-.12.06-.13.06-.12.07-.12.07-.12.06-.12.06-.12.06-.12.06-.13.06-.12.06-.12.06-.13.06-.12.06-.12.06-.13.06-.13.06-.13v-.55l.05-.12.05-.13.05-.13.05-.13v-.12l0-.13.05-.13.05-.13.05-.12v-.13l.05-.13,0-.13.05-.13.05-.13v-.52l.05-.13.05-.13,0-.13v-.26L349,297v-.26l.05-.13V144.71l-.05-.25-.05-.25v-.5l-.06-.25-.06-.25-.06-.25-.06-.25-.06-.25-.06-.25-.06-.25-.07-.25-.07-.25-.07-.25-.08-.25-.07-.24-.08-.24-.08-.24-.08-.24-.08-.24-.09-.24-.09-.24-.09-.23-.09-.24-.09-.24-.09-.24-.1-.23-.09-.24-.1-.23-.1-.23,1.28-.27-.11-.23-.1-.23-.11-.23-.11-.23-.11-.22-.12-.23-.11-.23-.12-.23-.11-.17-.12-.22-.12-.22-.12-.22-.12-.22-.13-.22-.13-.22-.13-.22-.14-.22-.13-.21-.13-.21-.14-.21-.14-.21-.14-.21-.14-.21-.14-.21-.14-.21-.15-.2-.15-.2-.15-.2-.15-.2-.15-.2-.16-.2-.16-.2-.16-.2-.16-.2-.16-.19-.17-.19-.16-.19-.17-.19-.17-.19-.17-.19-.17-.19-.17-.19-.18-.18L342,128l-.18-.18-.18-.18-.18-.18-.19-.18-.19-.18-.19-.17-.19-.17-.19-.17-.19-.17-.19-.17-.2-.17-.2-.16-.2-.16-.19-.16-.21-.17-.09-.07-.1-.08-.1-.08-.1-.08-.1-.08-.1-.07-.1-.08-.1-.08-.11-.08-.11-.08-.1-.08-.1-.08-.1-.08-.1-.07-.1-.08-.11-.08-.1-.07-.1-.07-.11-.08-.11-.07-.11-.07-.1-.07-.11-.07-.11-.07-.11-.07-.11-.07-.11-.07-.13-.08-.11-.07-.11-.07-.11-.07-.11-.06-.11-.06-.13-.07L222.35,56.54l-.16-.09-.14-.08-.15-.09-.15-.09-.15-.09-.15-.08-.15-.08-.15-.08-.15-.08-.15-.08-.14-.08-.15-.08-.15-.08-.15-.08-.15-.08-.15-.08-.15-.08-.16-.07L219.5,55l-.15-.07-.15-.07-.15-.08-.15-.07-.15-.07-.15-.07-.16-.07-.15-.07-.15-.06-.15-.07-.15-.07-.15-.07-.16-.06-.15-.06-.16-.06-.15-.07-.16-.06-.16-.07-.16-.06-.16-.06-.15-.06-.13-.06-.16-.06-.16-.06-.15-.06h-.15l-.15-.05-.16-.06h-.16l-.15-.05-.16,0-.16,0-.15-.05h-.16l-.16,0-.16-.05-.15,0-.16,0h-.16l-.16-.05h-.16l-.16,0h-.8l-.16-.05h-9.5Z" transform="translate(-34.38 -24.13)" style="fill:#f0eff8;fill-rule:evenodd"/><text transform="translate(381.72 250.76) scale(0.9 1)" style="font-size:176px;fill:#f0eff8;font-family:Arial-Black, Arial Black;font-weight:800;letter-spacing:0.01999980324446032em">Hugo<tspan x="512.86" y="0" style="letter-spacing:-0.020005968411921617em"> </tspan><tspan x="568.04" y="0" style="font-size:140px;letter-spacing:0.02000403078786235em;opacity:0.75">In Action</tspan></text></svg>