<svg xmlns="http://www.w3.org/2000/svg" viewBox="0 0 1541.26 518.42"><path d="M350.75,353.22V231a44.84,44.84,0,0,0-22.12-38.66L215.41,125.79a52.61,52.61,0,0,0-54.28.58l-100.49,62a57.93,57.93,0,0,0-27.53,49.31V362.82A56.1,56.1,0,0,0,60.9,411.25l104.72,61.21a45.59,45.59,0,0,0,45.2.47l115.94-64.57a46.71,46.71,0,0,0,24-40.8V353.22Z" transform="translate(-19.45 -105.04)" fill="#f0eff8" fill-rule="evenodd"/><path d="M112.37,403.13V195.91h43.36v75.48h71.91V195.91h43.48V403.13H227.64V312.52H155.73v90.61Z" transform="translate(-19.45 -105.04)" fill="#426db4"/><path d="M188.89,105h3.85l.25,0h0l.24,0h0l.24,0h0l.25,0h0l.24,0h0l.25,0h0l.25,0h0l.25,0h0l.24,0h0l.24,0h0l.25,0h0l.25,0h0l.25,0h0l.24,0h0l.24,0h0l.25,0h0l.25,0h0l.24,0h0l.25,0h0l.24,0h0l.25,0h0l.24,0h0l.25,0h0l.24,0h0l.24,0h0l.25,0h0l.24,0h0l.24,0h0l.24.05h0l.24,0h0l.24,0h0l.25.05h0l.24,0h0l.24,0h0l.25,0h0l.25,0h0l.24.06h0l.24.06h0l.25.06h0l.24,0h0l.24,0h0l.24.06h0l.24.06h0l.24.06h0l.25.06h0l.24.06h0l.24.06h0l.24.07h0l.25.06h0l.24.06h0l.24.07h0l.24.07h0l.24.07h0l.24.07h0l.24.07h0l.24.07h0l.24.07h0l.24.08h0l.24.08h0l.24.08h0l.24.08h0l.24.08h0l.24.08h0l.24.08h0l.24.08h0l.24.08h0l.23.08h0l.23.08h0l.23.09h0l.24.09h0l.23.09h0l.24.08h0l.24.09h0l.24.09h0l.23.09h0l.23.1h0l.24.09h0l.23.1h0l.24.1h0l.24.1h0l.24.1h0l.23.1h0l.23.1h0l.24.1h0l.23.1h0l.23.1h0l.23.1h0l.23.11h0l.23.11h0l.23.11h0l.23.11h0l.23.11h0l.23.11h0l.23.11h0l.23.11h0l.23.12,0,0,.23.11h0l.22.12h0l.23.11h0l.23.12h0l.22.12,0,0,.23.12h0l.23.12h0l.22.12,0,0,.23.12,0,0,.22.13,0,0,.22.13h0l.22.13h0l.22.13,0,0,.22.13,0,0,.21.13h0l113.3,66.57.19.11,0,0,.19.11h0l.18.12,0,0,.18.11,0,0,.18.11h0l.18.11h0l.18.11h0l.18.11h0l.18.12h0l.18.12h0l.18.11h0l.18.12,0,0,.18.12,0,0,.17.11h0l.18.12h0l.18.12h0l.17.12h0l.17.12h0l.17.12,0,0,.17.12h0l.17.13,0,0,.17.12h0l.17.12h0l.17.12,0,0,.17.12h0l.17.12,0,0,.17.12,0,0,.17.13,0,0,.16.13,0,0,.17.13h0l.17.13,0,0,.17.13,0,0,.16.13,0,0,.17.14,0,0,.32.26,0,0,.32.27,0,0,.33.27,0,0,.33.27,0,0,.32.27,0,0,.32.27,0,0,.31.28,0,0,.31.28,0,0,.31.29,0,0,.3.28,0,0,.31.29,0,0,.3.29,0,0,.3.29,0,0,.29.29,0,0,.29.3,0,0,.29.3,0,0,.29.3,0,0,.28.3,0,0,.28.3,0,0,.28.3,0,0,.28.31,0,0,.27.32,0,0,.28.31,0,0,.27.32,0,0,.27.32,0,0,.27.32,0,0,.26.32,0,0,.26.32,0,0,.26.33,0,0,.25.33,0,0,.25.33,0,0,.25.33,0,.05.25.34,0,0,.25.33,0,0,.24.34,0,0,.24.34,0,0,.24.34,0,.05.23.34,0,0,.23.35,0,0,.22.34,0,0,.22.34,0,0,.23.35,0,0,.22.35,0,.05.21.35,0,.05.22.35,0,0,.21.35,0,0,.21.36,0,0,.2.36,0,0,.2.36,0,0,.2.36,0,0,.2.36,0,.05.2.37,0,.05.19.37,0,0,.19.37,0,0,.18.38,0,0,.19.37,0,.05.18.37,0,0,.17.38,0,.05.17.38,0,.05.17.38,0,0,.17.38,0,0,.16.38,0,.05.16.38,0,.05.15.39,0,.05.15.38,0,.05.15.39,0,.05.15.39,0,.05.15.39,0,.05.14.39,0,.05.13.39,0,.05.13.39,0,.05.13.39,0,0,.13.4v.05l.12.39,0,.05.12.4v.05l.12.4,0,0,.12.4,0,.05.11.4,0,0,.11.4v.05l.1.4,0,.06.11.41v.05l.1.41,0,.05.09.41,0,0,.1.41v.06l.09.41v0l.09.41v.05l.08.41v.05l.08.41v0l.08.41v0l.07.42v0l.07.41v.06l.07.42v.06l.06.42v.06l.06.41v0l0,.22v0l0,.21v0l0,.21v0l0,.21v0l0,.21v0l0,.21v0l0,.21v0l0,.21v0l0,.21v0l0,.21v0l0,.21v0l0,.21v0l0,.21v0l0,.21v0l0,.21v0l0,.21v.52l0,.22V371.32l0,.23v0l0,.23v0l0,.22v.28l0,.22v0l0,.22v0l0,.22v0l0,.22v0l0,.23v0l0,.22v0l0,.22v0l0,.22v0l0,.22v0l0,.22v0l0,.22v0l0,.23v0l0,.22v0l0,.22v0l0,.22v0l0,.22v0l0,.22v0l0,.22v0l0,.22v0l0,.22v0l0,.22v0l0,.22v0l0,.22v0l0,.22v0l0,.22v0l0,.21v0l0,.21v0l0,.22v0l-.05.22v0l-.05.22v0l0,.21v0l-.05.22v0l0,.22v0l-.05.21v0l0,.21v0l-.05.21v0l-.05.21v0l-.05.21v0l-.05.21v0l-.05.21v0l-.06.21v0l-.05.21v0l-.06.21v0l-.06.22v0l-.06.21v0l-.06.21v0l-.06.21v0l-.06.22v0l-.06.21v0l-.06.21v0l-.07.21v0l-.06.21v0l-.06.21v0l-.06.21v0l-.07.21v0l-.07.21v0l-.07.21v0l-.07.21v0l-.07.21v0l-.07.21v0l-.07.21v0l-.07.21v0l-.07.21v0l-.07.21v0l-.08.2v0l-.07.2v0l-.07.2v0l-.07.21v0l-.08.21v0l-.08.2v0l-.08.2v0l-.08.2v0l-.08.2v0l-.08.2v0l-.08.2v0l-.09.2v0l-.09.21v0l-.08.2v0l-.09.2v0l-.09.2v0l-.09.2v0l-.09.2v0l-.09.2v0l-.09.2v0l-.09.2v0l-.09.2v0l-.1.2v0l-.1.19v0l-.09.2v0l-.1.19v0l-.09.2v0l-.1.2v0l-.1.2v0l-.1.19v0l-.1.2v0l-.1.2v0l-.1.2,0,0-.1.19v0l-.1.2v0l-.1.2v0l-.11.19,0,0-.11.19v0l-.11.19v0l-.11.19v0l-.11.19v0l-.11.19v0l-.11.19v0l-.11.19v0l-.11.19,0,0-.11.19,0,0-.11.19v0l-.11.19v0l-.12.19v0l-.11.18v0l-.11.18,0,0-.12.19v0l-.12.18,0,0-.12.18v0l-.12.19,0,0-.12.18,0,0-.12.18v0l-.12.19v0l-.12.18,0,0-.13.18v0l-.12.18v0l-.13.18v0l-.12.18,0,0-.12.18,0,0-.13.18,0,0-.12.18v0l-.13.18,0,0-.12.18,0,0-.13.18,0,0-.13.18,0,0-.13.18,0,0-.13.18v0l-.13.17,0,0-.13.17v0l-.14.17,0,0-.13.17v0l-.13.18,0,0-.14.18,0,0-.14.17,0,0-.14.17v0l-.14.17,0,0-.14.17,0,0-.14.17,0,0-.14.17,0,0-.14.17v0l-.14.17,0,0-.15.17,0,0-.14.17,0,0-.14.17,0,0-.14.17,0,0-.14.17,0,0-.14.16,0,0-.15.17,0,0-.14.17,0,0-.15.17,0,0-.14.17,0,0-.15.16,0,0-.15.16,0,0-.15.16,0,0-.15.16,0,0-.15.16,0,0-.15.16,0,0-.15.16,0,0-.15.16,0,0-.16.16,0,0-.15.16,0,0-.15.15,0,0-.16.16,0,0-.16.16,0,0-.16.15,0,0-.16.16,0,0-.16.15,0,0-.16.15,0,0-.16.15,0,0-.16.15,0,0-.16.15,0,0-.16.15,0,0-.17.15h0l-.16.15,0,0-.17.15,0,0-.17.15h0l-.17.15,0,0-.17.14,0,0-.17.14,0,0-.17.15,0,0-.17.15,0,0-.17.15,0,0-.17.14,0,0-.18.14h0l-.17.14,0,0L342,414l0,0-.17.14,0,0-.17.14,0,0-.17.14,0,0-.18.14,0,0-.17.13,0,0-.18.14,0,0-.18.14,0,0-.18.14,0,0-.18.14h0l-.18.13h0l-.18.13h0l-.18.13h0l-.18.13,0,0-.18.13,0,0-.18.13,0,0-.18.13,0,0-.18.13h0l-.19.13h0l-.19.13,0,0L338,417l0,0-.19.12,0,0-.19.13,0,0-.18.13,0,0-.19.12h0l-.19.12h0l-.19.12,0,0-.19.12,0,0-.19.12h0l-.19.12h0l-.19.12,0,0-.19.12h0l-.19.12,0,0-.19.12,0,0-.2.12,0,0-.19.11h0l-.19.11,0,0-.2.12,0,0-.2.11,0,0-.19.11h0l-.2.11h0l-.2.11h0l-.19.11h0l-115.93,64.6h0l-.18.11h0l-.19.11,0,0-.19.1h0l-.19.1h0l-.19.1h0l-.19.1h0l-.19.1h0l-.19.1h0l-.19.1h0l-.19.09h0l-.2.1,0,0-.19.1h0l-.19.09h0l-.19.09h0l-.19.1h0l-.2.09h0l-.19.09h0l-.2.09h0l-.19.09h0l-.19.09,0,0-.2.09h0l-.2.08h0l-.2.09,0,0-.2.09h0l-.19.08h0l-.2.09h0l-.2.08h0l-.2.08h0l-.2.08h0l-.2.08h0l-.2.08h0l-.19.08h0l-.2.07h0l-.2.08h0l-.2.08h0l-.2.08h0l-.2.07h0l-.2.08h0l-.2.07h0l-.2.07h0l-.2.07h0l-.2.07h0l-.2.07h0l-.2.07-.2.07h0l-.21.06h0l-.2.06h0l-.2.07h0l-.21.06h0l-.2.06h0l-.2.06h0l-.21.07h0l-.4.12-.05,0-.41.12h0l-.41.12h0l-.41.11-.05,0-.41.11h-.05l-.41.11H203l-.41.1h0l-.41.1h-.06l-.41.1h0l-.41.09h-.05l-.42.09h-.06l-.42.09h0l-.42.08h0l-.41.07h-.05l-.41.08h-.05l-.42.07h-.05l-.42.07h-.05l-.42.06h-.05l-.42.06h-.05l-.42.06h-.05l-.42.06H196l-.42.05h0l-.42.05h0l-.42.05-.42,0h-.05l-.42,0h-.05l-.42,0h-.05l-.42,0h-.05l-.42,0h-.06l-.42,0h0l-.42,0h0l-.42,0h-4.23l-.42,0h0l-.42,0h0l-.42,0h0l-.42,0h0l-.42,0h0l-.42,0h-.06l-.42,0h-.06l-.42,0h0l-.42,0h0l-.42,0h0l-.42-.05h-.06l-.42-.05H181l-.42-.06h-.05l-.42-.06H180l-.42-.06h-.05l-.42-.06h0l-.41-.07h0l-.42-.08h0l-.41-.08h-.05l-.41-.08h-.05l-.41-.08h-.06l-.42-.08h-.05l-.41-.09-.06,0-.41-.09h-.05l-.41-.1,0,0-.41-.1-.05,0-.41-.11H174l-.41-.11,0,0-.41-.11,0,0-.41-.11-.05,0-.41-.12-.06,0-.41-.12-.05,0-.41-.12,0,0-.41-.12h-.05l-.4-.13h0l-.21-.07h0l-.2-.06h0l-.2-.07h0l-.2-.07h0l-.2-.07h0l-.2-.07h0l-.2-.07h0l-.2-.07h0l-.2-.07h0l-.2-.08h0l-.2-.08h0l-.2-.08h0l-.2-.08h0l-.2-.08h0l-.2-.08h0l-.2-.08h0l-.2-.08h0l-.2-.08h0l-.2-.08h0l-.2-.08h0l-.2-.08h0l-.2-.08h0l-.2-.09h0l-.19-.09h0l-.2-.09h0l-.2-.09h0l-.2-.08h0l-.19-.09h0l-.2-.09h0l-.19-.09,0,0-.19-.09h0l-.19-.09h0L163,486l0,0-.2-.1,0,0-.19-.09h0l-.2-.09,0,0-.19-.1h0l-.2-.1h0l-.19-.1h0l-.19-.1h0l-.19-.1,0,0L161,485h0l-.19-.1h0l-.19-.1,0,0-.19-.1h0l-.19-.11,0,0-.19-.1h0l-.19-.1h0l-.19-.1h0l-.19-.11h0l-.18-.11h0l-.18-.11h0L54,422.67h0l-.22-.13h0l-.22-.13h0l-.23-.13h0l-.22-.14h0l-.22-.14,0,0-.22-.14,0,0-.22-.14h0l-.22-.13,0,0-.22-.14,0,0-.22-.14h0l-.22-.14,0,0-.22-.14,0,0-.22-.14,0,0-.22-.15,0,0-.22-.15,0,0-.22-.14,0,0L50,420l0,0-.22-.15,0,0-.21-.15,0,0-.22-.15,0,0-.21-.15,0,0-.21-.15,0,0-.21-.15h0l-.21-.15,0,0-.21-.15,0,0-.2-.15h0l-.21-.15,0,0-.21-.16,0,0-.21-.15,0,0-.21-.16,0,0-.2-.16,0,0-.2-.16h0l-.2-.16,0,0-.2-.16,0,0-.2-.16,0,0-.2-.16,0,0-.2-.16,0,0-.2-.16,0,0-.2-.17h0l-.2-.16,0,0-.19-.16,0,0-.2-.17,0,0-.2-.16,0,0-.2-.17h0l-.2-.16,0,0-.19-.16,0,0-.19-.17,0,0-.19-.17,0,0-.19-.17,0,0-.19-.17,0,0-.19-.17,0,0-.19-.18h0l-.19-.17,0,0-.18-.18,0,0-.19-.17,0,0-.19-.18,0,0-.18-.18,0,0-.18-.18,0,0-.19-.18,0,0-.19-.18h0L40.3,412l0,0-.18-.18,0,0-.18-.18,0,0-.18-.18,0,0-.18-.18,0,0L39.3,411l0,0-.17-.18,0,0-.18-.18,0,0-.18-.19,0,0-.17-.19,0,0-.17-.19,0,0-.18-.19,0,0-.17-.19,0,0-.17-.19,0,0-.17-.19,0,0-.17-.19,0,0-.17-.19v0l-.16-.19,0,0-.17-.19,0,0-.18-.2,0,0-.17-.19,0,0-.17-.2,0,0-.16-.19v0l-.16-.19,0,0-.16-.2,0,0-.17-.2,0,0-.16-.19,0,0-.17-.19,0,0-.16-.19,0,0-.16-.2,0,0-.16-.2,0,0-.16-.2,0,0-.16-.2,0,0-.16-.2v0l-.15-.2,0,0-.15-.2v0l-.15-.2,0,0-.15-.21,0,0-.15-.2,0,0-.15-.2v0l-.15-.21v0l-.15-.21v0l-.15-.2v0l-.15-.2,0,0-.15-.21,0,0-.15-.21,0,0-.14-.21,0,0-.14-.21,0,0-.14-.21,0,0-.14-.21v0l-.14-.21,0,0-.14-.21,0,0-.14-.21,0,0-.14-.21,0,0-.14-.21,0,0-.13-.21v0l-.13-.21,0,0-.14-.21,0,0-.14-.21v0l-.14-.22v0l-.13-.21,0,0-.13-.21,0,0-.13-.22,0,0-.13-.21v0l-.13-.22v0l-.13-.21,0,0-.13-.22,0,0-.13-.22,0,0-.12-.22,0,0-.13-.22v0l-.12-.22v0l-.12-.22v0l-.12-.22,0,0-.12-.22v0l-.12-.23v0l-.12-.22v0l-.12-.22v0l-.12-.22v0l-.11-.23v0l-.12-.23v0L27,394l0,0-.11-.23v0l-.11-.22v0l-.11-.23h0l-.11-.23,0,0-.11-.23v0l-.11-.22v0l-.11-.23v0L26,392v0l-.1-.23v0l-.11-.23v0l-.11-.23v0l-.11-.23v0l-.1-.23v0l-.11-.23v0l-.11-.23v0l-.1-.23v0l-.1-.23v0l-.1-.23v0l-.09-.23v0l-.1-.23v0l-.09-.24v0l-.1-.23v0l-.09-.22v0l-.1-.24v0l-.09-.24v0l-.09-.24v0l-.09-.24v0l-.09-.24v0l-.09-.24v0l-.08-.24v0l-.09-.24v0l-.08-.24v0l-.08-.24v0l-.09-.24v0L23.2,385v0l-.08-.24v0l-.08-.24v0l-.08-.24v0l-.08-.24v0l-.08-.24v0l-.08-.24v0l-.07-.24v0l-.08-.25v0l-.07-.25v0l-.07-.24v0l-.07-.24v0l-.07-.25v0l-.07-.25v0L22,381.2h0l-.07-.25v0l-.06-.24v0l-.06-.24v0l-.07-.25v0l-.06-.24v0l-.06-.24v0l-.06-.25h0l-.06-.25v0l-.06-.25v0l-.06-.25v0l-.06-.25h0l-.06-.25v0l-.06-.25v0l-.05-.25v0l-.06-.25v0L21,376.9v0l-.05-.25v0l-.05-.25,0-.25v0l-.05-.26v0l-.05-.25v0l-.06-.24v0l-.05-.27v0l-.05-.26v0l0-.25v0l0-.25v0l0-.25v0l0-.25v0l0-.25h0l0-.25v0l0-.25v0l0-.25v0l0-.25v0l0-.26v0l0-.25v0l0-.26v0l0-.25v0l0-.26v0l0-.26v0l0-.26v0l0-.26v0l0-.26v0l0-.26,0-.26v0l0-.26v0l0-.26v0l0-.26v0l0-.26v0l0-.26v0l0-.26,0-.26v0l0-.26v0l0-.26V234.15l0-.27v0l0-.26v-.31l0-.26v-.61l0-.26v0l0-.26v0l0-.26v0l0-.26v0l0-.26v0l0-.26v0l0-.26v0l0-.26v0l0-.26v0l0-.26v0l0-.26v0l0-.26v0l0-.25v0l0-.26v0l0-.26v0l0-.25v0l0-.26v0l0-.26v0l0-.25v0l0-.26v0l0-.26v0l0-.26v0l0-.25v0l0-.25v0l.07-.26v0l0-.25v0l.05-.25v0l.05-.25v0l.05-.26v0l.05-.25v0l0-.25v0l.05-.25v0l.05-.25v0l.05-.25v0l.05-.25v0l.05-.25v0l.06-.25v0l.06-.25v0l.05-.25v0l.06-.25v0l.06-.25v0l.06-.25v0l.06-.25v0l.06-.25v0l.06-.25v0l.07-.25v0l.07-.25v0l.07-.25v0l.07-.25v0l.07-.25v0l.07-.24v0l.07-.25v0l.07-.25v0l.07-.24v0l.08-.25v0l.07-.24v0l.07-.24v0l.07-.25v0l.08-.25v0l.08-.24v0l.08-.24v0l.08-.24v0l.08-.24v0l.08-.24v0l.08-.24v0l.08-.24v0l.09-.24v0l.08-.24v0l.08-.24v0l.09-.24v0l.09-.24v0l.09-.24v0l.09-.24v0l.09-.24v0l.09-.24v0l.1-.23v0l.1-.24v0l.1-.24v0l.1-.24v0l.1-.24v0l.1-.24v0l.1-.24v0l.1-.24v0l.1-.23v0l.1-.23v0l.1-.24v0l.11-.24v0l.11-.23v0l.1-.23v0l.11-.23v0l.11-.23v0l.11-.23v0l.11-.23v0l.11-.23v0l.11-.23v0l.11-.23v0l.11-.23v0l.11-.23v0l.11-.23v0l.12-.22v0l.12-.23,0,0,.12-.23v0l.12-.23v0l.12-.22v0l.12-.22v0l.12-.22v0l.12-.22,0,0,.12-.22v0l.12-.22,0,0,.12-.22v0l.12-.22,0,0,.13-.22v0l.12-.22v0l.13-.22v0l.13-.22v0l.13-.22,0,0,.13-.22v0l.13-.22,0,0,.13-.22v0l.13-.22,0,0,.13-.22v0l.14-.22,0,0,.14-.22v0l.13-.21,0,0,.14-.21,0,0,.13-.22v0l.14-.21v0l.14-.21,0,0,.14-.22,0,0,.14-.21v0l.14-.21v0l.14-.21v0l.15-.21,0,0,.14-.21,0,0,.15-.21v0l.15-.21v0l.15-.21v0l.15-.21,0,0,.15-.21v0l.15-.21,0,0,.15-.2v0l.15-.21,0,0,.15-.2,0,0,.15-.2,0,0,.15-.2,0,0,.15-.2v0l.15-.2,0,0,.16-.2,0,0,.16-.2,0,0,.16-.2,0,0,.16-.2,0,0,.16-.2,0,0,.16-.2v0l.16-.2,0,0,.16-.2,0,0,.16-.19,0,0L36,192l0,0,.16-.2,0,0,.17-.19,0,0,.16-.2,0,0,.16-.19,0,0,.16-.2,0,0,.17-.2v0l.17-.19,0,0,.17-.19,0,0,.17-.19,0,0,.17-.19v0l.17-.19,0,0,.17-.19,0,0,.17-.19v0l.17-.19,0,0,.18-.19v0l.18-.19,0,0,.19-.18,0,0,.18-.19,0,0,.18-.19,0,0,.18-.18,0,0,.18-.18,0,0,.18-.18,0,0,.19-.18,0,0,.18-.18,0,0,.18-.18,0,0,.18-.18,0,0,.18-.18,0,0,.18-.18,0,0,.18-.18,0,0,.18-.18,0,0,.19-.17,0,0,.19-.17,0,0,.19-.18,0,0,.19-.18h0l.19-.17h0l.19-.17,0,0,.19-.17,0,0,.19-.17,0,0,.19-.17h0l.2-.17,0,0,.2-.17,0,0,.2-.17,0,0,.2-.16,0,0,.2-.16,0,0L45,183l0,0,.2-.16,0,0,.2-.16h0l.2-.16,0,0,.2-.16,0,0,.2-.16,0,0,.21-.16,0,0,.2-.16,0,0,.21-.16,0,0,.21-.16,0,0,.2-.16h0l.21-.16,0,0,.2-.16,0,0,.21-.15,0,0,.21-.16,0,0,.21-.15h0l.21-.15,0,0,.21-.15h0l.21-.15,0,0,.21-.16h0l.22-.15,0,0,.21-.15h0l.21-.15h0l.21-.15h0l.22-.15,0,0,.21-.15h0l.22-.14h0l.21-.15,0,0,.22-.14,0,0,.22-.15,0,0,.22-.14h0l.22-.14,0,0,.22-.14h0l.22-.14h0l.22-.14h0l.22-.14h0l.22-.13h0l100.51-62h0l.21-.13h0l.22-.14,0,0,.22-.13,0,0,.22-.13,0,0,.22-.13h0l.23-.13,0,0,.22-.13h0l.22-.13h0l.23-.12,0,0,.23-.12,0,0,.22-.12h0l.23-.12,0,0,.22-.12,0,0,.22-.12,0,0,.22-.12,0,0,.23-.12h0l.22-.12h0l.22-.12h0l.23-.12h0l.23-.12h0l.23-.11h0l.23-.11h0l.22-.11h0l.23-.11h0l.23-.11h0l.23-.11,0,0,.23-.11h0l.23-.11h0l.23-.1h0l.23-.1,0,0,.23-.1h0l.23-.1,0,0,.23-.1h0l.23-.1h0l.23-.1h0l.23-.1h0l.23-.1h0l.23-.09h0l.23-.1h0l.24-.1h0l.24-.1,0,0,.23-.09h0l.24-.09h0l.23-.09h0l.24-.09h0l.24-.08h0l.24-.09h0l.24-.09h0l.24-.08h0l.24-.08h0l.23-.08h0l.24-.08h0l.23-.08h0l.24-.08h0l.24-.08h0l.24-.08h0l.24-.08h0l.24-.07h0l.24-.07h0l.24-.07h0l.24-.07h0l.24-.07h0l.24-.07h0l.24-.07h0l.24-.07h0l.24-.07h0l.24-.06h0l.24-.06h0l.24-.07h0l.25-.06h0l.24-.07h0l.25-.06h0l.25-.06h0l.24-.06h0l.25-.06h0l.24-.06h0l.24-.05h0l.24-.06h0l.24,0h0l.24,0h0l.24,0h0l.24,0h0l.25,0h0l.25,0h0l.25,0h0l.25,0h0l.25,0h0l.24,0h0l.25,0h0l.25,0h0l.24,0h0l.25,0h0l.24,0h0l.24,0h0l.25,0h0l.25,0h0l.25,0h0l.25,0h0l.25,0h0l.24,0h0l.25,0h0l.25,0h0l.25,0h0l.24,0h0l.24,0h0l.25,0h0l.25,0h0l.24,0h0l.25,0h0l.25,0h0l.25,0h0l.24,0h0l.25,0h.31l.25,0h.3l.25,0h3.92Zm-.23,27H186l-.17,0-.17,0-.16,0-.17,0-.17,0-.17,0-.16,0-.17,0-.16,0-.16,0-.17,0-.16,0-.16,0-.16,0-.16,0-.17,0-.16,0-.16,0-.17,0-.16,0-.16,0-.16,0-.16,0-.16,0-.16,0-.16,0-.17,0-.16,0-.17,0-.16,0-.16,0-.16,0-.16,0-.16,0-.16,0-.16,0-.16,0-.16,0-.16,0-.16,0-.16,0-.16,0-.16,0-.16,0-.16,0-.16,0-.16,0-.16.05-.16,0-.16.05-.15,0-.16.05-.16.05-.16,0-.16.05-.16,0-.15.05-.16.05-.16.06-.16,0-.16.05-.16.06-.16,0-.16.05-.15,0-.16.06-.16.06-.16.06-.15.06-.16.06-.15.06-.15.06-.16.07-.16.06L174,135l-.16.06-.15.07-.15.06-.16.07-.15.07-.15.07-.15.07-.16.07-.15.07-.16.07-.15.07-.15.07-.15.07-.16.07-.15.07-.15.07-.15.08-.15.08-.15.07-.15.08-.15.07-.15.08-.15.08-.15.08-.15.08-.15.08-.15.09-.14.08-.15.08-.14.08-.15.09-.15.09-.15.09-.14.08-.15.09-.14.09-.15.09-.15.09-.16.1L67.69,199.93l-.17.11-.16.1-.15.1-.15.1-.15.1-.15.1-.15.1-.15.1-.15.1-.15.1L66,201l-.15.1-.15.11-.14.1-.14.1-.15.1-.14.1-.14.1-.14.1-.14.1-.14.1-.14.1-.14.11-.14.1-.14.11-.14.11-.14.11-.14.11-.14.11-.14.11-.13.11-.14.11-.14.11-.13.11-.14.11-.14.11-.13.11-.14.11-.13.11-.13.11-.13.12-.13.12-.13.11-.13.11-.13.12-.13.12-.13.12-.13.12-.13.12-.13.12-.13.12-.13.12-.13.12-.13.12-.13.12-.12.12-.13.12-.12.13-.13.12-.12.13-.12.12-.12.13-.12.12-.12.13-.12.13-.13.13-.12.12-.12.13-.12.13-.12.13-.11.13-.12.13-.12.13-.12.13-.12.14-.12.13-.11.13-.11.13-.12.14-.11.13-.12.13-.11.14-.11.13-.11.14-.11.14-.11.14-.11.14-.11.14-.11.14-.1.14-.11.14-.11.14-.11.14-.11.14-.1.14-.1.14-.1.14-.1.15-.1.14-.1.14-.1.15-.1.14-.1.14-.1.14-.1.14-.09.15-.1.15-.1.14-.1.15-.09.15-.09.14-.09.15-.09.15-.09.15-.09.15-.1.15-.1.15-.09.15-.09.15-.09.15-.09.15-.09.15-.09.15-.09.15-.09.15-.09.15-.09.15-.09.16-.09.15-.09.15-.09.16-.08.15-.08.16-.08.16-.08.16-.08.15-.08.15-.08.16-.08.15-.08.16-.07.15-.08.16-.08.16-.08.16-.08.16-.08.16-.07.16-.07.16-.07.16-.07.16-.07.16-.07.16-.07.16-.07.16-.07.16-.06.16-.07.16-.07.17-.07.16-.07.16-.07.16-.06.16-.07.17-.07.16-.06.16-.06.17-.06.16-.06.17-.06.16-.06.17-.06.17-.06.17-.05.17-.06.16-.06.17-.05.17,0,.16,0,.17-.06.17-.05.16,0,.16,0,.17-.06.17,0,.17-.05.16,0,.17-.05.17,0,.17,0,.17-.05.17,0,.17,0,.17,0,.17,0,.17,0,.17,0,.17,0,.17,0,.18,0,.17,0,.17,0,.17,0,.17,0,.17,0,.17,0,.17,0,.17,0,.17,0,.18,0,.18,0,.18,0,.18,0,.17,0,.17,0,.18,0,.18,0,.17,0,.17,0,.17,0,.18,0,.18,0,.18,0,.17,0,.18,0,.17,0,.18,0,.18,0,.18,0,.18,0,.18,0,.18,0,.17,0,.18,0,.18v.18l0,.18,0,.18V366l0,.18v.54l0,.17,0,.18,0,.17v.18l0,.17,0,.17,0,.17,0,.17,0,.18,0,.17,0,.17,0,.18,0,.18,0,.17,0,.18,0,.17,0,.17,0,.17,0,.17,0,.18,0,.17,0,.17,0,.17,0,.17,0,.17,0,.17,0,.17,0,.17,0,.17,0,.17,0,.17,0,.17,0,.17,0,.17,0,.17,0,.17,0,.17,0,.17,0,.16.05.16,0,.17,0,.17,0,.17,0,.17,0,.16,0,.17,0,.16,0,.17,0,.16.05.17,0,.17,0,.16.05.17,0,.17.05.16,0,.17.06.16.06.16.06.16.06.16,0,.16.06.17.06.16.06.16.06.16.06.16.06.16.06.16.06.16.06.16.06.16.07.16.07.16.06.16.06.16.06.16.06.16.06.16.07.16.07.16.07.16.07.16.07.16.07.16.07.16.07.16.07.16.07.16.07.16.07.15.08.16L51,382l.08.16.08.15.08.15.08.15.08.15.08.15.08.15.09.15.08.15.08.15.08.15.09.15.09.15.08.15.08.15.08.15.09.15.08.15.09.14.09.15.09.14.09.15.09.15.09.14.09.14.09.14.09.14.09.15.09.15.1.14.09.14.09.15.09.14.09.14.1.14.1.14.1.15.1.14.1.14.1.14.1.14.1.14.1.14.1.14.11.14.11.14.1.14.1.14.1.14.1.14.11.13.11.13.11.14.11.13.11.14.11.13.11.13.11.13.11.13.11.13.11.13.11.13.11.13.11.13.11.13.11.13.12.13.12.13.11.13.12.12.12.13.12.12.12.13.11.13.12.13.12.12.12.12.12.12.12.12.12.13.12.12.12.12.12.12.12.12.12.12.13.12.12.12L60,394l.13.12.12.12.12.12.13.12.13.11.13.11.13.12L61,395l.13.11.13.11.13.12.13.12.13.11.14.11.14.11.14.11.13.11.13.11.14.11.13.11.14.1.13.11.14.11.14.11.14.11.13.1.14.11.14.1.14.11.14.11.14.1.14.1.15.1.14.1.14.1.14.1.14.1.14.1.14.1.15.1.15.09.15.1.14.1.15.1.15.1.14.09.15.09.15.09.15.09.15.09.15.09.16.09.15.09.15.09.17.1L172.31,461l.13.08.11.06.12.06.12.06.12.06.11.07.12.06.12.06.12.06.12.07.12.06.12.06.12.06.12.06.12.06.12.06.12.06.12.06.11.06.12.06.12.06.12,0,.12.06.12.05.12.05.12.05.12.06.12.06.12.05.12.06.12.05.12.05.12.05.12.05.12,0,.12.05.12.05.12.05.12.05.12,0,.13.05.12.05.12.05.12.05.12,0,.12,0,.12.05.12,0,.12,0,.13,0,.12,0,.11,0,.26.08.25.08.25.07.25.07.25.07.25.07.25.07.25.07.25.07.25.06.25.06.25.06.25.05.25.06.25.05.25.05.25,0,.25,0,.25.05.25,0,.25,0,.26,0,.25,0,.26,0,.26,0,.26,0,.26,0,.25,0,.26,0,.25,0,.26,0,.26,0,.25,0H190l.26,0,.26,0h.26l.26,0,.26,0,.26,0,.25,0,.26,0,.26,0,.25,0,.26,0,.25,0,.26,0,.25,0,.26,0,.25,0,.25-.05.25,0,.26,0,.25-.05.25-.06.25-.05.25-.06.25-.06.25-.06.25-.06.25-.07.25-.07.25-.07.25-.07.26-.08.12,0,.12,0,.12,0,.13,0,.12,0,.13,0,.12,0,.12,0,.13,0,.12,0,.12,0,.13,0,.12,0,.13,0,.12,0,.12,0,.12,0,.12,0,.13-.05.12,0,.12-.05.12,0,.12-.05.12-.05.12-.05.12-.05.12,0,.12-.05.12-.05.12-.05.12-.06.12-.06.12-.05.12-.06.12-.06.12-.05.12-.06.12-.06.12-.06.11-.06.12-.06.12-.06.12-.06.12-.06.12-.06.12-.06.12-.06.12-.06.11-.06.12-.06.12-.06.13-.07,116-64.63.14-.07.13-.07.12-.07.12-.07.12-.07.12-.08.13-.07.12-.07.12-.07.12-.07.12-.08.12-.08.12-.07.12-.07.12-.07.12-.08.12-.08.12-.07.12-.08.12-.07.11-.08.11-.08.11-.08L323,395l.11-.08.12-.08.11-.08.12-.08.11-.08.11-.08.11-.08.11-.08.11-.08.12-.08.11-.09.11-.08.11-.09.11-.08.11-.09.11-.09.11-.09.11-.08.11-.08.11-.09.1-.09.11-.09.11-.09.1-.08.11-.09.11-.1.1-.09.11-.09.1-.09.1-.09.1-.1.11-.09.1-.1.1-.09.1-.1.1-.1.1-.09.1-.1.1-.09.1-.1.1-.1.1-.1.1-.1.09-.1.1-.1.09-.1.1-.1.1-.1.1-.1.09-.1.09-.1.09-.1.09-.1.1-.1.09-.1.09-.1.09-.1.09-.1.09-.1.09-.1.09-.1.09-.11.09-.11.09-.11.09-.1.09-.1.09-.1.09-.11.09-.1.09-.11.08-.1.08-.11.08-.11.08-.1.09-.11.08-.11.08-.11.08-.11.08-.11.08-.11.08-.11.08-.11.08-.11.08-.11.08-.11.08-.11.08-.11.07-.11.07-.12.08-.12.08-.11.07-.11.07-.11.08-.12.08-.11.07-.11.07-.12.07-.12.07-.12.07-.12.07-.11.07-.12.07-.12.07-.11.07-.12.07-.12.07-.12.06-.12L333,384l.07-.12.07-.12.06-.12.07-.12.07-.12.06-.12.06-.12.06-.13.06-.12.07-.12.07-.12.06-.12.06-.12.06-.12.06-.13.06-.12.06-.12.06-.13.06-.12.06-.12.06-.13.06-.13.06-.13.06-.12,0-.12.05-.13.05-.13.05-.13.05-.12,0-.13.05-.13.05-.13.05-.12.05-.13,0-.13.05-.13.05-.13.05-.13,0-.13,0-.13,0-.13,0-.13.05-.13.05-.13.05-.13.05-.13,0-.13.05-.13,0-.13,0-.13.05-.13,0-.13,0-.13,0-.13,0-.13,0-.13,0-.13,0-.13,0-.13,0-.13,0-.13,0-.14,0-.13,0-.13,0-.14,0-.13,0-.13,0-.13,0-.13,0-.14,0-.13,0-.13,0-.14,0-.14,0-.13,0-.14,0-.13,0-.14,0-.14,0-.13,0-.14,0-.14,0-.14,0-.13,0-.13,0-.14,0-.14,0-.14,0-.14,0-.14,0-.14,0-.14v-.14l0-.13v-.14l0-.14,0-.13,0-.14v-.56l0-.14V228.12l0-.13v-.24l0-.12v-.12l0-.13v-.12l0-.12,0-.13v-.25l0-.11,0-.27,0-.25,0-.26,0-.25-.05-.25-.05-.25,0-.25-.05-.25-.06-.25-.06-.25-.06-.25-.06-.25-.06-.25-.06-.25-.06-.25-.07-.25-.07-.25-.07-.25-.08-.25-.07-.24-.08-.24-.08-.24-.08-.24-.08-.24-.09-.24-.09-.24-.09-.23-.09-.24-.09-.24-.09-.24-.1-.23-.09-.24-.1-.23-.1-.23-.1-.23-.11-.23-.1-.23-.11-.23-.11-.23-.11-.22-.12-.23-.11-.23-.12-.23-.12-.22-.12-.22-.12-.22-.12-.22-.12-.22-.13-.22-.13-.22-.13-.22-.14-.22-.13-.21-.13-.21-.14-.21-.14-.21-.14-.21-.14-.21-.14-.21-.14-.21-.15-.2-.15-.2-.15-.2-.15-.2-.15-.2-.16-.2-.16-.2-.16-.2-.16-.2-.16-.19-.17-.19-.16-.19-.17-.19-.17-.19-.17-.19-.17-.19-.17-.19-.18-.18-.18-.18-.18-.18-.18-.18-.18-.18-.19-.18-.19-.18-.19-.17-.19-.17-.19-.17-.19-.17-.19-.17-.2-.17-.2-.16-.2-.16-.19-.16-.21-.17-.09-.07-.1-.08-.1-.08L325,206l-.1-.08-.1-.07-.1-.08-.1-.08-.11-.08-.11-.08-.1-.08-.1-.08-.1-.08-.1-.07-.1-.08-.11-.08-.1-.07-.1-.07-.11-.08-.11-.07-.11-.07-.1-.07-.11-.07-.11-.07-.11-.07-.11-.07-.11-.07-.11-.07-.11-.07-.11-.07-.11-.07-.11-.06-.11-.06-.13-.07L208.65,137.45l-.16-.1-.14-.08-.15-.09-.15-.09-.15-.08-.15-.08-.14-.08-.15-.08-.15-.08-.15-.08-.15-.08-.15-.08-.15-.08-.15-.08-.15-.08-.15-.08-.15-.08L206,136l-.15-.08-.15-.07-.15-.07-.15-.08-.16-.07-.15-.07-.15-.07-.15-.07-.15-.07-.15-.06-.16-.07-.15-.07-.15-.07-.16-.06-.15-.06-.16-.06-.15-.07-.16-.06-.16-.07-.16-.06-.15-.06-.16-.06-.15-.06-.16-.06-.16-.06-.15-.06-.15,0-.15-.05-.16-.06-.16,0-.15-.05L201,134l-.16,0-.15-.05-.16,0-.16-.05-.16-.05-.15,0-.16-.05-.16,0-.16-.05-.16,0-.16-.05-.16,0-.16-.05-.16,0-.16,0-.16,0-.16,0-.16,0-.16,0-.16,0-.16,0-.16,0-.16,0-.16,0-.16,0-.16,0-.16,0-.16,0-.16,0-.16,0-.16,0-.16,0-.16,0-.16,0-.17,0-.16,0-.16,0-.16,0-.16,0-.16,0-.16,0-.16,0-.17,0-.16,0-.16,0-.16,0-.16,0-.16,0-.16,0-.16,0-.17,0h-.16l-.16,0-.16,0h-3.55Z" transform="translate(-19.45 -105.04)" fill="#426db4" fill-rule="evenodd"/><text transform="translate(384.24 253.25) scale(0.9 1)" font-size="176" fill="#426db4" font-family="Arial-Black, Arial Black" font-weight="800" letter-spacing="0.02em">Hugo<tspan x="512.86" y="0" letter-spacing="-0.02em"> </tspan><tspan x="568.04" y="0" font-size="140" letter-spacing="0.02em" opacity="0.75">In Action</tspan></text></svg>