<?xml version="1.0" encoding="utf-8"?>
<!-- Generator: Adobe Illustrator 26.0.3, SVG Export Plug-In . SVG Version: 6.00 Build 0)  -->
<svg version="1.1" id="Layer_1" xmlns="http://www.w3.org/2000/svg" xmlns:xlink="http://www.w3.org/1999/xlink" x="0px" y="0px"
	 viewBox="0 0 1082.27 386.91" style="enable-background:new 0 0 1082.27 386.91;" xml:space="preserve">
<style type="text/css">
	.st0{fill-rule:evenodd;clip-rule:evenodd;fill:#F0EFF8;}
	.st1{fill:#426DB4;}
	.st2{fill-rule:evenodd;clip-rule:evenodd;fill:#426DB4;}
	.st3{font-family:'Arial-Black';}
	.st4{font-size:176px;}
	.st5{letter-spacing:3.33;}
	.st6{opacity:0.75;fill:#426DB4;}
	.st7{font-size:140px;}
	.st8{letter-spacing:2.22;}
</style>
<path class="st0" d="M331.3,248.18V125.93c0-15.9-8.42-30.61-22.13-38.66c-29.42-17.28-81.39-47.82-113.21-66.52
	c-16.81-9.87-37.69-9.65-54.28,0.58C113.51,38.7,69.56,65.8,41.19,83.3c-17.11,10.55-27.53,29.21-27.53,49.31v125.17
	c0,19.94,10.58,38.38,27.79,48.44l104.72,61.21c13.92,8.14,31.11,8.32,45.2,0.47c30.58-17.04,84.74-47.2,115.94-64.58
	c14.8-8.25,23.97-23.86,23.97-40.8v-14.34L331.3,248.18z"/>
<path class="st1" d="M92.92,298.09V90.87h43.35v75.48h71.92V90.87h43.48v207.22h-43.48v-90.61h-71.92v90.61L92.92,298.09
	L92.92,298.09z"/>
<path class="st2" d="M169.44,0h0.28l0.25,0h1.41l0.25,0.01h0.03l0.25,0.01h0.03l0.25,0.01h0.02l0.25,0.01h0.03l0.24,0.01h0.03
	l0.24,0.01h0.02l0.25,0.01h0.03l0.25,0.02h0.03l0.24,0.02h0.02l0.24,0.02h0.03l0.25,0.02h0.02l0.24,0.02h0.03l0.25,0.02h0.03
	l0.25,0.02h0.03l0.25,0.02h0.03l0.24,0.02h0.03l0.24,0.02h0.03l0.25,0.02h0.03l0.25,0.03h0.03l0.25,0.03h0.02l0.24,0.03h0.03
	l0.24,0.03h0.03l0.25,0.03h0.03l0.25,0.03h0.02l0.24,0.03h0.03l0.25,0.03h0.03l0.24,0.04l0.03,0.01l0.25,0.04h0.03l0.24,0.04h0.02
	l0.25,0.04h0.03l0.24,0.04h0.03l0.24,0.04h0.02l0.25,0.04h0.03l0.24,0.04l0.03,0.01l0.24,0.04l0.03,0.01l0.24,0.05h0.03l0.24,0.04
	h0.03l0.24,0.05h0.03l0.25,0.05h0.02l0.24,0.05h0.03l0.24,0.05h0.02l0.25,0.05l0.03,0.01l0.25,0.05h0.02l0.24,0.06l0.03,0.01
	l0.24,0.06h0.03l0.25,0.06l0.02,0.01l0.24,0.05l0.03,0.01l0.24,0.05l0.02,0.01l0.24,0.06h0.03l0.24,0.06l0.03,0.01l0.24,0.06
	l0.02,0.01l0.25,0.06l0.02,0.01l0.24,0.06l0.03,0.01l0.24,0.06h0.02l0.24,0.07h0.03l0.25,0.06l0.03,0.01l0.24,0.06h0.03l0.24,0.07
	l0.03,0.01l0.24,0.07l0.03,0.01l0.24,0.07l0.03,0.01l0.24,0.07l0.02,0.01l0.24,0.07l0.03,0.01l0.24,0.07l0.03,0.01l0.24,0.07
	l0.03,0.01l0.24,0.08l0.02,0.01l0.24,0.08h0.03l0.24,0.08h0.03l0.24,0.08l0.03,0.01l0.24,0.08l0.03,0.01l0.24,0.08l0.02,0.01
	l0.24,0.08l0.03,0.01l0.24,0.08l0.02,0.01l0.24,0.08l0.02,0.01l0.23,0.08l0.03,0.01l0.23,0.08l0.03,0.01l0.23,0.09l0.03,0.01
	l0.24,0.09l0.03,0.01l0.23,0.09l0.02,0.01l0.24,0.08l0.02,0.01l0.24,0.09l0.03,0.01l0.24,0.09l0.03,0.01l0.23,0.09l0.03,0.01
	l0.23,0.1l0.02,0.01l0.24,0.09L194,4.67l0.23,0.1l0.03,0.01l0.24,0.1l0.03,0.01l0.24,0.1L194.79,5l0.24,0.1l0.02,0.01l0.23,0.1
	l0.02,0.01l0.23,0.1l0.02,0.01l0.24,0.1l0.02,0.01l0.23,0.1l0.03,0.01l0.23,0.1l0.03,0.01l0.23,0.1l0.02,0.01l0.23,0.11l0.03,0.01
	L197.07,6l0.03,0.01l0.23,0.11l0.02,0.01l0.23,0.11l0.02,0.01l0.23,0.11l0.03,0.01l0.23,0.11l0.03,0.01l0.23,0.11l0.03,0.01
	l0.23,0.11l0.02,0.01l0.23,0.12l0.02,0.02l0.23,0.11l0.02,0.01l0.22,0.12l0.03,0.01l0.23,0.11l0.02,0.01l0.23,0.12l0.03,0.01
	l0.22,0.12l0.03,0.02l0.23,0.12l0.03,0.01l0.23,0.12l0.02,0.01l0.22,0.12l0.03,0.02l0.23,0.12l0.02,0.02l0.22,0.13l0.02,0.02
	l0.22,0.13l0.03,0.01l0.22,0.13l0.02,0.01l0.22,0.13l0.02,0.02l0.22,0.13l0.03,0.02l0.21,0.13h0.02l113.3,66.57l0.19,0.11l0.02,0.02
	l0.19,0.11l0.03,0.01l0.18,0.12l0.02,0.02l0.18,0.11l0.02,0.02l0.18,0.11l0.02,0.01l0.18,0.11l0.02,0.01l0.18,0.11l0.02,0.01
	l0.18,0.11l0.03,0.01l0.18,0.12l0.02,0.01l0.18,0.12l0.03,0.01l0.18,0.11l0.02,0.01l0.18,0.12l0.02,0.02l0.18,0.12l0.02,0.02
	l0.17,0.11l0.03,0.01l0.18,0.12l0.02,0.01l0.18,0.12l0.02,0.01l0.17,0.12l0.02,0.01l0.17,0.12l0.02,0.01l0.17,0.12l0.02,0.02
	l0.17,0.12l0.02,0.01l0.17,0.13l0.03,0.02l0.17,0.12l0.02,0.01l0.17,0.12l0.02,0.01l0.17,0.12l0.02,0.02l0.17,0.12l0.02,0.01
	l0.17,0.12l0.02,0.02l0.17,0.12l0.02,0.02l0.17,0.13l0.03,0.02l0.16,0.13l0.03,0.02l0.17,0.13l0.03,0.01l0.17,0.13l0.02,0.02
	l0.17,0.13l0.02,0.02l0.16,0.13l0.03,0.02l0.17,0.14l0.03,0.03l0.32,0.26l0.04,0.03l0.32,0.27l0.04,0.03l0.33,0.27l0.04,0.03
	l0.33,0.27l0.04,0.03l0.32,0.27l0.04,0.04l0.32,0.27l0.04,0.03l0.31,0.28l0.04,0.03l0.31,0.28l0.04,0.03l0.31,0.29l0.04,0.03
	l0.3,0.28l0.04,0.03l0.31,0.29l0.04,0.04l0.3,0.29l0.04,0.04l0.3,0.29l0.04,0.04l0.29,0.29l0.04,0.04l0.29,0.3l0.04,0.04l0.29,0.3
	l0.03,0.04l0.29,0.3l0.04,0.04l0.28,0.3l0.04,0.04l0.28,0.3l0.04,0.04l0.28,0.3l0.04,0.04l0.28,0.31l0.04,0.04l0.27,0.32l0.03,0.04
	l0.28,0.31l0.04,0.04l0.27,0.32l0.04,0.04l0.27,0.32l0.03,0.04l0.27,0.32l0.04,0.04l0.26,0.32l0.03,0.04l0.26,0.32l0.04,0.04
	l0.26,0.33l0.03,0.04l0.25,0.33l0.03,0.04l0.25,0.33l0.03,0.04l0.25,0.33l0.03,0.05l0.25,0.34l0.03,0.04l0.25,0.33l0.03,0.05
	l0.24,0.34l0.03,0.04l0.24,0.34l0.03,0.04l0.24,0.34l0.03,0.05l0.23,0.34l0.03,0.05l0.23,0.35l0.03,0.05l0.22,0.34l0.03,0.04
	l0.22,0.34l0.03,0.04l0.23,0.35l0.03,0.04l0.22,0.35l0.03,0.05l0.21,0.35l0.03,0.05l0.22,0.35l0.03,0.05l0.21,0.35l0.03,0.05
	l0.21,0.36l0.03,0.04l0.2,0.36l0.03,0.05l0.2,0.36l0.03,0.05l0.2,0.36l0.03,0.05l0.2,0.36l0.02,0.05l0.2,0.37l0.02,0.05l0.19,0.37
	l0.02,0.05l0.19,0.37l0.03,0.04l0.18,0.38l0.02,0.05l0.19,0.37l0.02,0.05l0.18,0.37l0.03,0.05l0.17,0.38l0.02,0.05l0.17,0.38
	l0.02,0.05l0.17,0.38l0.02,0.05l0.17,0.38l0.02,0.05l0.16,0.38l0.02,0.05l0.16,0.38l0.02,0.05l0.15,0.39l0.02,0.05l0.15,0.38
	l0.02,0.05l0.15,0.39l0.02,0.05l0.15,0.39l0.02,0.05l0.15,0.39l0.02,0.05l0.14,0.39l0.02,0.05l0.13,0.39l0.02,0.05l0.13,0.39
	l0.02,0.05l0.13,0.39l0.02,0.05l0.13,0.4l0.01,0.05l0.12,0.39l0.02,0.05l0.12,0.4l0.01,0.05l0.12,0.4l0.02,0.05l0.12,0.4l0.02,0.05
	l0.11,0.4l0.02,0.05l0.11,0.4l0.01,0.05l0.1,0.4l0.02,0.06l0.11,0.41l0.01,0.05l0.1,0.41l0.02,0.05l0.09,0.41l0.02,0.05l0.1,0.41
	l0.01,0.06l0.09,0.41l0.01,0.05l0.09,0.41l0.01,0.05l0.08,0.41l0.01,0.05l0.08,0.41l0.01,0.05l0.08,0.41l0.01,0.05l0.07,0.42
	l0.01,0.05l0.07,0.41l0.01,0.06l0.07,0.42l0.01,0.06l0.06,0.42l0.01,0.06l0.06,0.41v0.04l0.03,0.22v0.02l0.02,0.21v0.03l0.03,0.21
	v0.02l0.03,0.21v0.03l0.03,0.21l0.01,0.03l0.03,0.21v0.03l0.02,0.21l0.01,0.02l0.02,0.21l0.01,0.03l0.02,0.21v0.03l0.02,0.21
	l0.01,0.03l0.02,0.21l0.01,0.03l0.02,0.21v0.03l0.02,0.21v0.03l0.02,0.21v0.03l0.02,0.21v0.03l0.02,0.21v0.03l0.01,0.21v0.03
	l0.01,0.22v0.03l0.02,0.22v0.02l0.01,0.21v0.03l0.01,0.21v0.03l0.01,0.21v0.03l0.01,0.21v0.03l0.01,0.22v0.03l0.01,0.21v0.03
	l0.01,0.21v0.02l0.01,0.21v139.6l-0.01,0.23v0.29l-0.01,0.23v0.03l-0.01,0.22v0.02l-0.01,0.23v0.03l-0.01,0.22v0.02l-0.01,0.22v0.03
	l-0.01,0.22l-0.01,0.03l-0.01,0.22v0.03l-0.01,0.22v0.02l-0.01,0.23v0.03l-0.02,0.23v0.02l-0.02,0.23v0.03l-0.02,0.22v0.03
	l-0.01,0.22v0.03l-0.02,0.22v0.03l-0.02,0.22v0.03l-0.02,0.22v0.03l-0.02,0.22l-0.01,0.02l-0.02,0.23l-0.01,0.03l-0.02,0.22v0.03
	l-0.02,0.22l-0.01,0.03l-0.03,0.22v0.03l-0.03,0.22v0.02l-0.03,0.22v0.03l-0.03,0.22l-0.01,0.03l-0.03,0.23l-0.01,0.03l-0.03,0.22
	l-0.01,0.03l-0.03,0.22v0.03l-0.03,0.22v0.03l-0.03,0.22l-0.01,0.03l-0.03,0.22l-0.01,0.03l-0.04,0.22v0.02l-0.03,0.22v0.02
	l-0.04,0.22l-0.01,0.03l-0.03,0.22l-0.01,0.03l-0.03,0.22v0.02l-0.04,0.22V273l-0.04,0.22v0.02l-0.04,0.22v0.03l-0.04,0.21
	l-0.01,0.03l-0.04,0.21l-0.01,0.03l-0.04,0.22l-0.01,0.03l-0.05,0.22v0.02l-0.05,0.22v0.02l-0.04,0.21v0.03l-0.05,0.22v0.02
	l-0.04,0.22l-0.01,0.02l-0.05,0.21v0.02l-0.05,0.21v0.03l-0.05,0.21l-0.01,0.03l-0.05,0.21l-0.01,0.03l-0.05,0.21l-0.01,0.02
	l-0.05,0.21l-0.01,0.02l-0.05,0.21l-0.01,0.03l-0.06,0.21l-0.01,0.03l-0.05,0.21l-0.01,0.03l-0.06,0.21v0.03l-0.06,0.22l-0.01,0.03
	l-0.06,0.21v0.03l-0.06,0.21l-0.01,0.03l-0.06,0.21l-0.01,0.03l-0.06,0.22l-0.01,0.02l-0.06,0.21l-0.01,0.02l-0.06,0.21l-0.01,0.03
	l-0.07,0.21l-0.01,0.03l-0.06,0.21l-0.01,0.02l-0.06,0.21l-0.01,0.03l-0.06,0.21l-0.01,0.02l-0.07,0.21l-0.01,0.03l-0.07,0.21
	l-0.01,0.03l-0.07,0.21l-0.01,0.03l-0.07,0.21l-0.01,0.03l-0.07,0.21l-0.01,0.02l-0.07,0.21l-0.01,0.03l-0.07,0.21l-0.01,0.03
	l-0.07,0.21l-0.01,0.02l-0.07,0.21l-0.01,0.03l-0.07,0.21l-0.01,0.03l-0.08,0.2l-0.01,0.03l-0.07,0.2l-0.01,0.03l-0.07,0.2
	l-0.01,0.03l-0.07,0.21l-0.01,0.03l-0.08,0.21l-0.01,0.03l-0.08,0.2l-0.01,0.03l-0.08,0.2l-0.01,0.03l-0.08,0.2l-0.01,0.03
	l-0.08,0.2l-0.01,0.03l-0.08,0.2l-0.01,0.03l-0.08,0.2l-0.01,0.02l-0.09,0.2l-0.01,0.03l-0.09,0.21l-0.01,0.03l-0.08,0.2l-0.01,0.03
	l-0.09,0.2l-0.01,0.03l-0.09,0.2l-0.01,0.03l-0.09,0.2l-0.01,0.02l-0.09,0.2l-0.01,0.03l-0.09,0.2l-0.01,0.02l-0.09,0.2l-0.01,0.02
	l-0.09,0.2l-0.01,0.02l-0.09,0.2l-0.01,0.02l-0.1,0.2l-0.01,0.02l-0.1,0.19l-0.01,0.03l-0.09,0.2l-0.01,0.02l-0.1,0.19l-0.01,0.03
	l-0.09,0.2l-0.01,0.02l-0.1,0.2l-0.01,0.03l-0.1,0.2l-0.01,0.02l-0.1,0.19l-0.01,0.02l-0.1,0.2l-0.01,0.03l-0.1,0.2l-0.01,0.03
	l-0.1,0.2l-0.02,0.03l-0.1,0.19l-0.01,0.02l-0.1,0.2l-0.01,0.03l-0.1,0.2l-0.01,0.03l-0.11,0.19l-0.02,0.02l-0.11,0.19l-0.01,0.02
	l-0.11,0.19l-0.01,0.02l-0.11,0.19l-0.01,0.02l-0.11,0.19l-0.01,0.02l-0.11,0.19l-0.01,0.03l-0.11,0.19l-0.01,0.02l-0.11,0.19
	l-0.01,0.03l-0.11,0.19l-0.02,0.02l-0.11,0.19l-0.02,0.02l-0.11,0.19l-0.01,0.02l-0.11,0.19l-0.01,0.03l-0.12,0.19l-0.01,0.02
	l-0.11,0.18l-0.01,0.03l-0.11,0.18l-0.02,0.02l-0.12,0.19l-0.01,0.03l-0.12,0.18l-0.02,0.02l-0.12,0.18l-0.01,0.02l-0.12,0.19
	l-0.02,0.03l-0.12,0.18l-0.02,0.02l-0.12,0.18l-0.01,0.02l-0.12,0.19l-0.01,0.02l-0.12,0.18l-0.02,0.02l-0.13,0.18l-0.01,0.02
	l-0.12,0.18l-0.01,0.02l-0.13,0.18l-0.01,0.02l-0.12,0.18l-0.02,0.02l-0.12,0.18l-0.02,0.02l-0.13,0.18l-0.02,0.02l-0.12,0.18
	l-0.01,0.02l-0.13,0.18l-0.02,0.03l-0.12,0.18l-0.02,0.02l-0.13,0.18l-0.02,0.02l-0.13,0.18l-0.02,0.02l-0.13,0.18l-0.02,0.02
	l-0.13,0.18l-0.01,0.02l-0.13,0.17l-0.02,0.02l-0.13,0.17l-0.01,0.02l-0.14,0.17l-0.02,0.02l-0.13,0.17l-0.01,0.02l-0.13,0.18
	l-0.02,0.02l-0.14,0.18l-0.02,0.02l-0.14,0.17l-0.02,0.02l-0.14,0.17l-0.01,0.02l-0.14,0.17l-0.02,0.02l-0.14,0.17l-0.02,0.02
	l-0.14,0.17l-0.02,0.02l-0.14,0.17l-0.02,0.02l-0.14,0.17l-0.01,0.02l-0.14,0.17l-0.02,0.02l-0.15,0.17l-0.02,0.02l-0.14,0.17
	l-0.02,0.02l-0.14,0.17l-0.02,0.02l-0.14,0.17l-0.02,0.02l-0.14,0.17L329.7,302l-0.14,0.16l-0.02,0.02l-0.15,0.17l-0.02,0.02
	l-0.14,0.17l-0.02,0.02l-0.15,0.17l-0.02,0.02l-0.14,0.17l-0.02,0.02l-0.15,0.16l-0.02,0.02l-0.15,0.16l-0.02,0.02l-0.15,0.16
	l-0.02,0.02l-0.15,0.16l-0.02,0.02l-0.15,0.16l-0.02,0.02l-0.15,0.16l-0.02,0.02l-0.15,0.16l-0.02,0.02l-0.15,0.16l-0.02,0.02
	l-0.16,0.16l-0.02,0.02l-0.15,0.16l-0.02,0.02l-0.15,0.15l-0.02,0.02l-0.16,0.16l-0.03,0.02l-0.16,0.16l-0.02,0.02l-0.16,0.15
	l-0.02,0.02l-0.16,0.16l-0.02,0.02l-0.16,0.15l-0.02,0.02l-0.16,0.15l-0.02,0.02l-0.16,0.15l-0.02,0.02l-0.16,0.15l-0.02,0.02
	l-0.16,0.15l-0.02,0.02l-0.16,0.15l-0.02,0.02l-0.17,0.15L325,306.8l-0.16,0.15l-0.02,0.02l-0.17,0.15l-0.02,0.02l-0.17,0.15
	l-0.02,0.01l-0.17,0.15l-0.02,0.02l-0.17,0.14l-0.03,0.02l-0.17,0.14l-0.02,0.02l-0.17,0.15l-0.02,0.02l-0.17,0.15l-0.02,0.02
	l-0.17,0.15l-0.02,0.02l-0.17,0.14l-0.02,0.02l-0.18,0.14l-0.02,0.01l-0.17,0.14l-0.02,0.02l-0.17,0.14l-0.03,0.02l-0.17,0.14
	l-0.02,0.02l-0.17,0.14l-0.02,0.02l-0.17,0.14l-0.02,0.02l-0.18,0.14l-0.02,0.02l-0.17,0.13l-0.02,0.02l-0.18,0.14l-0.02,0.02
	l-0.18,0.14l-0.02,0.02l-0.18,0.14l-0.02,0.02l-0.18,0.14l-0.02,0.01l-0.18,0.13l-0.02,0.01l-0.18,0.13l-0.02,0.01l-0.18,0.13
	l-0.03,0.01l-0.18,0.13l-0.02,0.02l-0.18,0.13l-0.02,0.02l-0.18,0.13l-0.02,0.02l-0.18,0.13l-0.03,0.02l-0.18,0.13l-0.02,0.01
	l-0.19,0.13l-0.03,0.01l-0.19,0.13l-0.02,0.02l-0.19,0.13l-0.02,0.02l-0.19,0.12l-0.02,0.02l-0.19,0.13l-0.02,0.02l-0.18,0.13
	l-0.03,0.02l-0.19,0.12l-0.02,0.01l-0.19,0.12l-0.03,0.01l-0.19,0.12l-0.02,0.02l-0.19,0.12l-0.02,0.02l-0.19,0.12l-0.02,0.01
	l-0.19,0.12l-0.03,0.01l-0.19,0.12l-0.02,0.02l-0.19,0.12l-0.03,0.01l-0.19,0.12l-0.03,0.02l-0.19,0.12l-0.03,0.02l-0.2,0.12
	l-0.02,0.02l-0.19,0.11l-0.03,0.01l-0.19,0.11l-0.02,0.02l-0.2,0.12l-0.03,0.02l-0.2,0.11l-0.02,0.02l-0.19,0.11l-0.03,0.01
	l-0.2,0.11l-0.03,0.01l-0.2,0.11l-0.02,0.01l-0.19,0.11l-0.01,0.01l-115.93,64.6h-0.01l-0.18,0.11l-0.03,0.01l-0.19,0.11l-0.03,0.02
	l-0.19,0.1l-0.03,0.01l-0.19,0.1l-0.02,0.01l-0.19,0.1l-0.03,0.01l-0.19,0.1l-0.03,0.01l-0.19,0.1l-0.03,0.01l-0.19,0.1l-0.02,0.01
	l-0.19,0.1l-0.02,0.01l-0.19,0.09l-0.02,0.01l-0.2,0.1l-0.02,0.02l-0.19,0.1l-0.02,0.01l-0.19,0.09l-0.02,0.01l-0.19,0.09
	l-0.02,0.01l-0.19,0.1l-0.02,0.01l-0.2,0.09l-0.02,0.01l-0.19,0.09l-0.02,0.01l-0.2,0.09l-0.02,0.01l-0.19,0.09l-0.02,0.01
	l-0.19,0.09l-0.03,0.02l-0.2,0.09l-0.02,0.01l-0.2,0.08l-0.02,0.01l-0.2,0.09l-0.02,0.02l-0.2,0.09l-0.03,0.01l-0.19,0.08
	l-0.02,0.01l-0.2,0.09l-0.02,0.01l-0.2,0.08l-0.02,0.01l-0.2,0.08l-0.02,0.01l-0.2,0.08l-0.03,0.01l-0.2,0.08l-0.03,0.01l-0.2,0.08
	l-0.03,0.01l-0.19,0.08l-0.02,0.01l-0.2,0.07l-0.02,0.01l-0.2,0.08l-0.03,0.01l-0.2,0.08l-0.03,0.01l-0.2,0.08l-0.03,0.01l-0.2,0.07
	l-0.03,0.01l-0.2,0.08l-0.03,0.01l-0.2,0.07l-0.02,0.01l-0.2,0.07l-0.03,0.01l-0.2,0.07l-0.03,0.01l-0.2,0.07l-0.03,0.01l-0.2,0.07
	l-0.02,0.01l-0.2,0.07l-0.2,0.07l-0.03,0.01l-0.21,0.06l-0.03,0.01l-0.2,0.06l-0.02,0.01l-0.2,0.07l-0.02,0.01l-0.21,0.06
	l-0.03,0.01l-0.2,0.06l-0.03,0.01l-0.2,0.06l-0.03,0.01l-0.21,0.07l-0.04,0.01l-0.4,0.12l-0.05,0.02l-0.41,0.12l-0.05,0.01
	l-0.41,0.12l-0.05,0.01l-0.41,0.11l-0.05,0.02l-0.41,0.11l-0.05,0.01l-0.41,0.11l-0.06,0.01l-0.41,0.1l-0.05,0.01l-0.41,0.1
	l-0.06,0.01l-0.41,0.1l-0.05,0.01l-0.41,0.09l-0.05,0.01l-0.42,0.09l-0.06,0.01l-0.42,0.09l-0.05,0.01l-0.42,0.08l-0.05,0.01
	l-0.41,0.07l-0.05,0.01l-0.41,0.08l-0.05,0.01l-0.42,0.07l-0.05,0.01l-0.42,0.07l-0.05,0.01l-0.42,0.06l-0.05,0.01l-0.42,0.06
	l-0.05,0.01l-0.42,0.06l-0.05,0.01l-0.42,0.06l-0.06,0.01l-0.42,0.05l-0.05,0.01l-0.42,0.05l-0.05,0.01l-0.42,0.05l-0.42,0.04h-0.05
	l-0.42,0.03l-0.05,0.01l-0.42,0.03h-0.05l-0.42,0.03h-0.05l-0.42,0.03l-0.06,0.01l-0.42,0.03h-0.05l-0.42,0.02h-0.05l-0.42,0.02
	h-0.06l-0.42,0.01h-0.05l-0.42,0.01h-0.05l-0.42,0.01h-1.48l-0.42-0.01l-0.42-0.01h-0.06l-0.42-0.01h-0.01l-0.42-0.02l-0.05-0.01
	l-0.42-0.02h-0.05l-0.42-0.02l-0.05-0.01l-0.42-0.02h-0.05l-0.42-0.03l-0.05-0.01l-0.42-0.04l-0.06-0.01l-0.42-0.04l-0.06-0.01
	l-0.42-0.04l-0.05-0.01l-0.42-0.04h-0.05l-0.42-0.04l-0.05-0.01l-0.42-0.05H162l-0.42-0.05l-0.06-0.01l-0.42-0.06l-0.05-0.01
	l-0.42-0.06l-0.05-0.01l-0.42-0.06l-0.05-0.01l-0.42-0.06l-0.05-0.01l-0.41-0.07h-0.03l-0.42-0.08l-0.05-0.01l-0.41-0.08l-0.05-0.01
	l-0.41-0.08l-0.05-0.01l-0.41-0.08l-0.06-0.01l-0.42-0.08l-0.05-0.01l-0.41-0.09l-0.06-0.02l-0.41-0.09l-0.05-0.01l-0.41-0.1
	l-0.06-0.02l-0.41-0.1l-0.05-0.02l-0.41-0.11l-0.05-0.01l-0.41-0.11l-0.05-0.02l-0.41-0.11l-0.05-0.02l-0.41-0.11l-0.05-0.02
	l-0.41-0.12l-0.06-0.02l-0.41-0.12l-0.05-0.02l-0.41-0.12l-0.05-0.02l-0.41-0.12l-0.05-0.01l-0.4-0.13l-0.04-0.01l-0.21-0.07h-0.03
	l-0.2-0.06l-0.03-0.01l-0.2-0.07l-0.03-0.01l-0.2-0.07l-0.03-0.01l-0.2-0.07l-0.03-0.01l-0.2-0.07l-0.03-0.01l-0.2-0.07l-0.02-0.01
	l-0.2-0.07l-0.02-0.01l-0.2-0.07l-0.02-0.01l-0.2-0.08l-0.03-0.01l-0.2-0.08l-0.03-0.01l-0.2-0.08l-0.02-0.01l-0.2-0.08l-0.03-0.01
	l-0.2-0.08l-0.02-0.01l-0.2-0.08l-0.03-0.01l-0.2-0.08l-0.02-0.01l-0.2-0.08l-0.02-0.01l-0.2-0.08l-0.03-0.01l-0.2-0.08l-0.03-0.01
	l-0.2-0.08l-0.03-0.01l-0.2-0.08l-0.03-0.01l-0.2-0.08l-0.02-0.01l-0.2-0.09l-0.03-0.01l-0.19-0.09l-0.02-0.01l-0.2-0.09l-0.02-0.01
	l-0.2-0.09l-0.02-0.01l-0.2-0.08l-0.03-0.01l-0.19-0.09l-0.03-0.01l-0.2-0.09l-0.03-0.01l-0.19-0.09l-0.02-0.02l-0.19-0.09
	l-0.02-0.01l-0.19-0.09l-0.02-0.01l-0.2-0.09l-0.02-0.02l-0.2-0.1l-0.02-0.02l-0.19-0.09l-0.03-0.01l-0.2-0.09l-0.02-0.02l-0.19-0.1
	l-0.03-0.01l-0.2-0.1l-0.02-0.01l-0.19-0.1l-0.03-0.01l-0.19-0.1l-0.02-0.01l-0.19-0.1l-0.03-0.02l-0.19-0.1l-0.02-0.01l-0.19-0.1
	l-0.02-0.01l-0.19-0.1l-0.03-0.02l-0.19-0.1l-0.02-0.01l-0.19-0.11l-0.03-0.02l-0.19-0.1l-0.03-0.01l-0.19-0.1l-0.03-0.01l-0.19-0.1
	l-0.03-0.01l-0.19-0.11l-0.03-0.01l-0.18-0.11l-0.03-0.01l-0.18-0.11l-0.01-0.01l-104.8-61.17l-0.01-0.01l-0.22-0.13l-0.02-0.01
	l-0.22-0.13l-0.03-0.01l-0.23-0.13l-0.03-0.01l-0.22-0.14l-0.02-0.01l-0.22-0.14l-0.02-0.02l-0.22-0.14l-0.02-0.02l-0.22-0.14
	l-0.03-0.01l-0.22-0.13l-0.03-0.02l-0.22-0.14l-0.02-0.02l-0.22-0.14h0.05l-0.22-0.14l-0.03-0.02l-0.22-0.14l-0.02-0.02l-0.22-0.14
	l-0.03-0.02l-0.22-0.15l-0.03-0.02l-0.22-0.15l-0.02-0.02l-0.22-0.14l-0.02-0.02L30.51,315l-0.02-0.02l-0.22-0.15l-0.02-0.02
	l-0.21-0.15l-0.03-0.02l-0.22-0.15l-0.02-0.02l-0.21-0.15l-0.03-0.02l-0.21-0.15l-0.03-0.02l-0.21-0.15l-0.02-0.01l-0.21-0.15
	l-0.02-0.02l-0.21-0.15l-0.02-0.02l-0.21-0.15l-0.03-0.01l-0.21-0.15l-0.02-0.02l-0.21-0.16l-0.02-0.02l-0.21-0.15l-0.03-0.02
	l-0.21-0.16l-0.03-0.02l-0.2-0.16l-0.02-0.02l-0.2-0.16l-0.02-0.01l-0.2-0.16l-0.02-0.02l-0.2-0.16l-0.02-0.02l-0.2-0.16l-0.02-0.02
	l-0.2-0.16l-0.02-0.02l-0.2-0.16l-0.02-0.02l-0.2-0.16l-0.02-0.02l-0.2-0.17l-0.02-0.01l-0.2-0.16l-0.02-0.02l-0.19-0.16l-0.02-0.02
	l-0.2-0.17l-0.02-0.02l-0.2-0.16l-0.02-0.02l-0.2-0.17l-0.02-0.01l-0.2-0.16l-0.02-0.02l-0.19-0.16l-0.02-0.02l-0.19-0.17
	l-0.02-0.02l-0.19-0.17l-0.02-0.02l-0.19-0.17l-0.02-0.02l-0.19-0.17l-0.02-0.02l-0.19-0.17l-0.02-0.02l-0.19-0.18l-0.02-0.01
	l-0.19-0.17l-0.03-0.02l-0.18-0.18l-0.02-0.02l-0.19-0.17l-0.02-0.02l-0.19-0.18l-0.02-0.02l-0.18-0.18l-0.02-0.02l-0.18-0.18
	l-0.02-0.02l-0.19-0.18l-0.02-0.02l-0.19-0.18l-0.02-0.01L20.85,307l-0.02-0.02l-0.18-0.18l-0.02-0.02l-0.18-0.18l-0.02-0.02
	l-0.18-0.18l-0.02-0.02l-0.18-0.18l-0.02-0.02L19.85,306l-0.02-0.02l-0.17-0.18l-0.02-0.02l-0.18-0.18l-0.02-0.02l-0.18-0.19
	l-0.02-0.02l-0.17-0.19l-0.02-0.02l-0.17-0.19l-0.02-0.02l-0.18-0.19l-0.02-0.02l-0.17-0.19l-0.02-0.02l-0.17-0.19l-0.02-0.02
	l-0.17-0.19l-0.02-0.02l-0.17-0.19l-0.02-0.02l-0.17-0.19l-0.01-0.02l-0.16-0.19l-0.02-0.02l-0.17-0.19l-0.02-0.02l-0.18-0.2
	l-0.02-0.02l-0.17-0.19l-0.02-0.02l-0.17-0.2l-0.02-0.02l-0.16-0.19l-0.01-0.02l-0.16-0.19l-0.02-0.02l-0.16-0.2l-0.02-0.02
	l-0.17-0.2l-0.02-0.02l-0.16-0.19l-0.02-0.02l-0.17-0.19l-0.02-0.02l-0.16-0.19l-0.02-0.02l-0.16-0.2l-0.02-0.02l-0.16-0.2
	l-0.02-0.02l-0.16-0.2l-0.02-0.02l-0.16-0.2l-0.02-0.02l-0.16-0.2l-0.01-0.02l-0.15-0.2l-0.02-0.02l-0.15-0.2l-0.01-0.02l-0.15-0.2
	l-0.02-0.02l-0.15-0.21l-0.02-0.02l-0.15-0.2l-0.02-0.02l-0.15-0.2l-0.01-0.02l-0.15-0.21l-0.01-0.02l-0.15-0.21l-0.01-0.02
	l-0.15-0.2l-0.01-0.02l-0.15-0.2l-0.02-0.02l-0.15-0.21l-0.02-0.02l-0.15-0.21l-0.02-0.03l-0.14-0.21l-0.02-0.02l-0.14-0.21
	l-0.02-0.02l-0.14-0.21l-0.02-0.02L12,296.43l-0.01-0.02l-0.14-0.21l-0.02-0.03l-0.14-0.21l-0.02-0.02l-0.14-0.21l-0.02-0.02
	l-0.14-0.21l-0.02-0.02l-0.14-0.21l-0.02-0.02l-0.13-0.21l-0.01-0.02l-0.13-0.21l-0.02-0.03l-0.14-0.21l-0.02-0.03l-0.14-0.21
	l-0.01-0.02l-0.14-0.22l-0.01-0.03l-0.13-0.21l-0.02-0.02l-0.13-0.21l-0.02-0.02l-0.13-0.22l-0.02-0.03l-0.13-0.21l-0.01-0.02
	l-0.13-0.22l-0.01-0.02l-0.13-0.21l-0.02-0.03l-0.13-0.22l-0.02-0.03l-0.13-0.22l-0.02-0.03l-0.12-0.22l-0.02-0.02l-0.13-0.22
	l-0.01-0.02l-0.12-0.22l-0.01-0.02l-0.12-0.22l-0.01-0.03l-0.12-0.22l-0.02-0.03l-0.12-0.22l-0.01-0.03l-0.12-0.23l-0.01-0.02
	L8.2,290.2l-0.01-0.03l-0.12-0.22l-0.01-0.03l-0.12-0.22l-0.01-0.03l-0.11-0.23l-0.01-0.02l-0.12-0.23l-0.01-0.03l-0.12-0.23
	l-0.02-0.02l-0.11-0.23l-0.01-0.02l-0.11-0.22l-0.01-0.03l-0.11-0.23v0.01l-0.11-0.23l-0.02-0.03l-0.11-0.23l-0.01-0.03l-0.11-0.22
	l-0.01-0.03l-0.11-0.23l-0.01-0.02l-0.11-0.23l-0.01-0.02l-0.1-0.23l-0.01-0.02l-0.11-0.23l-0.01-0.02l-0.11-0.23l-0.01-0.02
	l-0.11-0.23l-0.01-0.03l-0.1-0.23L6,285.66l-0.11-0.23l-0.01-0.03l-0.11-0.23l-0.01-0.02l-0.1-0.23l-0.01-0.02l-0.1-0.23l-0.01-0.03
	l-0.1-0.23l-0.01-0.02l-0.09-0.23l-0.01-0.02l-0.1-0.23l-0.01-0.03l-0.09-0.24l-0.01-0.02l-0.1-0.23l-0.01-0.03l-0.09-0.22
	l-0.01-0.03l-0.1-0.24l-0.01-0.02l-0.09-0.24l-0.01-0.03l-0.09-0.24l-0.01-0.02l-0.09-0.24l-0.01-0.03l-0.09-0.24l-0.01-0.02
	l-0.09-0.24l-0.01-0.02l-0.08-0.24l-0.01-0.03l-0.09-0.24L4.11,281l-0.08-0.24l-0.01-0.03l-0.08-0.24l-0.01-0.03l-0.09-0.24
	l-0.01-0.03l-0.08-0.24l-0.01-0.02l-0.08-0.24l-0.01-0.02l-0.08-0.24l-0.01-0.03l-0.08-0.24l-0.01-0.03l-0.08-0.24l-0.01-0.03
	l-0.08-0.24l-0.01-0.03l-0.08-0.24l-0.01-0.03l-0.07-0.24l-0.01-0.02l-0.08-0.25l-0.01-0.03l-0.07-0.25l-0.01-0.03l-0.07-0.24
	l-0.01-0.03l-0.07-0.24l-0.01-0.03l-0.07-0.25l-0.01-0.03l-0.07-0.25l-0.01-0.02l-0.07-0.25l-0.01-0.01l-0.07-0.25l-0.01-0.02
	l-0.06-0.24l-0.01-0.02l-0.06-0.24v-0.02l-0.07-0.25v-0.03l-0.06-0.24l-0.01-0.03l-0.06-0.24l-0.01-0.03l-0.06-0.25h0.01l-0.06-0.25
	l-0.01-0.02l-0.06-0.25l-0.01-0.02l-0.06-0.25l-0.01-0.02l-0.06-0.25l0.01-0.01l-0.06-0.25l-0.01-0.03l-0.06-0.25l-0.01-0.03
	l-0.05-0.25l-0.01-0.03l-0.06-0.25l-0.01-0.02l-0.05-0.25l-0.01-0.03l-0.05-0.25l-0.01-0.03l-0.05-0.25l-0.05-0.25v-0.03l-0.05-0.26
	v-0.03l-0.05-0.25l-0.01-0.03l-0.06-0.24v-0.03l-0.05-0.27l-0.01-0.03l-0.05-0.26l-0.01-0.03L1,269.34l-0.01-0.03l-0.04-0.25v-0.03
	l-0.04-0.25v-0.03l-0.04-0.25l-0.01-0.03l-0.04-0.25v0.01l-0.04-0.25v-0.02l-0.04-0.25v-0.03l-0.04-0.25v-0.03l-0.04-0.25v-0.02
	l-0.03-0.26v-0.03l-0.03-0.25v-0.02l-0.04-0.26l-0.01-0.03l-0.03-0.25V266l-0.03-0.26l-0.01-0.03l-0.03-0.26v-0.03l-0.03-0.26
	l-0.01-0.03l-0.03-0.26v-0.03l-0.03-0.26l-0.01-0.02l-0.03-0.26l-0.02-0.26v-0.03l-0.03-0.26l-0.01-0.03l-0.03-0.26v-0.03
	l-0.02-0.26l-0.01-0.03l-0.02-0.26v-0.03l-0.02-0.26v-0.03l-0.02-0.26l-0.02-0.26v-0.03l-0.02-0.26v-0.03l-0.02-0.26v-0.32
	l-0.01-0.26v-0.03l-0.01-0.26v-0.03l-0.01-0.26l-0.01-0.03l-0.01-0.26v-0.28l-0.01-0.26v-0.03L0,259.18v-126.6l0.01-0.25v-0.32
	l0.01-0.26v-0.92l0.01-0.26v-0.02l0.01-0.26v-0.03L0.05,130v-0.03l0.01-0.26v-0.02l0.01-0.26v-0.03l0.01-0.26v-0.03l0.02-0.27v-0.03
	l0.02-0.26v-0.02l0.01-0.26v-0.03l0.02-0.26v-0.03l0.01-0.26v-0.03l0.01-0.26v-0.03l0.02-0.26v-0.03l0.02-0.26v-0.03l0.03-0.26
	v-0.03l0.02-0.26l0.01-0.02l0.02-0.26v-0.02l0.03-0.26v-0.02l0.03-0.26l0.01-0.03l0.03-0.26v-0.03l0.03-0.26v-0.02l0.03-0.26v-0.02
	l0.03-0.26l0.01-0.03l0.03-0.26v-0.03l0.03-0.25v-0.03l0.03-0.26v-0.03l0.03-0.26l0.01-0.03l0.03-0.25v-0.03l0.04-0.26v-0.03
	l0.03-0.26l0.01-0.03l0.03-0.25l0.01-0.03l0.04-0.26l0.01-0.02l0.04-0.26v-0.02l0.04-0.26v-0.02l0.04-0.25l0.01-0.03l0.04-0.25
	v-0.03l0.07-0.26l0.01-0.03L1.11,120v-0.03l0.05-0.25v-0.02l0.05-0.25v-0.02l0.05-0.26l0.01-0.02l0.05-0.25l0.01-0.02l0.05-0.25
	l0.01-0.03l0.05-0.25l0.01-0.03l0.05-0.25v-0.03l0.05-0.25v-0.02l0.05-0.25l0.01-0.02l0.05-0.25l0.01-0.02l0.06-0.25v-0.03
	l0.06-0.25l0.01-0.03l0.05-0.25l0.01-0.03l0.06-0.25v-0.03l0.06-0.25l0.01-0.03l0.06-0.25v-0.03l0.06-0.25l0.01-0.02l0.06-0.25
	v-0.02l0.06-0.25l0.01-0.03l0.07-0.25v-0.02l0.07-0.25v-0.02l0.07-0.25l0.01-0.03l0.07-0.25v-0.03l0.07-0.25l0.01-0.03l0.07-0.24
	l0.01-0.02l0.07-0.25l0.01-0.03l0.07-0.25l0.01-0.03l0.07-0.24l0.01-0.02l0.08-0.25L3.03,112l0.07-0.24l0.01-0.02l0.07-0.24
	l0.01-0.02l0.07-0.25l0.01-0.03l0.08-0.24l0.01-0.03l0.08-0.24v-0.02l0.08-0.24v-0.03l0.08-0.24l0.01-0.02l0.08-0.24l0.01-0.03
	l0.08-0.24l0.01-0.03l0.08-0.24l0.01-0.03l0.08-0.24l0.01-0.02l0.09-0.24l0.01-0.02l0.08-0.24l0.01-0.03l0.08-0.24l0.01-0.02
	l0.09-0.24l0.01-0.02l0.09-0.24v-0.02l0.09-0.24l0.01-0.02l0.09-0.24l0.01-0.03l0.09-0.24l0.01-0.02l0.09-0.24l0.01-0.03l0.1-0.23
	l0.01-0.02l0.1-0.24l0.01-0.02l0.1-0.24l0.01-0.03l0.1-0.24l0.01-0.03l0.1-0.24l0.01-0.03l0.1-0.24l0.01-0.03l0.1-0.24l0.01-0.03
	l0.1-0.24l0.01-0.03l0.1-0.23l0.01-0.03l0.1-0.23l0.01-0.03l0.1-0.24l0.01-0.02l0.11-0.24l0.01-0.02l0.11-0.23l0.01-0.02l0.1-0.23
	l0.01-0.03l0.11-0.23l0.01-0.02l0.11-0.23l0.01-0.02l0.11-0.23l0.01-0.02l0.11-0.23l0.01-0.03l0.11-0.23L7,101.77l0.11-0.23
	l0.01-0.03l0.11-0.23l0.01-0.02l0.11-0.23l0.01-0.02l0.11-0.23l0.01-0.02l0.11-0.23l0.01-0.02l0.12-0.22l0.01-0.02l0.12-0.23
	l0.02-0.03l0.12-0.23L8,99.76l0.12-0.23l0.01-0.03l0.12-0.22l0.01-0.02l0.12-0.22l0.01-0.02l0.12-0.22l0.01-0.03l0.12-0.22
	l0.02-0.02l0.12-0.22l0.01-0.03l0.12-0.22l0.02-0.02l0.12-0.22l0.01-0.02l0.12-0.22l0.02-0.03l0.13-0.22l0.01-0.02l0.12-0.22
	l0.01-0.02l0.13-0.22l0.01-0.02l0.13-0.22l0.01-0.02l0.13-0.22l0.02-0.02l0.13-0.22l0.01-0.02l0.13-0.22l0.02-0.02l0.13-0.22
	l0.01-0.02l0.13-0.22l0.02-0.02l0.13-0.22l0.01-0.02l0.14-0.22l0.02-0.03l0.14-0.22l0.01-0.02l0.13-0.21l0.02-0.02l0.14-0.21
	l0.02-0.02l0.13-0.22l0.01-0.02l0.14-0.21l0.01-0.02l0.14-0.21l0.02-0.02l0.14-0.22l0.02-0.02l0.14-0.21L12,93.02l0.14-0.21
	l0.01-0.02l0.14-0.21l0.01-0.02l0.15-0.21l0.02-0.02l0.14-0.21l0.02-0.02l0.15-0.21l0.01-0.02l0.15-0.21l0.01-0.02l0.15-0.21
	l0.01-0.02l0.15-0.21l0.02-0.02l0.15-0.21l0.01-0.02l0.15-0.21l0.02-0.02l0.15-0.2l0.01-0.02l0.15-0.21l0.02-0.02l0.15-0.2
	l0.02-0.02l0.15-0.2l0.02-0.02l0.15-0.2l0.02-0.02l0.15-0.2l0.01-0.02l0.15-0.2l0.02-0.02l0.16-0.2l0.02-0.02l0.16-0.2l0.02-0.02
	l0.16-0.2l0.02-0.02l0.16-0.2l0.02-0.02l0.16-0.2l0.02-0.03l0.16-0.2l0.01-0.02l0.16-0.2l0.02-0.02l0.16-0.2l0.02-0.02l0.16-0.19
	l0.02-0.02l0.16-0.2l0.02-0.02l0.16-0.2l0.02-0.02l0.17-0.19l0.02-0.02l0.16-0.2l0.02-0.02l0.16-0.19l0.02-0.02l0.16-0.2l0.02-0.02
	l0.17-0.2l0.01-0.02l0.17-0.19l0.02-0.02l0.17-0.19l0.02-0.02l0.17-0.19l0.02-0.02l0.17-0.19l0.01-0.02l0.17-0.19l0.02-0.02
	l0.17-0.19l0.02-0.02l0.17-0.19l0.01-0.02l0.17-0.19l0.02-0.02l0.18-0.19l0.01-0.02l0.18-0.19l0.02-0.02l0.19-0.18l0.02-0.02
	l0.18-0.19l0.02-0.02l0.18-0.19l0.02-0.02l0.18-0.18l0.02-0.02l0.18-0.18l0.02-0.02l0.18-0.18l0.02-0.02l0.19-0.18l0.02-0.02
	l0.18-0.18l0.02-0.02l0.18-0.18l0.02-0.02l0.18-0.18l0.02-0.02l0.18-0.18l0.02-0.02l0.18-0.18l0.02-0.02l0.18-0.18l0.02-0.02
	l0.18-0.18l0.02-0.02l0.19-0.17l0.02-0.02l0.19-0.17l0.02-0.02l0.19-0.18L23,80.17l0.19-0.18l0.02-0.01l0.19-0.17l0.02-0.01
	l0.19-0.17l0.02-0.02l0.19-0.17l0.02-0.02l0.19-0.17l0.02-0.02l0.19-0.17l0.02-0.01l0.2-0.17l0.02-0.02l0.2-0.17l0.02-0.02l0.2-0.17
	l0.02-0.02l0.2-0.16l0.02-0.02l0.2-0.16l0.02-0.02l0.19-0.16l0.02-0.02l0.2-0.16l0.02-0.02l0.2-0.16l0.02-0.01l0.2-0.16l0.02-0.02
	l0.2-0.16l0.02-0.02l0.2-0.16l0.02-0.02l0.21-0.16l0.02-0.02l0.2-0.16l0.02-0.02l0.21-0.16l0.02-0.02l0.21-0.16l0.02-0.02l0.2-0.16
	l0.02-0.01L28.01,76l0.02-0.02l0.2-0.16l0.02-0.02l0.21-0.15l0.02-0.02l0.21-0.16l0.02-0.02l0.21-0.15l0.02-0.01l0.21-0.15
	l0.03-0.02l0.21-0.15l0.02-0.01l0.21-0.15l0.02-0.02l0.21-0.16l0.02-0.01l0.22-0.15l0.02-0.02l0.21-0.15l0.03-0.01l0.21-0.15
	l0.02-0.01l0.21-0.15l0.02-0.01l0.22-0.15l0.02-0.02l0.21-0.15l0.02-0.01l0.22-0.14l0.02-0.01l0.21-0.15l0.03-0.02l0.22-0.14
	L32,73.16l0.22-0.15l0.02-0.02l0.22-0.14l0.03-0.01l0.22-0.14l0.02-0.02l0.22-0.14l0.02-0.01l0.22-0.14l0.02-0.01l0.22-0.14
	l0.02-0.01l0.22-0.14l0.03-0.01l0.22-0.13h0.01l100.51-62l0.01-0.01l0.21-0.13l0.02-0.01l0.22-0.14l0.03-0.02l0.22-0.13l0.03-0.02
	l0.22-0.13l0.03-0.02l0.22-0.13l0.03-0.01l0.23-0.13l0.02-0.02l0.22-0.13l0.03-0.01l0.22-0.13l0.02-0.01l0.23-0.12l0.02-0.02
	l0.23-0.12l0.02-0.02l0.22-0.12l0.03-0.01l0.23-0.12l0.02-0.02l0.22-0.12l0.03-0.02l0.22-0.12l0.03-0.02l0.22-0.12l0.02-0.02
	l0.23-0.12l0.02-0.01l0.22-0.12l0.03-0.01l0.22-0.12l0.03-0.01l0.23-0.12l0.03-0.01l0.23-0.12l0.02-0.01l0.23-0.11l0.03-0.01
	l0.23-0.11l0.03-0.01l0.22-0.11l0.03-0.01l0.23-0.11l0.02-0.01l0.23-0.11l0.03-0.01l0.23-0.11l0.03-0.02l0.23-0.11l0.03-0.01
	l0.23-0.11l0.03-0.01l0.23-0.1l0.03-0.01l0.23-0.1l0.02-0.02l0.23-0.1l0.02-0.01l0.23-0.1l0.03-0.02l0.23-0.1l0.03-0.01l0.23-0.1
	l0.03-0.01l0.23-0.1l0.03-0.01l0.23-0.1l0.03-0.01l0.23-0.1l0.03-0.01l0.23-0.09l0.03-0.01l0.23-0.1l0.03-0.01l0.24-0.1l0.03-0.01
	l0.24-0.1l0.03-0.02l0.23-0.09l0.02-0.01l0.24-0.09l0.03-0.01l0.23-0.09l0.02-0.01l0.24-0.09l0.03-0.01l0.24-0.08l0.03-0.01
	l0.24-0.09l0.03-0.01l0.24-0.09l0.03-0.01l0.24-0.08l0.03-0.01l0.24-0.08l0.03-0.01l0.23-0.08l0.03-0.01l0.24-0.08l0.03-0.01
	l0.23-0.08l0.03-0.01l0.24-0.08l0.02-0.01l0.24-0.08l0.03-0.01l0.24-0.08l0.03-0.01l0.24-0.08l0.03-0.01l0.24-0.07l0.02-0.01
	l0.24-0.07l0.03-0.01L149.88,3h0.03l0.24-0.07l0.03-0.01l0.24-0.07l0.02-0.01l0.24-0.07l0.02-0.01l0.24-0.07l0.03-0.01l0.24-0.07
	l0.03-0.01l0.24-0.07l0.03-0.01l0.24-0.06l0.03-0.01l0.24-0.06l0.02-0.01l0.24-0.07l0.02-0.01l0.25-0.06h0.02l0.24-0.07h0.03
	l0.25-0.06l0.03-0.01l0.25-0.06l0.03-0.01l0.24-0.06h0.03l0.25-0.06h0.03l0.24-0.06l0.03-0.01l0.24-0.05l0.03-0.01l0.24-0.06
	l0.03-0.01L155,1.66h0.03l0.24-0.05l0.03-0.01l0.24-0.05h0.02l0.24-0.05l0.03-0.01l0.25-0.05h0.02l0.25-0.05l0.02-0.01l0.25-0.05
	l0.03-0.01l0.25-0.05l0.03-0.01l0.25-0.04h0.03l0.24-0.04l0.03-0.01l0.25-0.05l0.03-0.01l0.25-0.04h0.03l0.24-0.04l0.03-0.01
	l0.25-0.04l0.03-0.01l0.24-0.04h0.02l0.24-0.04h0.03l0.25-0.04l0.03-0.01l0.25-0.04h0.03l0.25-0.04h0.03l0.25-0.04h0.03l0.25-0.03
	h0.03l0.24-0.03h0.03l0.25-0.03l0.03-0.01l0.25-0.03l0.02-0.01l0.25-0.02h0.03l0.24-0.03h0.03l0.24-0.03h0.03l0.25-0.03h0.03
	l0.25-0.03h0.03l0.24-0.02h0.03l0.25-0.03l0.03-0.01l0.25-0.02l0.03-0.01l0.25-0.02h0.03l0.25-0.02h0.03l0.25-0.02h0.03l0.25-0.01
	l0.03-0.01l0.25-0.02l0.02-0.01l0.25-0.01h0.03l0.25-0.02h0.02l0.25-0.01h0.03l0.25-0.01h0.03l0.25-0.01h0.03l0.25-0.01l0.03-0.01
	l0.25-0.01h0.03l0.25-0.01h0.03l0.25-0.01h0.03l0.25-0.01h0.03l0.25-0.01H168l0.25-0.01h0.31l0.25-0.01h0.58L169.44,0z M169.21,27
	h-0.16l-0.16,0h-0.16l-0.17,0l-0.17,0l-0.17,0.01l-0.17,0.01l-0.17,0.01l-0.17,0.01l-0.16,0.01l-0.17,0.01l-0.16,0.01l-0.16,0.01
	l-0.16,0.01l-0.17,0.01l-0.16,0.01l-0.17,0.02l-0.17,0.02l-0.16,0.02l-0.17,0.02l-0.17,0.02l-0.17,0.02l-0.16,0.02l-0.17,0.02
	l-0.16,0.02l-0.16,0.02l-0.17,0.02l-0.16,0.02l-0.16,0.02l-0.16,0.02l-0.16,0.02l-0.17,0.02l-0.16,0.03l-0.16,0.02l-0.17,0.03
	l-0.16,0.03l-0.16,0.03l-0.16,0.03l-0.16,0.03l-0.16,0.03l-0.16,0.03l-0.16,0.02l-0.17,0.03l-0.16,0.03l-0.17,0.03l-0.16,0.03
	l-0.16,0.03l-0.16,0.03l-0.16,0.04l-0.16,0.04l-0.16,0.04l-0.16,0.03l-0.16,0.03l-0.16,0.04l-0.16,0.04l-0.16,0.04l-0.16,0.04
	l-0.16,0.04l-0.16,0.04l-0.16,0.04l-0.16,0.04l-0.16,0.04l-0.16,0.04l-0.16,0.05l-0.16,0.04l-0.16,0.05l-0.15,0.05l-0.16,0.05
	l-0.16,0.05l-0.16,0.05l-0.16,0.05l-0.16,0.05l-0.15,0.05l-0.16,0.05l-0.16,0.06l-0.16,0.05l-0.16,0.05l-0.16,0.06l-0.16,0.05
	l-0.16,0.05l-0.15,0.05l-0.16,0.06l-0.16,0.06l-0.16,0.06l-0.15,0.06l-0.16,0.06l-0.15,0.06l-0.15,0.06l-0.16,0.07l-0.16,0.06
	l-0.16,0.06l-0.16,0.06l-0.15,0.07l-0.15,0.06l-0.16,0.07l-0.15,0.07l-0.15,0.07l-0.15,0.07l-0.16,0.07l-0.15,0.07l-0.16,0.07
	l-0.15,0.07l-0.15,0.07l-0.15,0.07l-0.16,0.07l-0.15,0.07l-0.15,0.07l-0.15,0.08l-0.15,0.08l-0.15,0.07l-0.15,0.08l-0.15,0.07
	l-0.15,0.08l-0.15,0.08l-0.15,0.08l-0.15,0.08l-0.15,0.08l-0.15,0.09l-0.14,0.08l-0.15,0.08l-0.14,0.08l-0.15,0.09l-0.15,0.09
	l-0.15,0.09l-0.14,0.08l-0.15,0.09l-0.14,0.09l-0.15,0.09l-0.15,0.09l-0.16,0.1L48.24,94.9l-0.17,0.11l-0.16,0.1l-0.15,0.1
	l-0.15,0.1l-0.15,0.1l-0.15,0.1l-0.15,0.1l-0.15,0.1l-0.15,0.1l-0.15,0.1L46.56,96l-0.15,0.1l-0.15,0.11l-0.14,0.1l-0.14,0.1
	l-0.15,0.1l-0.14,0.1l-0.14,0.1l-0.14,0.1l-0.14,0.1l-0.14,0.1l-0.14,0.1l-0.14,0.11l-0.14,0.1l-0.14,0.11l-0.14,0.11l-0.14,0.11
	l-0.14,0.11l-0.14,0.11l-0.14,0.11l-0.13,0.11L43.6,98.2l-0.14,0.11l-0.13,0.11l-0.14,0.11l-0.14,0.11l-0.13,0.11l-0.14,0.11
	l-0.13,0.11l-0.13,0.11l-0.13,0.12l-0.13,0.12l-0.13,0.11L42,99.54l-0.13,0.12l-0.13,0.12l-0.13,0.12l-0.13,0.12l-0.13,0.12
	l-0.13,0.12l-0.13,0.12l-0.13,0.12l-0.13,0.12l-0.13,0.12l-0.13,0.12l-0.12,0.12l-0.13,0.12l-0.12,0.13l-0.13,0.12l-0.12,0.13
	l-0.12,0.12l-0.12,0.13l-0.12,0.12l-0.12,0.13l-0.12,0.13l-0.13,0.13l-0.12,0.12l-0.12,0.13l-0.12,0.13l-0.12,0.13l-0.11,0.13
	l-0.12,0.13l-0.12,0.13l-0.12,0.13l-0.12,0.14l-0.12,0.13l-0.11,0.13l-0.11,0.13l-0.12,0.14l-0.11,0.13l-0.12,0.13l-0.11,0.14
	l-0.11,0.13l-0.11,0.14l-0.11,0.14l-0.11,0.14l-0.11,0.14l-0.11,0.14l-0.11,0.14l-0.1,0.14l-0.11,0.14l-0.11,0.14l-0.11,0.14
	l-0.11,0.14l-0.1,0.14l-0.1,0.14l-0.1,0.14l-0.1,0.15l-0.1,0.14l-0.1,0.14l-0.1,0.15l-0.1,0.14l-0.1,0.14l-0.1,0.14l-0.1,0.14
	l-0.09,0.15l-0.1,0.15l-0.1,0.14l-0.1,0.15l-0.09,0.15l-0.09,0.14l-0.09,0.15l-0.09,0.15l-0.09,0.15l-0.09,0.15l-0.1,0.15l-0.1,0.15
	l-0.09,0.15l-0.09,0.15l-0.09,0.15l-0.09,0.15l-0.09,0.15l-0.09,0.15l-0.09,0.15l-0.09,0.15L33,110.71l-0.09,0.15l-0.09,0.16
	l-0.09,0.15l-0.09,0.15l-0.09,0.16l-0.08,0.15l-0.08,0.16l-0.08,0.16l-0.08,0.16l-0.08,0.15l-0.08,0.15l-0.08,0.16l-0.08,0.15
	l-0.08,0.16l-0.07,0.15l-0.08,0.16l-0.08,0.16l-0.08,0.16l-0.08,0.16l-0.08,0.16l-0.07,0.16l-0.07,0.16l-0.07,0.16l-0.07,0.16
	l-0.07,0.16l-0.07,0.16l-0.07,0.16l-0.07,0.16l-0.07,0.16l-0.06,0.16l-0.07,0.16l-0.07,0.17l-0.07,0.16l-0.07,0.16l-0.07,0.16
	l-0.06,0.16l-0.07,0.17l-0.07,0.16l-0.06,0.16L30,117.06l-0.06,0.16l-0.06,0.17l-0.06,0.16l-0.06,0.17l-0.06,0.17l-0.06,0.17
	l-0.05,0.17l-0.06,0.16l-0.06,0.17l-0.05,0.17l-0.05,0.16l-0.05,0.17l-0.06,0.17l-0.05,0.16l-0.05,0.16l-0.05,0.17l-0.06,0.17
	L29,120.06l-0.05,0.16l-0.05,0.17l-0.05,0.17l-0.05,0.17l-0.05,0.17l-0.05,0.17l-0.04,0.17l-0.04,0.17l-0.05,0.17l-0.04,0.17
	l-0.05,0.17l-0.04,0.17l-0.04,0.17l-0.04,0.18l-0.04,0.17l-0.04,0.17l-0.04,0.17l-0.04,0.17l-0.04,0.17l-0.04,0.17l-0.03,0.17
	l-0.04,0.17l-0.03,0.17l-0.03,0.18l-0.03,0.18l-0.03,0.18l-0.03,0.18l-0.03,0.17l-0.03,0.17l-0.03,0.18l-0.03,0.18l-0.03,0.17
	l-0.03,0.17l-0.03,0.17l-0.03,0.18l-0.02,0.18l-0.02,0.18l-0.02,0.17l-0.03,0.18l-0.03,0.17l-0.02,0.18l-0.02,0.18l-0.02,0.18
	l-0.02,0.18l-0.02,0.18l-0.02,0.18l-0.02,0.17l-0.02,0.18l-0.02,0.18l-0.01,0.18l-0.02,0.18l-0.02,0.18l-0.01,0.18l-0.01,0.18
	l-0.01,0.18l-0.01,0.18L27.26,130l-0.01,0.18l-0.01,0.18l-0.01,0.18l-0.01,0.18l-0.01,0.18v0.18l-0.01,0.18l-0.01,0.18v0.18
	l-0.01,0.18v126.8l0.01,0.18v0.54l0.01,0.17l0.01,0.18l0.01,0.18l0.01,0.18l0.01,0.18l0.01,0.18l0.01,0.18l0.01,0.18l0.01,0.18
	l0.02,0.18l0.01,0.18l0.01,0.18l0.01,0.18l0.02,0.17l0.02,0.18l0.02,0.17l0.01,0.18l0.02,0.17l0.02,0.17l0.02,0.17l0.02,0.17
	l0.02,0.18l0.02,0.17l0.02,0.17l0.02,0.18l0.02,0.18l0.02,0.17l0.02,0.18l0.03,0.17l0.03,0.17l0.03,0.17l0.03,0.17l0.03,0.18
	l0.03,0.17l0.03,0.17l0.03,0.17l0.03,0.17l0.04,0.17l0.03,0.17l0.03,0.17l0.03,0.17l0.04,0.17l0.04,0.17l0.03,0.17l0.04,0.17
	l0.04,0.17l0.04,0.17l0.04,0.17l0.04,0.17l0.04,0.17l0.04,0.17l0.04,0.16l0.05,0.16l0.04,0.17l0.04,0.17l0.04,0.17l0.05,0.17
	l0.04,0.16l0.04,0.17l0.04,0.16l0.05,0.17l0.04,0.16l0.05,0.17l0.05,0.17l0.05,0.16l0.05,0.17l0.05,0.17l0.05,0.16l0.05,0.17
	l0.06,0.16l0.06,0.16l0.06,0.16l0.06,0.16l0.05,0.16l0.06,0.17l0.06,0.16l0.06,0.16l0.06,0.16l0.06,0.16l0.06,0.16l0.06,0.16
	l0.06,0.16l0.06,0.16l0.06,0.16l0.07,0.16l0.07,0.16l0.06,0.16l0.06,0.16l0.06,0.16l0.06,0.16l0.06,0.16l0.07,0.16l0.07,0.16
	l0.07,0.16l0.07,0.16l0.07,0.16l0.07,0.16l0.07,0.16l0.07,0.16l0.07,0.16l0.07,0.16l0.07,0.16l0.07,0.15l0.08,0.16l0.08,0.15
	l0.08,0.16l0.08,0.15l0.08,0.15l0.08,0.15l0.08,0.15l0.08,0.15l0.08,0.15l0.09,0.15l0.08,0.15l0.08,0.15l0.08,0.15l0.09,0.15
	l0.09,0.15l0.08,0.15l0.08,0.15l0.08,0.15l0.09,0.15l0.08,0.15l0.09,0.14l0.09,0.15l0.09,0.14l0.09,0.15l0.09,0.15l0.09,0.14
	l0.09,0.14l0.09,0.14l0.09,0.14l0.09,0.15l0.09,0.15l0.1,0.14l0.09,0.14l0.09,0.15l0.09,0.14l0.09,0.14l0.1,0.14l0.1,0.14l0.1,0.15
	l0.1,0.14l0.1,0.14l0.1,0.14l0.1,0.14l0.1,0.14l0.1,0.14l0.1,0.14l0.11,0.14l0.11,0.14l0.1,0.14l0.1,0.14l0.1,0.14l0.1,0.14
	l0.11,0.13l0.11,0.13l0.11,0.14l0.11,0.13l0.11,0.14l0.11,0.13l0.11,0.13l0.11,0.13l0.11,0.13l0.11,0.13l0.11,0.13l0.11,0.13
	l0.11,0.13l0.11,0.13l0.11,0.13l0.11,0.13l0.12,0.13l0.12,0.13l0.11,0.13l0.12,0.12l0.12,0.13l0.12,0.12l0.12,0.13l0.11,0.13
	l0.12,0.13l0.12,0.12l0.12,0.12l0.12,0.12l0.12,0.12l0.12,0.13l0.12,0.12l0.12,0.12l0.12,0.12l0.12,0.12l0.12,0.12l0.13,0.12
	l0.12,0.12l0.12,0.12l0.13,0.12l0.12,0.12l0.12,0.12l0.13,0.12l0.13,0.11l0.13,0.11l0.13,0.12l0.13,0.12l0.13,0.11l0.13,0.11
	l0.13,0.12l0.13,0.12l0.13,0.11l0.14,0.11l0.14,0.11l0.14,0.11l0.13,0.11l0.13,0.11l0.14,0.11l0.13,0.11l0.14,0.1l0.13,0.11
	l0.14,0.11l0.14,0.11l0.14,0.11l0.13,0.1l0.14,0.11l0.14,0.1l0.14,0.11l0.14,0.11l0.14,0.1l0.14,0.1l0.15,0.1l0.14,0.1l0.14,0.1
	l0.14,0.1l0.14,0.1l0.14,0.1l0.14,0.1l0.15,0.1l0.15,0.09l0.15,0.1l0.14,0.1l0.15,0.1l0.15,0.1l0.14,0.09l0.15,0.09l0.15,0.09
	l0.15,0.09l0.15,0.09l0.15,0.09l0.16,0.09l0.15,0.09l0.15,0.09l0.17,0.1l104.68,61.2l0.13,0.08l0.11,0.06l0.12,0.06l0.12,0.06
	l0.12,0.06l0.11,0.07l0.12,0.06l0.12,0.06l0.12,0.06l0.12,0.07l0.12,0.06l0.12,0.06l0.12,0.06l0.12,0.06l0.12,0.06l0.12,0.06
	l0.12,0.06l0.12,0.06l0.11,0.06l0.12,0.06l0.12,0.06l0.12,0.05l0.12,0.06l0.12,0.05l0.12,0.05l0.12,0.05l0.12,0.06l0.12,0.06
	l0.12,0.05l0.12,0.06l0.12,0.05l0.12,0.05l0.12,0.05l0.12,0.05l0.12,0.05l0.12,0.05l0.12,0.05l0.12,0.05l0.12,0.05l0.12,0.04
	l0.13,0.05l0.12,0.05l0.12,0.05l0.12,0.05l0.12,0.05l0.12,0.04l0.12,0.05l0.12,0.04l0.12,0.04l0.13,0.04l0.12,0.04l0.11,0.04
	l0.26,0.08l0.25,0.08l0.25,0.07l0.25,0.07l0.25,0.07l0.25,0.07l0.25,0.07l0.25,0.07l0.25,0.07l0.25,0.06l0.25,0.06l0.25,0.06
	l0.25,0.05l0.25,0.06l0.25,0.05l0.25,0.05l0.25,0.05l0.25,0.04l0.25,0.05l0.25,0.04l0.25,0.04l0.26,0.04l0.25,0.04l0.26,0.03
	l0.26,0.03l0.26,0.03l0.26,0.02l0.25,0.02l0.26,0.02l0.25,0.02l0.26,0.02l0.26,0.02l0.25,0.02l0.25,0.01l0.25,0.01l0.26,0.01h1.28
	l0.26-0.01h0.26l0.26-0.01l0.26-0.01l0.26-0.02l0.26-0.02l0.26-0.01l0.26-0.02l0.26-0.02l0.26-0.02l0.25-0.02l0.26-0.03l0.26-0.03
	l0.25-0.03l0.26-0.03l0.25-0.04l0.26-0.04l0.25-0.04l0.26-0.04l0.25-0.04l0.25-0.05l0.25-0.04l0.26-0.05l0.25-0.05l0.25-0.06
	l0.25-0.05l0.25-0.06l0.25-0.06l0.25-0.06l0.25-0.06l0.25-0.07l0.25-0.07l0.25-0.07l0.25-0.07l0.26-0.08l0.12-0.04l0.12-0.04
	l0.12-0.04l0.13-0.04l0.12-0.04l0.13-0.04l0.12-0.04l0.12-0.04l0.13-0.04l0.12-0.04l0.12-0.04l0.13-0.05l0.12-0.04l0.13-0.04
	l0.12-0.05l0.12-0.04l0.12-0.04l0.12-0.04l0.13-0.05l0.12-0.04l0.12-0.05l0.12-0.05l0.12-0.05l0.12-0.05l0.12-0.05l0.12-0.05
	l0.12-0.05l0.12-0.05l0.12-0.05l0.12-0.05l0.12-0.06l0.12-0.06l0.12-0.05l0.12-0.06l0.12-0.06l0.12-0.05l0.12-0.06l0.12-0.06
	l0.12-0.06l0.11-0.06l0.12-0.06l0.12-0.06l0.12-0.06l0.12-0.06l0.12-0.06l0.12-0.06l0.12-0.06l0.12-0.06l0.11-0.06l0.12-0.06
	l0.12-0.06l0.13-0.07l115.97-64.63l0.14-0.07l0.13-0.07l0.12-0.07l0.12-0.07l0.12-0.07l0.12-0.08l0.13-0.07l0.12-0.07l0.12-0.07
	l0.12-0.07l0.12-0.08l0.12-0.08l0.12-0.07l0.12-0.07l0.12-0.07l0.12-0.08l0.12-0.08l0.12-0.07l0.12-0.08l0.12-0.07l0.11-0.08
	l0.11-0.08l0.11-0.08l0.11-0.08l0.11-0.08l0.12-0.08l0.11-0.08l0.12-0.08l0.11-0.08l0.11-0.08l0.11-0.08l0.11-0.08l0.11-0.08
	l0.12-0.08l0.11-0.09l0.11-0.08l0.11-0.09l0.11-0.08l0.11-0.09l0.11-0.09l0.11-0.09l0.11-0.08l0.11-0.08l0.11-0.09l0.1-0.09
	l0.11-0.09l0.11-0.09l0.1-0.08l0.11-0.09l0.11-0.1l0.1-0.09l0.11-0.09l0.1-0.09l0.1-0.09l0.1-0.1l0.11-0.09l0.1-0.1l0.1-0.09
	l0.1-0.1l0.1-0.1l0.1-0.09l0.1-0.1l0.1-0.09l0.1-0.1l0.1-0.1l0.1-0.1l0.1-0.1l0.09-0.1l0.1-0.1l0.09-0.1l0.1-0.1l0.1-0.1l0.1-0.1
	l0.09-0.1l0.09-0.1l0.09-0.1l0.09-0.1l0.1-0.1l0.09-0.1l0.09-0.1l0.09-0.1l0.09-0.1l0.09-0.1l0.09-0.1l0.09-0.1l0.09-0.11l0.09-0.11
	l0.09-0.11l0.09-0.1l0.09-0.1l0.09-0.1l0.09-0.11l0.09-0.1l0.09-0.11l0.08-0.1l0.08-0.11l0.08-0.11l0.08-0.1l0.09-0.11l0.08-0.11
	l0.08-0.11l0.08-0.11l0.08-0.11l0.08-0.11l0.08-0.11l0.08-0.11l0.08-0.11l0.08-0.11l0.08-0.11l0.08-0.11l0.08-0.11l0.07-0.11
	l0.07-0.12l0.08-0.12l0.08-0.11l0.07-0.11l0.07-0.11l0.08-0.12l0.08-0.11l0.07-0.11l0.07-0.12l0.07-0.12l0.07-0.12l0.07-0.12
	l0.07-0.11l0.07-0.12l0.07-0.12l0.07-0.11l0.07-0.12l0.07-0.12l0.07-0.12l0.06-0.12l0.06-0.12l0.07-0.12l0.07-0.12l0.06-0.12
	l0.07-0.12l0.07-0.12l0.06-0.12l0.06-0.12l0.06-0.13l0.06-0.12l0.07-0.12l0.07-0.12l0.06-0.12l0.06-0.12l0.06-0.12l0.06-0.13
	l0.06-0.12l0.06-0.12l0.06-0.13l0.06-0.12l0.06-0.12l0.06-0.13l0.06-0.13l0.06-0.13l0.06-0.12l0.05-0.12l0.05-0.13l0.05-0.13
	l0.05-0.13l0.05-0.12l0.05-0.13l0.05-0.13l0.05-0.13l0.05-0.12l0.05-0.13l0.05-0.13l0.05-0.13l0.05-0.13l0.05-0.13l0.04-0.13
	l0.04-0.13l0.04-0.13l0.04-0.13l0.05-0.13l0.05-0.13l0.05-0.13l0.05-0.13l0.04-0.13l0.05-0.13l0.04-0.13l0.04-0.13l0.05-0.13
	l0.04-0.13l0.04-0.13l0.04-0.13l0.04-0.13l0.03-0.13l0.04-0.13l0.04-0.13l0.04-0.13l0.04-0.13l0.03-0.13l0.03-0.14l0.04-0.13
	l0.03-0.13l0.03-0.14l0.04-0.13l0.03-0.13l0.03-0.13l0.03-0.13l0.03-0.14l0.03-0.13l0.03-0.13l0.02-0.14l0.03-0.14l0.03-0.13
	l0.02-0.14l0.03-0.13l0.03-0.14l0.03-0.14l0.03-0.13l0.03-0.14l0.02-0.14l0.03-0.14l0.02-0.13l0.03-0.13l0.02-0.14l0.02-0.14
	l0.02-0.14l0.02-0.14l0.02-0.14l0.02-0.14l0.02-0.14l0.01-0.14l0.02-0.13l0.01-0.14l0.02-0.14l0.02-0.13l0.02-0.14l0.01-0.14
	l0.01-0.14l0.01-0.14l0.01-0.14l0.02-0.14l0.01-0.14l0.01-0.14l0.01-0.14l0.01-0.14l0.01-0.14l0.01-0.14l0.01-0.14l0.01-0.14
	l0.01-0.14l0.01-0.14l0.01-0.14v-0.28l0.01-0.14V125.12L317.8,125l-0.01-0.13v-0.13l-0.01-0.13v-0.13l-0.01-0.13v-0.13l-0.01-0.13
	l-0.01-0.12l-0.01-0.13l-0.01-0.13l-0.01-0.13l-0.01-0.12l-0.01-0.13l-0.01-0.12l-0.01-0.13l-0.02-0.13l-0.01-0.12l-0.01-0.12
	l-0.02-0.12l-0.01-0.12l-0.02-0.13l-0.01-0.12l-0.02-0.12l-0.02-0.13l-0.01-0.13l-0.01-0.12l-0.02-0.11l-0.04-0.26l-0.03-0.26
	l-0.04-0.26l-0.04-0.25l-0.05-0.25l-0.05-0.25l-0.04-0.25l-0.05-0.25l-0.06-0.25l-0.06-0.25l-0.06-0.25l-0.06-0.25l-0.06-0.25
	l-0.06-0.25l-0.06-0.25l-0.07-0.25l-0.07-0.25l-0.07-0.25l-0.08-0.25l-0.07-0.24l-0.08-0.24l-0.08-0.24l-0.08-0.24l-0.08-0.24
	l-0.09-0.24l-0.09-0.24l-0.09-0.23l-0.09-0.24l-0.09-0.24l-0.09-0.24l-0.1-0.23l-0.09-0.24l-0.1-0.23l-0.1-0.23l-0.1-0.23
	l-0.11-0.23l-0.1-0.23l-0.11-0.23l-0.11-0.23l-0.11-0.22l-0.12-0.23l-0.11-0.23l-0.12-0.23l-0.12-0.22l-0.12-0.22l-0.12-0.22
	l-0.12-0.22l-0.12-0.22l-0.13-0.22l-0.13-0.22l-0.13-0.22l-0.14-0.22l-0.13-0.21l-0.13-0.21l-0.14-0.21l-0.14-0.21l-0.14-0.21
	l-0.14-0.21l-0.14-0.21l-0.14-0.21l-0.15-0.2l-0.15-0.2l-0.15-0.2l-0.15-0.2l-0.15-0.2l-0.16-0.2l-0.16-0.2l-0.16-0.2l-0.16-0.2
	l-0.16-0.19l-0.17-0.19l-0.16-0.19l-0.17-0.19l-0.17-0.19l-0.17-0.19l-0.17-0.19l-0.17-0.19l-0.18-0.18l-0.18-0.18l-0.18-0.18
	l-0.18-0.18l-0.18-0.18l-0.19-0.18l-0.19-0.18l-0.19-0.17l-0.19-0.17l-0.19-0.17l-0.19-0.17l-0.19-0.17l-0.2-0.17l-0.2-0.16
	l-0.2-0.16l-0.19-0.16l-0.21-0.17l-0.09-0.07l-0.1-0.08l-0.1-0.08l-0.1-0.08l-0.1-0.08l-0.1-0.07l-0.1-0.08l-0.1-0.08l-0.11-0.08
	l-0.11-0.08l-0.1-0.08l-0.1-0.08l-0.1-0.08l-0.1-0.07l-0.1-0.08l-0.11-0.08l-0.1-0.07l-0.1-0.07l-0.11-0.08l-0.11-0.07l-0.11-0.07
	l-0.1-0.07l-0.11-0.07l-0.11-0.07l-0.11-0.07l-0.11-0.07l-0.11-0.07l-0.11-0.07l-0.11-0.07l-0.11-0.07l-0.11-0.07l-0.11-0.06
	l-0.11-0.06l-0.13-0.07L189.2,32.41l-0.16-0.1l-0.15-0.08l-0.15-0.09l-0.15-0.09l-0.15-0.08l-0.15-0.08l-0.15-0.08L188,31.73
	l-0.15-0.08l-0.15-0.08l-0.15-0.08l-0.15-0.08l-0.15-0.08l-0.15-0.08l-0.15-0.08l-0.15-0.08l-0.15-0.08l-0.15-0.07l-0.15-0.08
	l-0.15-0.07l-0.15-0.07l-0.15-0.08l-0.15-0.07l-0.15-0.07l-0.15-0.07l-0.16-0.07l-0.15-0.07l-0.15-0.06l-0.15-0.07l-0.15-0.07
	l-0.15-0.07l-0.15-0.06l-0.15-0.06l-0.16-0.06l-0.15-0.07l-0.16-0.06l-0.16-0.07l-0.16-0.06l-0.15-0.06l-0.15-0.06l-0.16-0.06
	l-0.16-0.06l-0.16-0.06l-0.15-0.06l-0.15-0.05l-0.15-0.05l-0.16-0.06l-0.16-0.05l-0.15-0.05l-0.16-0.05l-0.16-0.05l-0.15-0.05
	l-0.16-0.05l-0.16-0.05l-0.16-0.05l-0.15-0.05l-0.16-0.05l-0.16-0.05l-0.16-0.05l-0.16-0.04l-0.16-0.05l-0.16-0.04l-0.16-0.05
	l-0.16-0.04l-0.16-0.04l-0.16-0.04l-0.16-0.05l-0.16-0.04l-0.16-0.04L178.39,28l-0.16-0.04l-0.16-0.04l-0.16-0.04l-0.16-0.03
	l-0.16-0.04l-0.16-0.03l-0.16-0.03l-0.16-0.04l-0.16-0.03l-0.16-0.03l-0.16-0.03l-0.16-0.03l-0.16-0.03l-0.16-0.03l-0.17-0.03
	l-0.16-0.02l-0.16-0.02l-0.16-0.02l-0.16-0.02l-0.16-0.03l-0.16-0.03l-0.16-0.02l-0.17-0.03l-0.16-0.02l-0.16-0.03l-0.16-0.02
	l-0.16-0.02l-0.16-0.02l-0.16-0.02l-0.16-0.02l-0.17-0.02l-0.16-0.01l-0.16-0.02l-0.16-0.02l-0.16-0.01l-0.16-0.01l-0.16-0.01
	l-0.16-0.01l-0.16-0.01l-0.17-0.01l-0.17-0.01l-0.16-0.01L171.46,27h-0.16l-0.16-0.01l-0.16-0.01h-0.17l-0.16-0.01l-0.16-0.01
	l-0.15-0.01l-0.16-0.01h-0.33l-0.16-0.01h-0.32L169.21,27z"/>
<text transform="matrix(0.9 0 0 1 417.359 167.27)"><tspan x="0" y="0" class="st1 st3 st4 st5">Hugo</tspan><tspan x="0" y="168" class="st6 st3 st7 st8">In Action</tspan></text>
</svg>
