<?xml version="1.0" encoding="utf-8"?>
<svg version="1.1"
  xmlns="http://www.w3.org/2000/svg"
  xmlns:xlink="http://www.w3.org/1999/xlink" x="0px" y="0px" viewBox="0 0 1200 600" style="enable-background:new 0 0 1200 600;" xml:space="preserve">
  <style type="text/css">
	.st0{opacity:0.15;clip-path:url(#SVGID_2_);fill:url(#XMLID_2_);}
	.st1{clip-path:url(#SVGID_2_);}
	.st2{fill:none;stroke:#4f46e5;stroke-width:4;stroke-miterlimit:10;opacity: 0.2}
	.st3{fill:none;stroke:#4f46e5;stroke-width:4;stroke-miterlimit:10;opacity: 0.1}
	.st4{fill:none;stroke:#4f46e5;stroke-width:4;stroke-miterlimit:10;opacity: 0.15}
	.st5{fill:none;stroke:#4f46e5;stroke-width:4;stroke-miterlimit:10;opacity: 0.07}
	.st6{fill:#4f46e5; opacity: 0.2}
	.st7{fill:#4f46e5; opacity: 0.1}
	.st8{fill:#4f46e5; opacity: 0.15}
	.st9{fill:#4f46e5; opacity: 0.07}
  </style>
  <g id="BACKGROUND">
    <g>
      <defs>
        <rect id="SVGID_1_" width="1200" height="600"/>
      </defs>
      <clipPath id="SVGID_2_">
        <use xlink:href="#SVGID_1_" style="overflow:visible;"/>
      </clipPath>
      <g class="st1">
        <g>
          <polygon class="st2" points="506.7,133.3 492.3,129 496.7,114.6 485.9,111.3 481.6,125.7 467.2,121.4 463.9,132.1 478.3,136.5
					474,150.9 484.7,154.1 489.1,139.7 503.5,144.1 				"/>
          <polygon class="st3" points="294.6,568.9 288.6,555.1 302.5,549.1 298,538.8 284.2,544.7 278.3,530.9 268,535.3 273.9,549.2
					260,555.1 264.5,565.4 278.3,559.5 284.2,573.3 				"/>
          <polygon class="st4" points="1124.4,206.3 1124.1,191.3 1139.2,191 1139,179.7 1123.9,180 1123.6,165 1112.4,165.2
					1112.7,180.3 1097.6,180.6 1097.8,191.8 1112.9,191.5 1113.2,206.5 				"/>
          <polygon class="st5" points="1011.1,535.2 992.5,529.6 998.1,511 984.2,506.8 978.6,525.4 960,519.8 955.8,533.7 974.4,539.3
					968.8,557.9 982.6,562.1 988.3,543.5 1006.9,549.1 				"/>
        </g>
        <g>
          <polygon class="st2" points="221.4,304.1 207,299.7 211.3,285.3 200.6,282.1 196.2,296.5 181.8,292.1 178.5,302.9 193,307.3
					188.6,321.7 199.4,324.9 203.7,310.5 218.1,314.9 				"/>
          <polygon class="st3" points="1115.5,605.3 1109.6,591.5 1123.4,585.5 1119,575.2 1105.2,581.1 1099.3,567.3 1088.9,571.7
					1094.9,585.5 1081,591.5 1085.4,601.8 1099.3,595.9 1105.2,609.7 				"/>
          <polygon class="st4" points="726.1,471 725.8,455.9 740.8,455.6 740.6,444.4 725.5,444.7 725.2,429.6 714,429.8 714.3,444.9
					699.3,445.2 699.5,456.4 714.5,456.1 714.8,471.2 				"/>
          <polygon class="st5" points="1044.3,288.2 1025.7,282.5 1031.3,263.9 1017.4,259.7 1011.8,278.3 993.2,272.7 989,286.6
					1007.6,292.2 1002,310.8 1015.9,315 1021.5,296.4 1040.1,302.1 				"/>
        </g>
        <g>
          <g>
            <circle class="st4" cx="350.6" cy="138.8" r="19.3"/>
            <circle class="st5" cx="964.4" cy="138.8" r="19.3"/>

            <rect x="768.5" y="156.5" transform="matrix(0.7071 0.7071 -0.7071 0.7071 343.7108 -500.8486)" class="st2" width="15.9" height="15.9"/>

            <rect x="375.1" y="447.6" transform="matrix(0.7071 0.7071 -0.7071 0.7071 438.8774 -139.2991)" class="st2" width="25" height="25"/>

            <rect x="82.7" y="261.2" transform="matrix(0.7071 0.7071 -0.7071 0.7071 221.4277 12.8935)" class="st3" width="25" height="25"/>
            <polygon class="st5" points="639.4,172 630,137.1 604.4,162.6 					"/>
            <polygon class="st2" points="240.4,27 204.3,28.8 223.9,59.2 					"/>
            <polygon class="st3" points="602.4,539.1 632.6,519.1 600.2,502.9 					"/>
            <polygon class="st3" points="1082.8,89.2 1113,69.2 1080.7,53 					"/>
            <g>
              <line class="st4" x1="844.3" y1="427.9" x2="870.7" y2="464.3"/>
              <line class="st4" x1="830" y1="438.3" x2="856.4" y2="474.7"/>
            </g>
            <g>
              <line class="st4" x1="91.8" y1="521.5" x2="58.4" y2="551.7"/>
              <line class="st4" x1="80" y1="508.4" x2="46.6" y2="538.5"/>
            </g>
            <g>
              <line class="st5" x1="169" y1="158" x2="210.3" y2="140.2"/>
              <line class="st5" x1="176" y1="174.3" x2="217.3" y2="156.4"/>
            </g>
            <g>
              <polyline class="st2" points="933.9,398.3 950.9,406.3 968,398.3 985,406.3 1002,398.3 1019.1,406.3 						"/>
            </g>
            <g>
              <g>
                <polyline class="st5" points="1114.9,442.1 1137,450.1 1159,442.1 1181.1,450.1 1203.2,442.1 1225.2,450.1 							"/>
              </g>
              <g>
                <polyline class="st3" points="1114.9,418.5 1137,426.5 1159,418.5 1181.1,426.5 1203.2,418.5 1225.2,426.5 							"/>
              </g>
            </g>
            <g>
              <g>
                <polyline class="st5" points="-33,182.1 -10.9,190.1 11.1,182.1 33.2,190.1 55.2,182.1 77.3,190.1 							"/>
              </g>
              <g>
                <polyline class="st3" points="-33,158.5 -10.9,166.5 11.1,158.5 33.2,166.5 55.2,158.5 77.3,166.5 							"/>
              </g>
            </g>
            <g>
              <polyline class="st5" points="143.8,539 162.6,537.4 173.3,522 192.1,520.4 202.8,504.9 221.6,503.3 						"/>
            </g>
            <g>
              <polyline class="st4" points="688.6,97.1 707.3,95.6 718,80.1 736.8,78.5 747.5,63.1 766.3,61.5 						"/>
            </g>
            <g>
              <polyline class="st4" points="196.9,433 215.6,431.4 226.4,415.9 245.1,414.3 255.9,398.9 274.6,397.3 						"/>
            </g>
          </g>
          <g>
            <path class="st6" d="M335.4,23.7c0,1.3-1.1,2.4-2.4,2.4s-2.4-1.1-2.4-2.4c0-1.3,1.1-2.4,2.4-2.4S335.4,22.4,335.4,23.7z"/>
            <path class="st6" d="M351.2,23.7c0,1.3-1.1,2.4-2.4,2.4c-1.3,0-2.4-1.1-2.4-2.4c0-1.3,1.1-2.4,2.4-2.4
						C350.1,21.3,351.2,22.4,351.2,23.7z"/>
            <path class="st6" d="M366.9,23.7c0,1.3-1.1,2.4-2.4,2.4c-1.3,0-2.4-1.1-2.4-2.4c0-1.3,1.1-2.4,2.4-2.4
						C365.9,21.3,366.9,22.4,366.9,23.7z"/>
            <path class="st6" d="M382.7,23.7c0,1.3-1.1,2.4-2.4,2.4c-1.3,0-2.4-1.1-2.4-2.4c0-1.3,1.1-2.4,2.4-2.4
						C381.6,21.3,382.7,22.4,382.7,23.7z"/>
            <path class="st6" d="M398.5,23.7c0,1.3-1.1,2.4-2.4,2.4c-1.3,0-2.4-1.1-2.4-2.4c0-1.3,1.1-2.4,2.4-2.4
						C397.4,21.3,398.5,22.4,398.5,23.7z"/>
            <path class="st6" d="M414.2,23.7c0,1.3-1.1,2.4-2.4,2.4c-1.3,0-2.4-1.1-2.4-2.4c0-1.3,1.1-2.4,2.4-2.4
						C413.2,21.3,414.2,22.4,414.2,23.7z"/>
            <path class="st6" d="M430,23.7c0,1.3-1.1,2.4-2.4,2.4c-1.3,0-2.4-1.1-2.4-2.4c0-1.3,1.1-2.4,2.4-2.4
						C428.9,21.3,430,22.4,430,23.7z"/>
            <path class="st6" d="M445.8,23.7c0,1.3-1.1,2.4-2.4,2.4c-1.3,0-2.4-1.1-2.4-2.4c0-1.3,1.1-2.4,2.4-2.4
						C444.7,21.3,445.8,22.4,445.8,23.7z"/>
            <path class="st6" d="M461.5,23.7c0,1.3-1.1,2.4-2.4,2.4c-1.3,0-2.4-1.1-2.4-2.4c0-1.3,1.1-2.4,2.4-2.4
						C460.5,21.3,461.5,22.4,461.5,23.7z"/>
            <circle class="st6" cx="341" cy="36.2" r="2.4"/>
            <circle class="st6" cx="356.8" cy="36.2" r="2.4"/>
            <path class="st6" d="M374.9,36.2c0,1.3-1.1,2.4-2.4,2.4c-1.3,0-2.4-1.1-2.4-2.4c0-1.3,1.1-2.4,2.4-2.4
						C373.9,33.8,374.9,34.9,374.9,36.2z"/>
            <path class="st6" d="M390.7,36.2c0,1.3-1.1,2.4-2.4,2.4c-1.3,0-2.4-1.1-2.4-2.4c0-1.3,1.1-2.4,2.4-2.4
						C389.6,33.8,390.7,34.9,390.7,36.2z"/>
            <path class="st6" d="M406.5,36.2c0,1.3-1.1,2.4-2.4,2.4c-1.3,0-2.4-1.1-2.4-2.4c0-1.3,1.1-2.4,2.4-2.4
						C405.4,33.8,406.5,34.9,406.5,36.2z"/>
            <circle class="st6" cx="419.9" cy="36.2" r="2.4"/>
            <path class="st6" d="M438,36.2c0,1.3-1.1,2.4-2.4,2.4c-1.3,0-2.4-1.1-2.4-2.4c0-1.3,1.1-2.4,2.4-2.4
						C436.9,33.8,438,34.9,438,36.2z"/>
            <path class="st6" d="M453.8,36.2c0,1.3-1.1,2.4-2.4,2.4c-1.3,0-2.4-1.1-2.4-2.4c0-1.3,1.1-2.4,2.4-2.4
						C452.7,33.8,453.8,34.9,453.8,36.2z"/>
            <path class="st6" d="M469.5,36.2c0,1.3-1.1,2.4-2.4,2.4c-1.3,0-2.4-1.1-2.4-2.4c0-1.3,1.1-2.4,2.4-2.4
						C468.5,33.8,469.5,34.9,469.5,36.2z"/>
          </g>
          <g>
            <path class="st6" d="M-34.2,427c0,1.3-1.1,2.4-2.4,2.4c-1.3,0-2.4-1.1-2.4-2.4c0-1.3,1.1-2.4,2.4-2.4
						C-35.2,424.6-34.2,425.7-34.2,427z"/>
            <path class="st6" d="M-18.4,427c0,1.3-1.1,2.4-2.4,2.4c-1.3,0-2.4-1.1-2.4-2.4c0-1.3,1.1-2.4,2.4-2.4
						C-19.5,424.6-18.4,425.7-18.4,427z"/>
            <path class="st6" d="M-2.6,427c0,1.3-1.1,2.4-2.4,2.4c-1.3,0-2.4-1.1-2.4-2.4c0-1.3,1.1-2.4,2.4-2.4
						C-3.7,424.6-2.6,425.7-2.6,427z"/>
            <path class="st6" d="M13.1,427c0,1.3-1.1,2.4-2.4,2.4c-1.3,0-2.4-1.1-2.4-2.4c0-1.3,1.1-2.4,2.4-2.4
						C12.1,424.6,13.1,425.7,13.1,427z"/>
            <path class="st6" d="M28.9,427c0,1.3-1.1,2.4-2.4,2.4c-1.3,0-2.4-1.1-2.4-2.4c0-1.3,1.1-2.4,2.4-2.4
						C27.8,424.6,28.9,425.7,28.9,427z"/>
            <path class="st6" d="M44.7,427c0,1.3-1.1,2.4-2.4,2.4c-1.3,0-2.4-1.1-2.4-2.4c0-1.3,1.1-2.4,2.4-2.4
						C43.6,424.6,44.7,425.7,44.7,427z"/>
            <path class="st6" d="M60.4,427c0,1.3-1.1,2.4-2.4,2.4c-1.3,0-2.4-1.1-2.4-2.4c0-1.3,1.1-2.4,2.4-2.4
						C59.4,424.6,60.4,425.7,60.4,427z"/>
            <path class="st6" d="M76.2,427c0,1.3-1.1,2.4-2.4,2.4s-2.4-1.1-2.4-2.4c0-1.3,1.1-2.4,2.4-2.4S76.2,425.7,76.2,427z"/>
            <path class="st6" d="M92,427c0,1.3-1.1,2.4-2.4,2.4s-2.4-1.1-2.4-2.4c0-1.3,1.1-2.4,2.4-2.4S92,425.7,92,427z"/>
            <path class="st6" d="M-26.2,439.5c0,1.3-1.1,2.4-2.4,2.4c-1.3,0-2.4-1.1-2.4-2.4c0-1.3,1.1-2.4,2.4-2.4
						C-27.2,437.1-26.2,438.2-26.2,439.5z"/>
            <path class="st6" d="M-10.4,439.5c0,1.3-1.1,2.4-2.4,2.4c-1.3,0-2.4-1.1-2.4-2.4c0-1.3,1.1-2.4,2.4-2.4
						C-11.5,437.1-10.4,438.2-10.4,439.5z"/>
            <path class="st6" d="M5.4,439.5c0,1.3-1.1,2.4-2.4,2.4s-2.4-1.1-2.4-2.4c0-1.3,1.1-2.4,2.4-2.4S5.4,438.2,5.4,439.5z"/>
            <path class="st6" d="M21.1,439.5c0,1.3-1.1,2.4-2.4,2.4s-2.4-1.1-2.4-2.4c0-1.3,1.1-2.4,2.4-2.4S21.1,438.2,21.1,439.5z"/>
            <path class="st6" d="M36.9,439.5c0,1.3-1.1,2.4-2.4,2.4c-1.3,0-2.4-1.1-2.4-2.4c0-1.3,1.1-2.4,2.4-2.4
						C35.8,437.1,36.9,438.2,36.9,439.5z"/>
            <path class="st6" d="M52.7,439.5c0,1.3-1.1,2.4-2.4,2.4s-2.4-1.1-2.4-2.4c0-1.3,1.1-2.4,2.4-2.4S52.7,438.2,52.7,439.5z"/>
            <path class="st6" d="M68.4,439.5c0,1.3-1.1,2.4-2.4,2.4c-1.3,0-2.4-1.1-2.4-2.4c0-1.3,1.1-2.4,2.4-2.4
						C67.4,437.1,68.4,438.2,68.4,439.5z"/>
            <path class="st6" d="M84.2,439.5c0,1.3-1.1,2.4-2.4,2.4c-1.3,0-2.4-1.1-2.4-2.4c0-1.3,1.1-2.4,2.4-2.4
						C83.1,437.1,84.2,438.2,84.2,439.5z"/>
            <path class="st6" d="M100,439.5c0,1.3-1.1,2.4-2.4,2.4c-1.3,0-2.4-1.1-2.4-2.4c0-1.3,1.1-2.4,2.4-2.4
						C98.9,437.1,100,438.2,100,439.5z"/>
          </g>
          <g>
            <path class="st6" d="M1097,500.9c0,1.3-1.1,2.4-2.4,2.4c-1.3,0-2.4-1.1-2.4-2.4c0-1.3,1.1-2.4,2.4-2.4
						C1096,498.5,1097,499.6,1097,500.9z"/>
            <path class="st6" d="M1112.8,500.9c0,1.3-1.1,2.4-2.4,2.4c-1.3,0-2.4-1.1-2.4-2.4c0-1.3,1.1-2.4,2.4-2.4
						C1111.7,498.5,1112.8,499.6,1112.8,500.9z"/>
            <path class="st6" d="M1128.6,500.9c0,1.3-1.1,2.4-2.4,2.4c-1.3,0-2.4-1.1-2.4-2.4c0-1.3,1.1-2.4,2.4-2.4
						C1127.5,498.5,1128.6,499.6,1128.6,500.9z"/>
            <path class="st6" d="M1144.3,500.9c0,1.3-1.1,2.4-2.4,2.4s-2.4-1.1-2.4-2.4c0-1.3,1.1-2.4,2.4-2.4S1144.3,499.6,1144.3,500.9z" />
            <path class="st6" d="M1160.1,500.9c0,1.3-1.1,2.4-2.4,2.4c-1.3,0-2.4-1.1-2.4-2.4c0-1.3,1.1-2.4,2.4-2.4
						C1159,498.5,1160.1,499.6,1160.1,500.9z"/>
            <path class="st6" d="M1175.9,500.9c0,1.3-1.1,2.4-2.4,2.4c-1.3,0-2.4-1.1-2.4-2.4c0-1.3,1.1-2.4,2.4-2.4
						C1174.8,498.5,1175.9,499.6,1175.9,500.9z"/>
            <path class="st6" d="M1191.6,500.9c0,1.3-1.1,2.4-2.4,2.4c-1.3,0-2.4-1.1-2.4-2.4c0-1.3,1.1-2.4,2.4-2.4
						C1190.6,498.5,1191.6,499.6,1191.6,500.9z"/>
            <path class="st6" d="M1207.4,500.9c0,1.3-1.1,2.4-2.4,2.4s-2.4-1.1-2.4-2.4c0-1.3,1.1-2.4,2.4-2.4S1207.4,499.6,1207.4,500.9z" />
            <path class="st6" d="M1223.2,500.9c0,1.3-1.1,2.4-2.4,2.4c-1.3,0-2.4-1.1-2.4-2.4c0-1.3,1.1-2.4,2.4-2.4
						C1222.1,498.5,1223.2,499.6,1223.2,500.9z"/>
            <path class="st6" d="M1105,513.4c0,1.3-1.1,2.4-2.4,2.4s-2.4-1.1-2.4-2.4c0-1.3,1.1-2.4,2.4-2.4S1105,512.1,1105,513.4z"/>
            <path class="st6" d="M1120.8,513.4c0,1.3-1.1,2.4-2.4,2.4c-1.3,0-2.4-1.1-2.4-2.4c0-1.3,1.1-2.4,2.4-2.4
						C1119.7,511,1120.8,512.1,1120.8,513.4z"/>
            <path class="st6" d="M1136.6,513.4c0,1.3-1.1,2.4-2.4,2.4c-1.3,0-2.4-1.1-2.4-2.4c0-1.3,1.1-2.4,2.4-2.4
						C1135.5,511,1136.6,512.1,1136.6,513.4z"/>
            <path class="st6" d="M1152.3,513.4c0,1.3-1.1,2.4-2.4,2.4c-1.3,0-2.4-1.1-2.4-2.4c0-1.3,1.1-2.4,2.4-2.4
						C1151.3,511,1152.3,512.1,1152.3,513.4z"/>
            <path class="st6" d="M1168.1,513.4c0,1.3-1.1,2.4-2.4,2.4c-1.3,0-2.4-1.1-2.4-2.4c0-1.3,1.1-2.4,2.4-2.4
						C1167,511,1168.1,512.1,1168.1,513.4z"/>
            <path class="st6" d="M1183.9,513.4c0,1.3-1.1,2.4-2.4,2.4s-2.4-1.1-2.4-2.4c0-1.3,1.1-2.4,2.4-2.4S1183.9,512.1,1183.9,513.4z" />
            <path class="st6" d="M1199.6,513.4c0,1.3-1.1,2.4-2.4,2.4s-2.4-1.1-2.4-2.4c0-1.3,1.1-2.4,2.4-2.4S1199.6,512.1,1199.6,513.4z" />
            <path class="st6" d="M1215.4,513.4c0,1.3-1.1,2.4-2.4,2.4c-1.3,0-2.4-1.1-2.4-2.4c0-1.3,1.1-2.4,2.4-2.4
						C1214.3,511,1215.4,512.1,1215.4,513.4z"/>
            <path class="st6" d="M1231.2,513.4c0,1.3-1.1,2.4-2.4,2.4s-2.4-1.1-2.4-2.4c0-1.3,1.1-2.4,2.4-2.4S1231.2,512.1,1231.2,513.4z" />
          </g>
          <g>
            <path class="st7" d="M722.6,536.3c0,1.3-1.1,2.4-2.4,2.4c-1.3,0-2.4-1.1-2.4-2.4c0-1.3,1.1-2.4,2.4-2.4
						C721.6,533.9,722.6,534.9,722.6,536.3z"/>
            <path class="st7" d="M738.4,536.3c0,1.3-1.1,2.4-2.4,2.4s-2.4-1.1-2.4-2.4c0-1.3,1.1-2.4,2.4-2.4S738.4,534.9,738.4,536.3z"/>
            <path class="st7" d="M754.2,536.3c0,1.3-1.1,2.4-2.4,2.4c-1.3,0-2.4-1.1-2.4-2.4c0-1.3,1.1-2.4,2.4-2.4
						C753.1,533.9,754.2,534.9,754.2,536.3z"/>
            <path class="st7" d="M769.9,536.3c0,1.3-1.1,2.4-2.4,2.4c-1.3,0-2.4-1.1-2.4-2.4c0-1.3,1.1-2.4,2.4-2.4
						C768.9,533.9,769.9,534.9,769.9,536.3z"/>
            <path class="st7" d="M785.7,536.3c0,1.3-1.1,2.4-2.4,2.4c-1.3,0-2.4-1.1-2.4-2.4c0-1.3,1.1-2.4,2.4-2.4
						C784.6,533.9,785.7,534.9,785.7,536.3z"/>
            <path class="st7" d="M801.5,536.3c0,1.3-1.1,2.4-2.4,2.4c-1.3,0-2.4-1.1-2.4-2.4c0-1.3,1.1-2.4,2.4-2.4
						C800.4,533.9,801.5,534.9,801.5,536.3z"/>
            <path class="st7" d="M817.2,536.3c0,1.3-1.1,2.4-2.4,2.4s-2.4-1.1-2.4-2.4c0-1.3,1.1-2.4,2.4-2.4S817.2,534.9,817.2,536.3z"/>
            <path class="st7" d="M833,536.3c0,1.3-1.1,2.4-2.4,2.4c-1.3,0-2.4-1.1-2.4-2.4c0-1.3,1.1-2.4,2.4-2.4
						C832,533.9,833,534.9,833,536.3z"/>
            <path class="st7" d="M848.8,536.3c0,1.3-1.1,2.4-2.4,2.4c-1.3,0-2.4-1.1-2.4-2.4c0-1.3,1.1-2.4,2.4-2.4
						C847.7,533.9,848.8,534.9,848.8,536.3z"/>
            <path class="st7" d="M730.6,548.7c0,1.3-1.1,2.4-2.4,2.4c-1.3,0-2.4-1.1-2.4-2.4c0-1.3,1.1-2.4,2.4-2.4
						C729.6,546.4,730.6,547.4,730.6,548.7z"/>
            <path class="st7" d="M746.4,548.7c0,1.3-1.1,2.4-2.4,2.4c-1.3,0-2.4-1.1-2.4-2.4c0-1.3,1.1-2.4,2.4-2.4
						C745.3,546.4,746.4,547.4,746.4,548.7z"/>
            <path class="st7" d="M762.2,548.7c0,1.3-1.1,2.4-2.4,2.4c-1.3,0-2.4-1.1-2.4-2.4c0-1.3,1.1-2.4,2.4-2.4
						C761.1,546.4,762.2,547.4,762.2,548.7z"/>
            <path class="st7" d="M777.9,548.7c0,1.3-1.1,2.4-2.4,2.4c-1.3,0-2.4-1.1-2.4-2.4c0-1.3,1.1-2.4,2.4-2.4
						C776.9,546.4,777.9,547.4,777.9,548.7z"/>
            <path class="st7" d="M793.7,548.7c0,1.3-1.1,2.4-2.4,2.4c-1.3,0-2.4-1.1-2.4-2.4c0-1.3,1.1-2.4,2.4-2.4
						C792.6,546.4,793.7,547.4,793.7,548.7z"/>
            <path class="st7" d="M809.5,548.7c0,1.3-1.1,2.4-2.4,2.4c-1.3,0-2.4-1.1-2.4-2.4c0-1.3,1.1-2.4,2.4-2.4
						C808.4,546.4,809.5,547.4,809.5,548.7z"/>
            <path class="st7" d="M825.2,548.7c0,1.3-1.1,2.4-2.4,2.4c-1.3,0-2.4-1.1-2.4-2.4c0-1.3,1.1-2.4,2.4-2.4
						C824.2,546.4,825.2,547.4,825.2,548.7z"/>
            <path class="st7" d="M841,548.7c0,1.3-1.1,2.4-2.4,2.4c-1.3,0-2.4-1.1-2.4-2.4c0-1.3,1.1-2.4,2.4-2.4
						C839.9,546.4,841,547.4,841,548.7z"/>
            <path class="st7" d="M856.8,548.7c0,1.3-1.1,2.4-2.4,2.4c-1.3,0-2.4-1.1-2.4-2.4c0-1.3,1.1-2.4,2.4-2.4
						C855.7,546.4,856.8,547.4,856.8,548.7z"/>
          </g>
          <g>
            <g>
              <path class="st8" d="M947.8,38.2c0,1.3-1.1,2.4-2.4,2.4c-1.3,0-2.4-1.1-2.4-2.4c0-1.3,1.1-2.4,2.4-2.4
							C946.8,35.8,947.8,36.8,947.8,38.2z"/>
              <path class="st8" d="M963.6,38.2c0,1.3-1.1,2.4-2.4,2.4c-1.3,0-2.4-1.1-2.4-2.4c0-1.3,1.1-2.4,2.4-2.4
							C962.5,35.8,963.6,36.8,963.6,38.2z"/>
              <path class="st8" d="M979.4,38.2c0,1.3-1.1,2.4-2.4,2.4c-1.3,0-2.4-1.1-2.4-2.4c0-1.3,1.1-2.4,2.4-2.4
							C978.3,35.8,979.4,36.8,979.4,38.2z"/>
            </g>
            <g>
              <path class="st8" d="M947.8,50.2c0,1.3-1.2,2.3-2.5,2.3c-1.3,0-2.3-1.2-2.3-2.5c0-1.3,1.2-2.3,2.5-2.3S947.9,48.8,947.8,50.2z
							"/>
              <path class="st8" d="M963.6,50.7c0,1.3-1.2,2.3-2.5,2.3c-1.3,0-2.3-1.2-2.3-2.5c0-1.3,1.2-2.3,2.5-2.3
							C962.6,48.3,963.6,49.4,963.6,50.7z"/>
              <path class="st8" d="M979.4,51.3c0,1.3-1.2,2.3-2.5,2.3c-1.3,0-2.3-1.2-2.3-2.5c0-1.3,1.2-2.3,2.5-2.3
							C978.4,48.9,979.4,50,979.4,51.3z"/>
            </g>
          </g>
          <g>
            <g>
              <path class="st8" d="M1127.8,271.1c0,1.3-1.1,2.4-2.4,2.4c-1.3,0-2.4-1.1-2.4-2.4c0-1.3,1.1-2.4,2.4-2.4
							C1126.7,268.8,1127.8,269.8,1127.8,271.1z"/>
              <path class="st8" d="M1143.6,271.1c0,1.3-1.1,2.4-2.4,2.4c-1.3,0-2.4-1.1-2.4-2.4c0-1.3,1.1-2.4,2.4-2.4
							C1142.5,268.8,1143.6,269.8,1143.6,271.1z"/>
              <path class="st8" d="M1159.3,271.1c0,1.3-1.1,2.4-2.4,2.4s-2.4-1.1-2.4-2.4c0-1.3,1.1-2.4,2.4-2.4S1159.3,269.8,1159.3,271.1z
							"/>
            </g>
            <g>
              <path class="st8" d="M1127.8,283.1c0,1.3-1.2,2.3-2.5,2.3c-1.3,0-2.3-1.2-2.3-2.5c0-1.3,1.2-2.3,2.5-2.3
							C1126.8,280.7,1127.8,281.8,1127.8,283.1z"/>
              <path class="st8" d="M1143.6,283.7c0,1.3-1.2,2.3-2.5,2.3c-1.3,0-2.3-1.2-2.3-2.5c0-1.3,1.2-2.3,2.5-2.3
							C1142.6,281.3,1143.6,282.4,1143.6,283.7z"/>
              <path class="st8" d="M1159.3,284.3c0,1.3-1.2,2.3-2.5,2.3c-1.3,0-2.3-1.2-2.3-2.5c0-1.3,1.2-2.3,2.5-2.3
							C1158.3,281.9,1159.4,283,1159.3,284.3z"/>
            </g>
          </g>
          <g>
            <g>
              <g>
                <path class="st9" d="M455.2,548.7c-1.3,0-2.4-1.1-2.4-2.4c0-1.3,1.1-2.4,2.4-2.4c1.3,0,2.4,1.1,2.4,2.4
								C457.6,547.6,456.5,548.7,455.2,548.7z"/>
                <path class="st9" d="M455.2,564.4c-1.3,0-2.4-1.1-2.4-2.4c0-1.3,1.1-2.4,2.4-2.4c1.3,0,2.4,1.1,2.4,2.4
								C457.6,563.4,456.5,564.4,455.2,564.4z"/>
                <path class="st9" d="M455.2,580.2c-1.3,0-2.4-1.1-2.4-2.4c0-1.3,1.1-2.4,2.4-2.4c1.3,0,2.4,1.1,2.4,2.4
								C457.6,579.2,456.5,580.2,455.2,580.2z"/>
              </g>
              <g>
                <path class="st9" d="M443.2,548.7c-1.3,0-2.3-1.2-2.3-2.5c0-1.3,1.2-2.3,2.5-2.3c1.3,0,2.3,1.2,2.3,2.5
								C445.6,547.7,444.5,548.7,443.2,548.7z"/>
                <path class="st9" d="M442.6,564.4c-1.3,0-2.3-1.2-2.3-2.5c0-1.3,1.2-2.3,2.5-2.3c1.3,0,2.3,1.2,2.3,2.5
								C445,563.5,443.9,564.5,442.6,564.4z"/>
                <path class="st9" d="M442,580.2c-1.3,0-2.3-1.2-2.3-2.5c0-1.3,1.2-2.3,2.5-2.3c1.3,0,2.3,1.2,2.3,2.5
								C444.5,579.2,443.4,580.3,442,580.2z"/>
              </g>
            </g>
            <g>
              <g>
                <path class="st9" d="M455.2,502.1c-1.3,0-2.4-1.1-2.4-2.4c0-1.3,1.1-2.4,2.4-2.4c1.3,0,2.4,1.1,2.4,2.4
								C457.6,501,456.5,502.1,455.2,502.1z"/>
                <path class="st9" d="M455.2,517.9c-1.3,0-2.4-1.1-2.4-2.4c0-1.3,1.1-2.4,2.4-2.4c1.3,0,2.4,1.1,2.4,2.4
								C457.6,516.8,456.5,517.9,455.2,517.9z"/>
                <path class="st9" d="M455.2,533.6c-1.3,0-2.4-1.1-2.4-2.4c0-1.3,1.1-2.4,2.4-2.4c1.3,0,2.4,1.1,2.4,2.4
								C457.6,532.6,456.5,533.6,455.2,533.6z"/>
              </g>
              <g>
                <path class="st9" d="M443.2,502.1c-1.3,0-2.3-1.2-2.3-2.5c0-1.3,1.2-2.3,2.5-2.3c1.3,0,2.3,1.2,2.3,2.5
								C445.6,501.1,444.5,502.1,443.2,502.1z"/>
                <path class="st9" d="M442.6,517.8c-1.3,0-2.3-1.2-2.3-2.5c0-1.3,1.2-2.3,2.5-2.3c1.3,0,2.3,1.2,2.3,2.5
								C445,516.9,443.9,517.9,442.6,517.8z"/>
                <path class="st9" d="M442,533.6c-1.3,0-2.3-1.2-2.3-2.5c0-1.3,1.2-2.3,2.5-2.3c1.3,0,2.3,1.2,2.3,2.5
								C444.5,532.6,443.4,533.7,442,533.6z"/>
              </g>
            </g>
          </g>
        </g>
      </g>
    </g>
  </g>
  <g id="OBJECTS">
  </g>
</svg>
